<?xml version="1.0" encoding="UTF-8" standalone="no"?>
<!-- Created with Inkscape (http://www.inkscape.org/) -->

<svg
   xmlns:dc="http://purl.org/dc/elements/1.1/"
   xmlns:cc="http://creativecommons.org/ns#"
   xmlns:rdf="http://www.w3.org/1999/02/22-rdf-syntax-ns#"
   xmlns:svg="http://www.w3.org/2000/svg"
   xmlns="http://www.w3.org/2000/svg"
   xmlns:sodipodi="http://sodipodi.sourceforge.net/DTD/sodipodi-0.dtd"
   xmlns:inkscape="http://www.inkscape.org/namespaces/inkscape"
   id="svg2"
   version="1.1"
   inkscape:version="0.91 r13725"
   width="38"
   height="38"
   viewBox="0 0 38 38"
   sodipodi:docname="education.svg">
  <metadata
     id="metadata8">
    <rdf:RDF>
      <cc:Work
         rdf:about="">
        <dc:format>image/svg+xml</dc:format>
        <dc:type
           rdf:resource="http://purl.org/dc/dcmitype/StillImage" />
        <dc:title></dc:title>
      </cc:Work>
    </rdf:RDF>
  </metadata>
  <defs
     id="defs6" />
  <sodipodi:namedview
     pagecolor="#ffffff"
     bordercolor="#666666"
     borderopacity="1"
     objecttolerance="10"
     gridtolerance="10"
     guidetolerance="10"
     inkscape:pageopacity="0"
     inkscape:pageshadow="2"
     inkscape:window-width="1872"
     inkscape:window-height="1059"
     id="namedview4"
     showgrid="false"
     inkscape:zoom="7.5959596"
     inkscape:cx="28.37804"
     inkscape:cy="22.294586"
     inkscape:window-x="48"
     inkscape:window-y="21"
     inkscape:window-maximized="1"
     inkscape:current-layer="svg2" />
  <path
     style="fill:#cccccc;fill-opacity:1;stroke:#000000;stroke-opacity:1;stroke-width:0.5;stroke-miterlimit:4;stroke-dasharray:none"
     d="m 16.720801,31.361068 c -1.52525,-0.357648 -2.52797,-0.740911 -3.88873,-1.486369 -1.30252,-0.71355 -3.52687,-2.453716 -3.69436,-2.890195 -0.13771,-0.358846 -0.14112,-6.040132 -0.004,-6.040132 0.057,0 2.30018,0.940635 4.98491,2.090299 2.74317,1.17469 5.01616,2.047263 5.18915,1.992048 0.16931,-0.05404 2.42493,-0.987408 5.01249,-2.074153 l 4.70466,-1.975903 0.0497,3.101499 0.0497,3.101501 -0.68301,0.596226 c -1.77226,1.54708 -3.70144,2.653082 -5.74956,3.296232 -1.62343,0.509787 -4.44684,0.646411 -5.9713,0.288947 z M 3.7037313,26.056163 c 0.0681,-0.472727 0.2275,-1.510919 0.35417,-2.307091 0.13613,-0.85566 0.16401,-1.517878 0.0682,-1.619488 -0.3012,-0.319358 -0.17453,-1.156005 0.2165,-1.42989 0.29297,-0.205203 1.61181,-2.440031 1.61181,-2.731275 0,-0.03235 -1.28248,-0.606176 -2.84994,-1.275175 -1.56747,-0.668998 -2.90633005,-1.268647 -2.97525005,-1.332553 -0.0689,-0.06391 4.19293005,-1.92738 9.47077975,-4.141054 l 9.59611,-4.024861 9.58093,4.104278 c 5.61696,2.406193 9.4845,4.157667 9.34784,4.23332 -0.24173,0.133826 -16.03403,6.754915 -17.98803,7.541675 l -1.1077,0.446004 -5.45195,-2.327481 c -2.99858,-1.280114 -5.42524,-2.409273 -5.3926,-2.509242 0.12693,-0.388651 1.58474,-1.188387 2.68087,-1.470691 0.93038,-0.239615 1.72237,-0.277763 4.13635,-0.199237 1.64211,0.05342 3.11765,0.150153 3.27898,0.214968 0.3285,0.13198 0.88284,-0.326486 0.88284,-0.730158 0,-0.142173 -0.15165,-0.410149 -0.33701,-0.595501 -0.26908,-0.269081 -0.73407,-0.361225 -2.30709,-0.457181 -3.29705,-0.201124 -5.55972,0.215124 -7.32419,1.347376 -1.5728597,1.009302 -3.7582697,3.666373 -3.5219897,4.282111 0.0587,0.152855 0.0103,0.5444 -0.10749,0.870099 -0.20341,0.562518 -0.0976,1.990057 0.32495,4.38247 l 0.10386,0.588082 -1.20739,0 -1.20739,0 0.12386,-0.859505 z"
     id="path4138"
     inkscape:connector-curvature="0" />
</svg>
