<?xml version="1.0" encoding="UTF-8" standalone="no"?>
<!-- Created with Inkscape (http://www.inkscape.org/) -->

<svg
   xmlns:dc="http://purl.org/dc/elements/1.1/"
   xmlns:cc="http://creativecommons.org/ns#"
   xmlns:rdf="http://www.w3.org/1999/02/22-rdf-syntax-ns#"
   xmlns:svg="http://www.w3.org/2000/svg"
   xmlns="http://www.w3.org/2000/svg"
   xmlns:sodipodi="http://sodipodi.sourceforge.net/DTD/sodipodi-0.dtd"
   xmlns:inkscape="http://www.inkscape.org/namespaces/inkscape"
   id="svg2"
   version="1.1"
   inkscape:version="0.91 r13725"
   width="38"
   height="38"
   viewBox="0 0 38 38"
   sodipodi:docname="food.svg">
  <metadata
     id="metadata8">
    <rdf:RDF>
      <cc:Work
         rdf:about="">
        <dc:format>image/svg+xml</dc:format>
        <dc:type
           rdf:resource="http://purl.org/dc/dcmitype/StillImage" />
        <dc:title></dc:title>
      </cc:Work>
    </rdf:RDF>
  </metadata>
  <defs
     id="defs6" />
  <sodipodi:namedview
     pagecolor="#ffffff"
     bordercolor="#666666"
     borderopacity="1"
     objecttolerance="10"
     gridtolerance="10"
     guidetolerance="10"
     inkscape:pageopacity="0"
     inkscape:pageshadow="2"
     inkscape:window-width="1872"
     inkscape:window-height="1059"
     id="namedview4"
     showgrid="false"
     inkscape:zoom="14.75"
     inkscape:cx="23.754157"
     inkscape:cy="24.624707"
     inkscape:window-x="48"
     inkscape:window-y="21"
     inkscape:window-maximized="1"
     inkscape:current-layer="svg2" />
  <path
     style="fill:#cccccc;fill-opacity:1;stroke:#000000;stroke-opacity:1;stroke-width:0.5;stroke-miterlimit:4;stroke-dasharray:none"
     d="m 4.2989484,35.230606 c -1.63255,-0.4466 -2.63761,-1.40789 -2.85176,-2.72758 l -0.084,-0.5175 9.2085396,0 9.20855,0 0,0.33339 c 0,0.57985 -0.70296,1.78375 -1.27108,2.17689 -1.26303,0.87401 -1.32087,0.88097 -7.6291,0.91779 -4.7707596,0.0278 -5.9280796,-0.004 -6.5811696,-0.18299 z m 19.9018496,0.0473 c -0.0312,-0.0995 -0.13157,-0.83213 -0.22311,-1.62808 -0.0915,-0.79595 -0.74756,-6.03836 -1.45782,-11.64981 -0.71025,-5.61145 -1.2916,-10.28404 -1.29188,-10.38354 -4.3e-4,-0.14192 1.34789,-0.18105 6.25855,-0.18162 l 6.25907,-7.3e-4 1.2135,-4.2684499 c 0.66743,-2.34766 1.27854,-4.26847 1.35803,-4.26847 0.28113,0 1.2635,0.33664 1.2635,0.43297 0,0.087 -1.97507,6.9734499 -2.22949,7.7735599 -0.0981,0.30854 -0.0632,0.32083 1.02779,0.3618 1.10782,0.0416 1.12866,0.0493 1.09368,0.4042 -0.15174,1.53973 -2.9595,23.37328 -3.01791,23.4678 -0.0412,0.0667 -2.35247,0.12127 -5.13609,0.12127 -3.92221,0 -5.0739,-0.0407 -5.11782,-0.1809 z M 1.2139984,29.957256 c -0.44062995,-0.3466 -0.72985995,-1.12843 -0.60357995,-1.63157 0.0498,-0.19828 0.28482,-0.54673 0.52232995,-0.77434 l 0.43184,-0.41384 8.42044,-0.0445 c 4.6312396,-0.0245 8.6960196,-0.004 9.0328296,0.0446 0.86984,0.12657 1.48603,0.76719 1.48603,1.54496 0,0.46917 -0.0955,0.67775 -0.49204,1.07425 l -0.49205,0.49205 -8.96748,0 c -8.7715496,0 -8.9755896,-0.006 -9.3383196,-0.2917 z m 0.228,-5.07323 c 0.16751,-1.24887 1.22919,-2.25664 2.81156,-2.66879 1.20596,-0.31412 11.4682896,-0.31412 12.6742596,0 1.58483,0.41279 2.59024,1.36444 2.79228,2.64296 l 0.0972,0.61505 -9.22716,0 -9.2271596,0 0.079,-0.58922 z"
     id="path4138"
     inkscape:connector-curvature="0" />
</svg>
