<?xml version="1.0" encoding="UTF-8" standalone="no"?>
<!-- Created with Inkscape (http://www.inkscape.org/) -->

<svg
   xmlns:dc="http://purl.org/dc/elements/1.1/"
   xmlns:cc="http://creativecommons.org/ns#"
   xmlns:rdf="http://www.w3.org/1999/02/22-rdf-syntax-ns#"
   xmlns:svg="http://www.w3.org/2000/svg"
   xmlns="http://www.w3.org/2000/svg"
   xmlns:sodipodi="http://sodipodi.sourceforge.net/DTD/sodipodi-0.dtd"
   xmlns:inkscape="http://www.inkscape.org/namespaces/inkscape"
   id="svg2"
   version="1.1"
   inkscape:version="0.91 r13725"
   width="38"
   height="38"
   viewBox="0 0 38 38"
   sodipodi:docname="application.svg">
  <metadata
     id="metadata8">
    <rdf:RDF>
      <cc:Work
         rdf:about="">
        <dc:format>image/svg+xml</dc:format>
        <dc:type
           rdf:resource="http://purl.org/dc/dcmitype/StillImage" />
        <dc:title></dc:title>
      </cc:Work>
    </rdf:RDF>
  </metadata>
  <defs
     id="defs6" />
  <sodipodi:namedview
     pagecolor="#ffffff"
     bordercolor="#666666"
     borderopacity="1"
     objecttolerance="10"
     gridtolerance="10"
     guidetolerance="10"
     inkscape:pageopacity="0"
     inkscape:pageshadow="2"
     inkscape:window-width="1872"
     inkscape:window-height="1059"
     id="namedview4"
     showgrid="false"
     inkscape:zoom="13.088408"
     inkscape:cx="31.168764"
     inkscape:cy="29.093693"
     inkscape:window-x="48"
     inkscape:window-y="21"
     inkscape:window-maximized="1"
     inkscape:current-layer="svg2" />
  <path
     style="fill:#cccccc;fill-opacity:0.94117647;stroke:#000000;stroke-width:0.5;stroke-miterlimit:4;stroke-dasharray:none;stroke-opacity:1"
     d="M 4.6246666,37.43423 C 2.8508606,36.990192 1.9314386,36.355534 1.2463536,35.102252 0.66189856,34.033058 0.60271356,32.563132 0.60271356,19.116686 c 0,-16.4726291 -0.0011,-16.4656501 2.47420704,-17.8183731 1.075075,-0.58754501 2.522989,-0.64604501 15.9902124,-0.64604501 16.472632,0 16.465652,-9.51e-4 17.818373,2.47420501 0.587545,1.075075 0.646046,2.522992 0.646046,15.9902131 0,13.467224 -0.0585,14.915141 -0.646046,15.990216 -1.340023,2.451943 -1.442012,2.467091 -17.087108,2.53806 -7.74226,0.0351 -14.5704384,-0.05971 -15.1737314,-0.210732 z M 33.471867,35.061013 c 1.886866,-0.788384 2.048965,-1.74421 2.046669,-12.068343 -0.0022,-9.50733 -0.254333,-11.640007 -1.452448,-12.281219 -0.919093,-0.491882 -29.0577314,-0.503166 -29.9754494,-0.01202 -1.268769,0.679025 -1.476949,2.380832 -1.476949,12.073576 0,10.445161 0.16739,11.488648 1.968691,12.272669 1.684266,0.733082 27.1393374,0.746596 28.8894864,0.01534 z M 7.2007126,7.2502649 c 0.992815,-0.992816 1.1066,-1.678336 0.477091,-2.874306 -0.569644,-1.08223 -1.020285,-1.334903 -2.392546,-1.341484 -1.338126,-0.0064 -2.309281,1.067514 -2.300338,2.543773 0.0067,1.098869 0.291259,1.575225 1.274115,2.132567 1.137075,0.6447951 1.966128,0.514999 2.941678,-0.46055 z m 6.2157454,0 c 1.108845,-1.108847 1.14399,-2.266495 0.102461,-3.375151 -1.543582,-1.643068 -4.3286164,-0.701645 -4.3182544,1.459695 0.0064,1.340669 0.250294,1.795434 1.2741154,2.376006 1.137075,0.6447951 1.966128,0.514999 2.941678,-0.46055 z m 6.215745,0 c 1.10079,-1.10079 1.134619,-1.993111 0.124264,-3.277571 -1.682814,-2.139349 -5.401223,-0.201496 -4.373632,2.279323 0.801359,1.93465 2.835184,2.4124301 4.249368,0.998248 z"
     id="path4138"
     inkscape:connector-curvature="0" />
  <path
     style="fill:#cccccc;fill-opacity:1;stroke:#000000;stroke-width:0.45124999;stroke-miterlimit:4;stroke-dasharray:none;stroke-opacity:1"
     d="M 11.845837,33.600228 C 9.8970828,33.543375 8.1418771,33.440504 7.3586456,33.337239 6.4162637,33.212992 5.8625994,32.803101 5.5666305,32.010565 5.1802516,30.975934 5.1007247,29.417051 5.0999614,22.86293 c -7.719e-4,-6.626634 0.083366,-8.338532 0.4665503,-9.492645 0.1768709,-0.532717 0.5700286,-0.95379 0.947924,-1.01523 0.7938941,-0.129073 3.4341847,-0.183392 10.4409033,-0.2148 7.615236,-0.03413 12.61508,0.02695 14.296385,0.174665 0.846245,0.07435 1.012491,0.170925 1.296273,0.753017 0.55144,1.131122 0.679932,3.382838 0.634232,11.114424 -0.03088,5.223559 -0.06334,6.058324 -0.277862,7.145799 -0.188582,0.955953 -0.517188,1.45468 -1.16865,1.773669 -0.57753,0.282789 -1.753637,0.390956 -5.478463,0.503855 -2.43347,0.07376 -11.817988,0.07021 -14.411417,-0.0055 l 0,1e-6 z"
     id="path4140"
     inkscape:connector-curvature="0" />
</svg>
