<?xml version="1.0" encoding="UTF-8" standalone="no"?>
<!-- Generator: Adobe Illustrator 19.0.0, SVG Export Plug-In . SVG Version: 6.00 Build 0)  -->

<svg
   xmlns:dc="http://purl.org/dc/elements/1.1/"
   xmlns:cc="http://creativecommons.org/ns#"
   xmlns:rdf="http://www.w3.org/1999/02/22-rdf-syntax-ns#"
   xmlns:svg="http://www.w3.org/2000/svg"
   xmlns="http://www.w3.org/2000/svg"
   xmlns:sodipodi="http://sodipodi.sourceforge.net/DTD/sodipodi-0.dtd"
   xmlns:inkscape="http://www.inkscape.org/namespaces/inkscape"
   version="1.1"
   id="Capa_1"
   x="0px"
   y="0px"
   viewBox="0 0 32 32"
   xml:space="preserve"
   inkscape:version="0.91 r13725"
   sodipodi:docname="electronics.svg"
   width="32"
   height="32"><metadata
     id="metadata43"><rdf:RDF><cc:Work
         rdf:about=""><dc:format>image/svg+xml</dc:format><dc:type
           rdf:resource="http://purl.org/dc/dcmitype/StillImage" /><dc:title></dc:title></cc:Work></rdf:RDF></metadata><defs
     id="defs41" /><sodipodi:namedview
     pagecolor="#ffffff"
     bordercolor="#666666"
     borderopacity="1"
     objecttolerance="10"
     gridtolerance="10"
     guidetolerance="10"
     inkscape:pageopacity="0"
     inkscape:pageshadow="2"
     inkscape:window-width="1872"
     inkscape:window-height="1059"
     id="namedview39"
     showgrid="false"
     inkscape:zoom="10.911464"
     inkscape:cx="26.333144"
     inkscape:cy="28.694095"
     inkscape:window-x="48"
     inkscape:window-y="21"
     inkscape:window-maximized="1"
     inkscape:current-layer="Capa_1" /><g
     id="g3"
     style="fill:#cccccc;fill-opacity:1;stroke:#000000;stroke-opacity:1;stroke-width:7.87741979;stroke-miterlimit:4;stroke-dasharray:none"
     transform="matrix(0.06347256,0,0,0.06347256,0.56571364,0.46246309)"><g
       id="g5"
       style="fill:#cccccc;fill-opacity:1;stroke:#000000;stroke-opacity:1;stroke-width:7.87741979;stroke-miterlimit:4;stroke-dasharray:none"><path
         d="m 488.9,444.2 0,-71.3 0,-169.1 0,-21.6 0,-11.3 c 0,-21.1 -16.7,-38.4 -37.1,-38.4 l -126.8,0 c -20.4,0 -37.1,17.3 -37.1,38.4 l 0,11.3 0,262 0,6.8 c 0,21.1 16.7,38.4 37.1,38.4 l 126.8,0 c 20.4,0 37.1,-17.3 37.1,-38.4 l 0,-6.8 0,0 z m -84.5,29.1 -35.8,0 c -5.3,0 -9.6,-4.5 -9.6,-10 0,-5.5 4.3,-10 9.6,-10 l 35.8,0 c 5.3,0 9.6,4.5 9.6,10 0,5.5 -4.3,10 -9.6,10 z m 50.8,-36 c -0.2,0 -0.5,0.1 -0.7,0.1 l -132.2,0 c -0.2,0 -0.5,-0.1 -0.7,-0.1 l 0,-252.4 c 0.2,0 0.5,-0.1 0.7,-0.1 l 132.2,0 c 0.2,0 0.4,0.1 0.6,0.1 l 0,252.4 0.1,0 z m -349.5,52.1 62.8,0 96.9,0 C 258.9,478.1 255.1,465 255.1,451 l 0,-22.9 -35.7,0 -177.1,0 0,-375 271.8,0 0,45.9 c 3.6,-0.5 7.2,-0.9 10.9,-0.9 l 30.4,0 0,-46.8 0,-6.3 0,-5.6 C 355.4,23.1 345.8,9.1 332.1,3.1 327.5,1.1 322.5,0 317.2,0 L 168.6,0 38.7,0 C 33.4,0 28.4,1.1 23.8,3.1 10.1,9.1 0.5,23.1 0.5,39.4 l 0,7.1 0,355.4 0,48.1 c 0,21.8 17.1,39.4 38.1,39.4 l 67.1,0 0,0 z m 54.3,-39.8 35.8,0 c 5.3,0 9.6,4.5 9.6,10 0,5.5 -4.3,10 -9.6,10 l -35.8,0 c -5.3,0 -9.6,-4.5 -9.6,-10 0,-5.5 4.3,-10 9.6,-10 z"
         id="path7"
         style="fill:#cccccc;fill-opacity:1;stroke:#000000;stroke-opacity:1;stroke-width:7.87741979;stroke-miterlimit:4;stroke-dasharray:none"
         inkscape:connector-curvature="0" /></g></g><g
     id="g9"
     transform="translate(0,-457.39999)" /><g
     id="g11"
     transform="translate(0,-457.39999)" /><g
     id="g13"
     transform="translate(0,-457.39999)" /><g
     id="g15"
     transform="translate(0,-457.39999)" /><g
     id="g17"
     transform="translate(0,-457.39999)" /><g
     id="g19"
     transform="translate(0,-457.39999)" /><g
     id="g21"
     transform="translate(0,-457.39999)" /><g
     id="g23"
     transform="translate(0,-457.39999)" /><g
     id="g25"
     transform="translate(0,-457.39999)" /><g
     id="g27"
     transform="translate(0,-457.39999)" /><g
     id="g29"
     transform="translate(0,-457.39999)" /><g
     id="g31"
     transform="translate(0,-457.39999)" /><g
     id="g33"
     transform="translate(0,-457.39999)" /><g
     id="g35"
     transform="translate(0,-457.39999)" /><g
     id="g37"
     transform="translate(0,-457.39999)" /></svg>