<?xml version="1.0" encoding="UTF-8" standalone="no"?>
<!-- Created with Inkscape (http://www.inkscape.org/) -->

<svg
   xmlns:dc="http://purl.org/dc/elements/1.1/"
   xmlns:cc="http://creativecommons.org/ns#"
   xmlns:rdf="http://www.w3.org/1999/02/22-rdf-syntax-ns#"
   xmlns:svg="http://www.w3.org/2000/svg"
   xmlns="http://www.w3.org/2000/svg"
   xmlns:sodipodi="http://sodipodi.sourceforge.net/DTD/sodipodi-0.dtd"
   xmlns:inkscape="http://www.inkscape.org/namespaces/inkscape"
   id="svg2"
   version="1.1"
   inkscape:version="0.91 r13725"
   width="38"
   height="38"
   viewBox="0 0 38 38"
   sodipodi:docname="hospital.svg">
  <metadata
     id="metadata8">
    <rdf:RDF>
      <cc:Work
         rdf:about="">
        <dc:format>image/svg+xml</dc:format>
        <dc:type
           rdf:resource="http://purl.org/dc/dcmitype/StillImage" />
        <dc:title></dc:title>
      </cc:Work>
    </rdf:RDF>
  </metadata>
  <defs
     id="defs6" />
  <sodipodi:namedview
     pagecolor="#ffffff"
     bordercolor="#666666"
     borderopacity="1"
     objecttolerance="10"
     gridtolerance="10"
     guidetolerance="10"
     inkscape:pageopacity="0"
     inkscape:pageshadow="2"
     inkscape:window-width="1872"
     inkscape:window-height="1059"
     id="namedview4"
     showgrid="false"
     fit-margin-top="0"
     fit-margin-left="0"
     fit-margin-right="0"
     fit-margin-bottom="0"
     inkscape:zoom="21.885534"
     inkscape:cx="15.892559"
     inkscape:cy="17.212594"
     inkscape:window-x="48"
     inkscape:window-y="21"
     inkscape:window-maximized="1"
     inkscape:current-layer="svg2" />
  <path
     style="fill:#cccccc;fill-opacity:1;stroke:#000000;stroke-opacity:1;stroke-width:0.5;stroke-miterlimit:4;stroke-dasharray:none"
     d="m 1.0991141,36.655654 c 0.071645,-0.622679 0.302138,-0.898356 0.8116024,-0.970712 0.7038857,-0.09997 0.7115384,-0.155235 0.7115384,-5.138889 l 0,-5.037835 1.5811969,0 1.5811968,0 0,-9.487179 0,-9.4871799 1.7393159,0 1.7393159,0 0,-2.3717948 c 0,-1.8974359 -0.094868,-2.3717948 -0.474359,-2.3717948 -0.2635314,0 -0.4743589,-0.2811013 -0.4743589,-0.632479 0,-0.62025657 0.2108275,-0.63247795 10.9102565,-0.63247795 10.699429,0 10.910256,0.0122242 10.910256,0.63247795 0,0.4216533 -0.210827,0.632479 -0.632479,0.632479 -0.576257,0 -0.632478,0.2108266 -0.632478,2.3717948 l 0,2.3717948 1.734611,0 1.734609,0 0.08376,9.4081199 0.08376,9.408119 1.502138,0.09639 1.502136,0.09639 0,5.042502 0,5.042502 0.790598,0 c 0.667617,0 0.790599,0.147578 0.790599,0.948718 l 0,0.948717 -18.046645,0 -18.04664853,0 0.10006773,-0.869658 z m 17.2660809,-4.58547 0.08909,-3.715812 -4.595507,0 -4.5955044,0 0,3.584044 c 0,1.971228 0.098708,3.682756 0.2193503,3.803399 0.1206457,0.120644 2.1485301,0.17994 4.5064101,0.131767 l 4.28706,-0.08758 0.08909,-3.715811 z m 10.504923,0.07906 0,-3.794872 -4.58547,0 -4.58547,0 0,3.584044 c 0,1.971228 0.09487,3.67892 0.210827,3.794872 0.115952,0.115956 2.179415,0.210827 4.58547,0.210827 l 4.374643,0 0,-3.794871 z m -16.509055,-8.459402 -0.09351,-2.134615 -1.264957,0 -1.2649576,0 -0.09351,2.134615 -0.09351,2.134615 1.4519756,0 1.451974,0 -0.09351,-2.134615 z m 4.111111,0 -0.09351,-2.134615 -1.264958,0 -1.264957,0 -0.09351,2.134615 -0.09351,2.134615 1.451974,0 1.451975,0 -0.09351,-2.134615 z m 8.286833,0.237179 c 0,-1.043589 -0.0012,-2.004166 -0.0029,-2.134615 -0.0016,-0.130449 -0.606325,-0.237179 -1.344017,-0.237179 l -1.341266,0 -0.09351,2.134615 -0.09351,2.134615 1.437526,0 1.437525,0 0,-1.897436 z m 4.111111,-0.312652 0,-2.21009 -1.344017,0.07547 -1.344017,0.07547 -0.09351,2.134615 -0.09351,2.134615 1.437526,0 1.437527,0 0,-2.210088 z m -16.444444,-5.221535 0,-2.055556 -1.423077,0 -1.4230767,0 0,2.055556 0,2.055556 1.4230767,0 1.423077,0 0,-2.055556 z m 4.11111,0 0,-2.055556 -1.423076,0 -1.423077,0 0,2.055556 0,2.055556 1.423077,0 1.423076,0 0,-2.055556 z m 8.222223,0 0,-2.055556 -1.423077,0 -1.423077,0 0,2.055556 0,2.055556 1.423077,0 1.423077,0 0,-2.055556 z m 4.111111,0 0,-2.055556 -1.423076,0 -1.423077,0 0,2.055556 0,2.055556 1.423077,0 1.423076,0 0,-2.055556 z m -16.444444,-5.217949 0,-2.213676 -1.423077,0 -1.4230767,0 0,2.00285 c 0,1.101567 0.094868,2.097721 0.2108267,2.213674 0.1159525,0.115955 0.756337,0.210827 1.423077,0.210827 l 1.21225,0 0,-2.213675 z m 4.0465,-0.07906 0.09351,-2.134615 -1.437527,0 -1.437525,0 0,2.231858 0,2.231858 1.344017,-0.09724 1.344017,-0.09724 0.09351,-2.134615 z m 8.286833,0.07906 0,-2.213676 -1.423077,0 -1.423077,0 0,2.00285 c 0,1.101567 0.09487,2.097721 0.210828,2.213674 0.115952,0.115955 0.756336,0.210827 1.423076,0.210827 l 1.21225,0 0,-2.213675 z m 4.111111,0 0,-2.213676 -1.423076,0 -1.423077,0 0,2.00285 c 0,1.101567 0.09487,2.097721 0.210826,2.213674 0.115953,0.115955 0.756337,0.210827 1.423077,0.210827 l 1.21225,0 0,-2.213675 z M 20.331656,7.9569398 c 0,-0.632478 0.15812,-0.790598 0.790599,-0.790598 0.692713,0 0.790598,-0.1370367 0.790598,-1.1068379 0,-0.9698002 -0.09788,-1.1068369 -0.790598,-1.1068369 -0.667616,0 -0.790599,-0.1475789 -0.790599,-0.948718 0,-0.8935331 -0.07244,-0.9487179 -1.245435,-0.9487179 -1.162262,0 -1.241457,0.058072 -1.185897,0.8696575 0.05007,0.7314391 -0.07868,0.8855622 -0.81012,0.9697233 -0.760435,0.087498 -0.869659,0.2364376 -0.869659,1.1858974 0,1.0003094 0.0762,1.0858325 0.967382,1.0858325 0.532057,0 0.887365,0.1294657 0.789572,0.2877015 -0.403668,0.653149 0.230566,1.2934954 1.281155,1.2934954 0.933709,0 1.073002,-0.1026323 1.073002,-0.7905989 z"
     id="path4138"
     inkscape:connector-curvature="0" />
</svg>
