<?xml version="1.0" encoding="UTF-8" standalone="no"?>
<!-- Generator: Adobe Illustrator 18.1.1, SVG Export Plug-In . SVG Version: 6.00 Build 0)  -->

<svg
   xmlns:dc="http://purl.org/dc/elements/1.1/"
   xmlns:cc="http://creativecommons.org/ns#"
   xmlns:rdf="http://www.w3.org/1999/02/22-rdf-syntax-ns#"
   xmlns:svg="http://www.w3.org/2000/svg"
   xmlns="http://www.w3.org/2000/svg"
   xmlns:sodipodi="http://sodipodi.sourceforge.net/DTD/sodipodi-0.dtd"
   xmlns:inkscape="http://www.inkscape.org/namespaces/inkscape"
   version="1.1"
   id="Capa_1"
   x="0px"
   y="0px"
   viewBox="0 0 46.50625 46.50625"
   xml:space="preserve"
   width="40"
   height="40"
   inkscape:version="0.91 r13725"
   sodipodi:docname="social-media.svg"><metadata
     id="metadata49"><rdf:RDF><cc:Work
         rdf:about=""><dc:format>image/svg+xml</dc:format><dc:type
           rdf:resource="http://purl.org/dc/dcmitype/StillImage" /><dc:title></dc:title></cc:Work></rdf:RDF></metadata><defs
     id="defs47" /><sodipodi:namedview
     pagecolor="#ffffff"
     bordercolor="#666666"
     borderopacity="1"
     objecttolerance="10"
     gridtolerance="10"
     guidetolerance="10"
     inkscape:pageopacity="0"
     inkscape:pageshadow="2"
     inkscape:window-width="1872"
     inkscape:window-height="1059"
     id="namedview45"
     showgrid="false"
     inkscape:zoom="14.75"
     inkscape:cx="26.591664"
     inkscape:cy="14.546895"
     inkscape:window-x="48"
     inkscape:window-y="21"
     inkscape:window-maximized="1"
     inkscape:current-layer="Capa_1"
     fit-margin-top="0"
     fit-margin-left="0"
     fit-margin-right="0"
     fit-margin-bottom="0" /><g
     id="g3"
     style="fill:#cccccc;fill-opacity:1;stroke:#000000;stroke-width:10.50663185;stroke-miterlimit:4;stroke-dasharray:none;stroke-opacity:1"
     transform="matrix(0.07293151,0,0,0.07293151,1.6773098,1.62275)"><circle
       cx="101.151"
       cy="63.015999"
       r="63.015999"
       id="circle5"
       style="fill:#cccccc;fill-opacity:1;stroke:#000000;stroke-width:10.50663185;stroke-miterlimit:4;stroke-dasharray:none;stroke-opacity:1" /><circle
       cx="494.36099"
       cy="63.015999"
       r="63.015999"
       id="circle7"
       style="fill:#cccccc;fill-opacity:1;stroke:#000000;stroke-width:10.50663185;stroke-miterlimit:4;stroke-dasharray:none;stroke-opacity:1" /><circle
       cx="494.36099"
       cy="398.79099"
       r="62.783001"
       id="circle9"
       style="fill:#cccccc;fill-opacity:1;stroke:#000000;stroke-width:10.50663185;stroke-miterlimit:4;stroke-dasharray:none;stroke-opacity:1" /><circle
       cx="101.151"
       cy="398.79099"
       r="63.015999"
       id="circle11"
       style="fill:#cccccc;fill-opacity:1;stroke:#000000;stroke-width:10.50663185;stroke-miterlimit:4;stroke-dasharray:none;stroke-opacity:1" /><path
       d="m 579.7,214.161 c 0,-45.344 -38.135,-81.851 -85.106,-81.851 -47.204,0 -85.339,36.74 -85.339,81.851 l 0,29.764 -49.529,52.785 -122.544,0 -50.924,-54.18 0,-28.369 c 0,-45.344 -38.135,-81.851 -85.339,-81.851 -47.204,0 -85.339,36.74 -85.339,81.851 l 0,45.576 152.54,0 41.856,44.646 0,98.826 -49.064,88.362 c -15.347,-14.649 -36.507,-23.718 -59.761,-23.718 -47.204,0 -85.339,36.74 -85.339,81.851 l 0,45.576 170.445,0 0,-45.576 c 0,-13.254 -3.488,-25.346 -9.301,-36.507 l 59.063,-105.337 124.637,0 58.365,104.174 c -6.046,11.394 -9.999,23.951 -9.999,37.67 l 0,45.576 170.445,0 0,-45.576 c 0,-45.344 -38.135,-81.851 -85.106,-81.851 -22.788,0 -43.483,8.836 -58.83,22.788 l -54.18,-96.966 0,-83.711 46.971,-50.227 151.378,0 0,-45.576 0,0 z"
       id="path13"
       style="fill:#cccccc;fill-opacity:1;stroke:#000000;stroke-width:10.50663185;stroke-miterlimit:4;stroke-dasharray:none;stroke-opacity:1"
       inkscape:connector-curvature="0" /></g><g
     id="g15"
     transform="translate(-275.43772,-274.54638)" /><g
     id="g17"
     transform="translate(-275.43772,-274.54638)" /><g
     id="g19"
     transform="translate(-275.43772,-274.54638)" /><g
     id="g21"
     transform="translate(-275.43772,-274.54638)" /><g
     id="g23"
     transform="translate(-275.43772,-274.54638)" /><g
     id="g25"
     transform="translate(-275.43772,-274.54638)" /><g
     id="g27"
     transform="translate(-275.43772,-274.54638)" /><g
     id="g29"
     transform="translate(-275.43772,-274.54638)" /><g
     id="g31"
     transform="translate(-275.43772,-274.54638)" /><g
     id="g33"
     transform="translate(-275.43772,-274.54638)" /><g
     id="g35"
     transform="translate(-275.43772,-274.54638)" /><g
     id="g37"
     transform="translate(-275.43772,-274.54638)" /><g
     id="g39"
     transform="translate(-275.43772,-274.54638)" /><g
     id="g41"
     transform="translate(-275.43772,-274.54638)" /><g
     id="g43"
     transform="translate(-275.43772,-274.54638)" /></svg>