<?xml version="1.0" encoding="UTF-8" standalone="no"?>
<!-- Created with Inkscape (http://www.inkscape.org/) -->

<svg
   xmlns:dc="http://purl.org/dc/elements/1.1/"
   xmlns:cc="http://creativecommons.org/ns#"
   xmlns:rdf="http://www.w3.org/1999/02/22-rdf-syntax-ns#"
   xmlns:svg="http://www.w3.org/2000/svg"
   xmlns="http://www.w3.org/2000/svg"
   xmlns:sodipodi="http://sodipodi.sourceforge.net/DTD/sodipodi-0.dtd"
   xmlns:inkscape="http://www.inkscape.org/namespaces/inkscape"
   id="svg2"
   version="1.1"
   inkscape:version="0.91 r13725"
   width="38"
   height="38"
   viewBox="0 0 38 38"
   sodipodi:docname="application.svg">
  <metadata
     id="metadata8">
    <rdf:RDF>
      <cc:Work
         rdf:about="">
        <dc:format>image/svg+xml</dc:format>
        <dc:type
           rdf:resource="http://purl.org/dc/dcmitype/StillImage" />
        <dc:title></dc:title>
      </cc:Work>
    </rdf:RDF>
  </metadata>
  <defs
     id="defs6" />
  <sodipodi:namedview
     pagecolor="#ffffff"
     bordercolor="#666666"
     borderopacity="1"
     objecttolerance="10"
     gridtolerance="10"
     guidetolerance="10"
     inkscape:pageopacity="0"
     inkscape:pageshadow="2"
     inkscape:window-width="1872"
     inkscape:window-height="1059"
     id="namedview4"
     showgrid="false"
     inkscape:zoom="13.088408"
     inkscape:cx="31.168764"
     inkscape:cy="29.093693"
     inkscape:window-x="48"
     inkscape:window-y="21"
     inkscape:window-maximized="1"
     inkscape:current-layer="svg2" />
  <g
     id="g4142"
     style="stroke:#000000;stroke-opacity:1;stroke-width:0.5;stroke-miterlimit:4;stroke-dasharray:none">
    <path
       inkscape:connector-curvature="0"
       id="path4138"
       d="M 4.6246666,37.43423 C 2.8508606,36.990192 1.9314386,36.355534 1.2463536,35.102252 0.66189856,34.033058 0.60271356,32.563132 0.60271356,19.116686 c 0,-16.4726291 -0.0011,-16.4656501 2.47420704,-17.8183731 1.075075,-0.58754501 2.522989,-0.64604501 15.9902124,-0.64604501 16.472632,0 16.465652,-9.51e-4 17.818373,2.47420501 0.587545,1.075075 0.646046,2.522992 0.646046,15.9902131 0,13.467224 -0.0585,14.915141 -0.646046,15.990216 -1.340023,2.451943 -1.442012,2.467091 -17.087108,2.53806 -7.74226,0.0351 -14.5704384,-0.05971 -15.1737314,-0.210732 z M 33.471867,35.061013 c 1.886866,-0.788384 2.048965,-1.74421 2.046669,-12.068343 -0.0022,-9.50733 -0.254333,-11.640007 -1.452448,-12.281219 -0.919093,-0.491882 -29.0577314,-0.503166 -29.9754494,-0.01202 -1.268769,0.679025 -1.476949,2.380832 -1.476949,12.073576 0,10.445161 0.16739,11.488648 1.968691,12.272669 1.684266,0.733082 27.1393374,0.746596 28.8894864,0.01534 z M 7.2007126,7.2502649 c 0.992815,-0.992816 1.1066,-1.678336 0.477091,-2.874306 -0.569644,-1.08223 -1.020285,-1.334903 -2.392546,-1.341484 -1.338126,-0.0064 -2.309281,1.067514 -2.300338,2.543773 0.0067,1.098869 0.291259,1.575225 1.274115,2.132567 1.137075,0.6447951 1.966128,0.514999 2.941678,-0.46055 z m 6.2157454,0 c 1.108845,-1.108847 1.14399,-2.266495 0.102461,-3.375151 -1.543582,-1.643068 -4.3286164,-0.701645 -4.3182544,1.459695 0.0064,1.340669 0.250294,1.795434 1.2741154,2.376006 1.137075,0.6447951 1.966128,0.514999 2.941678,-0.46055 z m 6.215745,0 c 1.10079,-1.10079 1.134619,-1.993111 0.124264,-3.277571 -1.682814,-2.139349 -5.401223,-0.201496 -4.373632,2.279323 0.801359,1.93465 2.835184,2.4124301 4.249368,0.998248 z"
       style="fill:#cccccc;fill-opacity:0.94117647;stroke:#000000;stroke-opacity:1;stroke-width:0.5;stroke-miterlimit:4;stroke-dasharray:none" />
    <path
       inkscape:connector-curvature="0"
       id="path4140"
       d="M 11.057199,34.75674 C 8.8979145,34.693744 6.9530883,34.57976 6.0852417,34.465339 5.0410512,34.327669 4.4275728,33.873495 4.0996294,32.99534 3.6715087,31.848934 3.5833903,30.12164 3.5825445,22.859456 3.5816892,15.516925 3.6749168,13.620085 4.0994978,12.34129 4.2954766,11.751022 4.7311084,11.284459 5.149829,11.216382 c 0.8796611,-0.143018 3.8051909,-0.203205 11.568868,-0.238007 8.437935,-0.03782 13.977928,0.02986 15.84087,0.193535 0.937667,0.08238 1.121873,0.189391 1.436313,0.834369 0.611014,1.25332 0.753388,3.748296 0.702751,12.31515 -0.03421,5.787878 -0.07018,6.712824 -0.307881,7.917783 -0.208955,1.059228 -0.573061,1.611834 -1.294902,1.965285 -0.639923,0.31334 -1.943089,0.433192 -6.07032,0.558288 -2.696366,0.08173 -13.094723,0.07779 -15.968329,-0.0061 l 0,1e-6 z"
       style="fill:#cccccc;fill-opacity:1;stroke:#000000;stroke-width:0.5;stroke-miterlimit:4;stroke-dasharray:none;stroke-opacity:1" />
  </g>
</svg>
