<?xml version="1.0" encoding="UTF-8" standalone="no"?>
<!-- Created with Inkscape (http://www.inkscape.org/) -->

<svg
   xmlns:dc="http://purl.org/dc/elements/1.1/"
   xmlns:cc="http://creativecommons.org/ns#"
   xmlns:rdf="http://www.w3.org/1999/02/22-rdf-syntax-ns#"
   xmlns:svg="http://www.w3.org/2000/svg"
   xmlns="http://www.w3.org/2000/svg"
   xmlns:sodipodi="http://sodipodi.sourceforge.net/DTD/sodipodi-0.dtd"
   xmlns:inkscape="http://www.inkscape.org/namespaces/inkscape"
   id="svg2"
   version="1.1"
   inkscape:version="0.91 r13725"
   width="38"
   height="38"
   viewBox="0 0 38 38"
   sodipodi:docname="enterprise.svg">
  <metadata
     id="metadata8">
    <rdf:RDF>
      <cc:Work
         rdf:about="">
        <dc:format>image/svg+xml</dc:format>
        <dc:type
           rdf:resource="http://purl.org/dc/dcmitype/StillImage" />
        <dc:title></dc:title>
      </cc:Work>
    </rdf:RDF>
  </metadata>
  <defs
     id="defs6" />
  <sodipodi:namedview
     pagecolor="#ffffff"
     bordercolor="#666666"
     borderopacity="1"
     objecttolerance="10"
     gridtolerance="10"
     guidetolerance="10"
     inkscape:pageopacity="0"
     inkscape:pageshadow="2"
     inkscape:window-width="1872"
     inkscape:window-height="1059"
     id="namedview4"
     showgrid="false"
     inkscape:zoom="16.4457"
     inkscape:cx="8.0036535"
     inkscape:cy="23.03744"
     inkscape:window-x="48"
     inkscape:window-y="21"
     inkscape:window-maximized="1"
     inkscape:current-layer="svg2" />
  <path
     style="fill:#cccccc;fill-opacity:1;stroke:#000000;stroke-opacity:1;stroke-width:0.5;stroke-miterlimit:4;stroke-dasharray:none"
     d="m 0.58776818,21.525529 0,-14.160494 5.48148302,0 5.4814808,0 0,14.160494 0,14.160493 -5.4814808,0 -5.48148302,0 0,-14.160493 z m 4.56790302,6.623456 c 0,-0.91358 -0.228395,-1.141975 -1.141977,-1.141975 -0.91358,0 -1.141975,0.228395 -1.141975,1.141975 0,0.91358 0.228395,1.141975 1.141975,1.141975 0.913582,0 1.141977,-0.228395 1.141977,-1.141975 z m 4.111111,0 c 0,-0.91358 -0.228395,-1.141975 -1.141975,-1.141975 -0.913581,0 -1.141976,0.228395 -1.141976,1.141975 0,0.91358 0.228395,1.141975 1.141976,1.141975 0.91358,0 1.141975,-0.228395 1.141975,-1.141975 z m -4.111111,-4.567901 c 0,-0.91358 -0.228395,-1.141975 -1.141977,-1.141975 -0.91358,0 -1.141975,0.228395 -1.141975,1.141975 0,0.91358 0.228395,1.141975 1.141975,1.141975 0.913582,0 1.141977,-0.228395 1.141977,-1.141975 z m 4.111111,0 c 0,-0.91358 -0.228395,-1.141975 -1.141975,-1.141975 -0.913581,0 -1.141976,0.228395 -1.141976,1.141975 0,0.91358 0.228395,1.141975 1.141976,1.141975 0.91358,0 1.141975,-0.228395 1.141975,-1.141975 z m -4.339506,-4.339506 c 0,-0.836494 -0.274933,-1.181022 -1.02778,-1.287943 -0.878569,-0.124777 -1.027777,0.0622 -1.027777,1.287943 0,1.225742 0.149208,1.41272 1.027777,1.287943 0.752847,-0.106921 1.02778,-0.451449 1.02778,-1.287943 z m 4.339506,0 c 0,-1.072901 -0.201426,-1.37037 -0.927919,-1.37037 -0.510353,0 -1.046237,0.308333 -1.190847,0.685185 -0.40795,1.063102 0.167007,2.055555 1.190847,2.055555 0.726493,0 0.927919,-0.297469 0.927919,-1.37037 z m -4.111111,-4.339506 c 0,-0.91358 -0.228395,-1.141975 -1.141977,-1.141975 -0.91358,0 -1.141975,0.228395 -1.141975,1.141975 0,0.91358 0.228395,1.141975 1.141975,1.141975 0.913582,0 1.141977,-0.228395 1.141977,-1.141975 z m 4.111111,0 c 0,-0.91358 -0.228395,-1.141975 -1.141975,-1.141975 -0.913581,0 -1.141976,0.228395 -1.141976,1.141975 0,0.91358 0.228395,1.141975 1.141976,1.141975 0.91358,0 1.141975,-0.228395 1.141975,-1.141975 z m -4.111111,-4.567901 c 0,-0.91358 -0.228395,-1.141975 -1.141977,-1.141975 -0.91358,0 -1.141975,0.228395 -1.141975,1.141975 0,0.91358 0.228395,1.141975 1.141975,1.141975 0.913582,0 1.141977,-0.228395 1.141977,-1.141975 z m 4.111111,0 c 0,-0.91358 -0.228395,-1.141975 -1.141975,-1.141975 -0.913581,0 -1.141976,0.228395 -1.141976,1.141975 0,0.91358 0.228395,1.141975 1.141976,1.141975 0.91358,0 1.141975,-0.228395 1.141975,-1.141975 z m 4.5679008,13.246913 0,-12.104938 5.253086,0 5.253086,0 0,12.104938 0,12.104938 -5.253086,0 -5.253086,0 0,-12.104938 z m 4.111111,4.567901 c 0,-0.91358 -0.228395,-1.141975 -1.141976,-1.141975 -0.91358,0 -1.141975,0.228395 -1.141975,1.141975 0,0.91358 0.228395,1.141975 1.141975,1.141975 0.913581,0 1.141976,-0.228395 1.141976,-1.141975 z m 4.567901,0 c 0,-0.91358 -0.228395,-1.141975 -1.141976,-1.141975 -0.91358,0 -1.141975,0.228395 -1.141975,1.141975 0,0.91358 0.228395,1.141975 1.141975,1.141975 0.913581,0 1.141976,-0.228395 1.141976,-1.141975 z m -4.567901,-4.567901 c 0,-0.91358 -0.228395,-1.141975 -1.141976,-1.141975 -0.91358,0 -1.141975,0.228395 -1.141975,1.141975 0,0.91358 0.228395,1.141975 1.141975,1.141975 0.913581,0 1.141976,-0.228395 1.141976,-1.141975 z m 4.567901,0 c 0,-0.91358 -0.228395,-1.141975 -1.141976,-1.141975 -0.91358,0 -1.141975,0.228395 -1.141975,1.141975 0,0.91358 0.228395,1.141975 1.141975,1.141975 0.913581,0 1.141976,-0.228395 1.141976,-1.141975 z m -4.567901,-4.339506 c 0,-1.072901 -0.201426,-1.37037 -0.927919,-1.37037 -1.02384,0 -1.598797,0.992453 -1.190847,2.055555 0.14461,0.376852 0.680494,0.685185 1.190847,0.685185 0.726493,0 0.927919,-0.297469 0.927919,-1.37037 z m 4.339506,0 c 0,-0.836494 -0.274933,-1.181022 -1.027778,-1.287943 -0.878572,-0.124777 -1.027778,0.0622 -1.027778,1.287943 0,1.225742 0.149206,1.41272 1.027778,1.287943 C 22.010367,20.4226 22.2853,20.078072 22.2853,19.241578 Z m -4.339506,-4.339506 c 0,-0.91358 -0.228395,-1.141975 -1.141976,-1.141975 -0.91358,0 -1.141975,0.228395 -1.141975,1.141975 0,0.91358 0.228395,1.141975 1.141975,1.141975 0.913581,0 1.141976,-0.228395 1.141976,-1.141975 z m 4.567901,0 c 0,-0.91358 -0.228395,-1.141975 -1.141976,-1.141975 -0.91358,0 -1.141975,0.228395 -1.141975,1.141975 0,0.91358 0.228395,1.141975 1.141975,1.141975 0.913581,0 1.141976,-0.228395 1.141976,-1.141975 z m 4.111111,4.339506 0,-16.444443 5.481481,0 5.481481,0 0,16.444443 0,16.444444 -5.481481,0 -5.481481,0 0,-16.444444 z m 4.567901,8.907407 c 0,-0.91358 -0.228395,-1.141975 -1.141976,-1.141975 -0.91358,0 -1.141975,0.228395 -1.141975,1.141975 0,0.91358 0.228395,1.141975 1.141975,1.141975 0.913581,0 1.141976,-0.228395 1.141976,-1.141975 z m 4.485473,-0.114197 c 0.124174,-0.874326 -0.06338,-1.027778 -1.256173,-1.027778 -1.055126,0 -1.40214,0.20726 -1.40214,0.837448 0,1.121052 0.457329,1.512274 1.579964,1.351574 0.565821,-0.081 0.989768,-0.537533 1.078349,-1.161244 z m -4.485473,-4.453704 c 0,-0.91358 -0.228395,-1.141975 -1.141976,-1.141975 -0.91358,0 -1.141975,0.228395 -1.141975,1.141975 0,0.91358 0.228395,1.141975 1.141975,1.141975 0.913581,0 1.141976,-0.228395 1.141976,-1.141975 z m 4.485473,0.114198 c -0.104514,-0.735892 -0.50272,-1.068827 -1.40214,-1.172317 -1.081611,-0.124453 -1.256173,0.01837 -1.256173,1.027778 0,1.00395 0.201371,1.172316 1.40214,1.172316 1.192793,0 1.380347,-0.153451 1.256173,-1.027777 z m -4.485473,-4.453704 c 0,-1.157201 -0.177641,-1.37037 -1.141976,-1.37037 -0.964338,0 -1.141975,0.213169 -1.141975,1.37037 0,1.157202 0.177637,1.37037 1.141975,1.37037 0.964335,0 1.141976,-0.213168 1.141976,-1.37037 z m 4.339506,0 c 0,-0.837172 -0.274869,-1.181007 -1.029825,-1.288211 -0.617703,-0.08772 -1.139956,0.140783 -1.30504,0.570988 -0.454812,1.18522 0.182662,2.164813 1.30504,2.005434 0.754956,-0.107204 1.029825,-0.451039 1.029825,-1.288211 z m -4.339506,-4.339506 c 0,-0.91358 -0.228395,-1.141975 -1.141976,-1.141975 -0.91358,0 -1.141975,0.228395 -1.141975,1.141975 0,0.91358 0.228395,1.141975 1.141975,1.141975 0.913581,0 1.141976,-0.228395 1.141976,-1.141975 z m 4.485473,-0.114197 c 0.124174,-0.874326 -0.06338,-1.027778 -1.256173,-1.027778 -1.200769,0 -1.40214,0.168366 -1.40214,1.172316 0,1.009404 0.174562,1.152231 1.256173,1.027778 0.89942,-0.10349 1.297626,-0.436425 1.40214,-1.172316 z m -4.485473,-4.453704 c 0,-0.91358 -0.228395,-1.141975 -1.141976,-1.141975 -0.91358,0 -1.141975,0.228395 -1.141975,1.141975 0,0.91358 0.228395,1.141975 1.141975,1.141975 0.913581,0 1.141976,-0.228395 1.141976,-1.141975 z m 4.485473,0.114198 C 35.571259,9.695524 35.22673,9.420591 34.390237,9.420591 c -0.836496,0 -1.181026,0.274933 -1.287947,1.027778 -0.124776,0.878569 0.06221,1.027777 1.287947,1.027777 1.225742,0 1.41272,-0.149208 1.287943,-1.027777 z M 31.192707,6.22306 c 0,-0.91358 -0.228395,-1.141975 -1.141976,-1.141975 -0.91358,0 -1.141975,0.228395 -1.141975,1.141975 0,0.913581 0.228395,1.141975 1.141975,1.141975 0.913581,0 1.141976,-0.228394 1.141976,-1.141975 z M 35.67818,6.108863 C 35.802354,5.234537 35.6148,5.081085 34.422007,5.081085 c -1.055126,0 -1.40214,0.20726 -1.40214,0.837448 0,1.121052 0.457329,1.512274 1.579964,1.351573 0.565821,-0.08099 0.989768,-0.537532 1.078349,-1.161243 z"
     id="path4138"
     inkscape:connector-curvature="0" />
</svg>
