<?xml version="1.0" encoding="UTF-8" standalone="no"?>
<!-- Generator: Adobe Illustrator 18.0.0, SVG Export Plug-In . SVG Version: 6.00 Build 0)  -->

<svg
   xmlns:dc="http://purl.org/dc/elements/1.1/"
   xmlns:cc="http://creativecommons.org/ns#"
   xmlns:rdf="http://www.w3.org/1999/02/22-rdf-syntax-ns#"
   xmlns:svg="http://www.w3.org/2000/svg"
   xmlns="http://www.w3.org/2000/svg"
   xmlns:sodipodi="http://sodipodi.sourceforge.net/DTD/sodipodi-0.dtd"
   xmlns:inkscape="http://www.inkscape.org/namespaces/inkscape"
   version="1.1"
   id="Capa_1"
   x="0px"
   y="0px"
   viewBox="0 0 31.999999 31.999999"
   xml:space="preserve"
   inkscape:version="0.91 r13725"
   sodipodi:docname="meeting.svg"
   width="32"
   height="32"><metadata
     id="metadata5774"><rdf:RDF><cc:Work
         rdf:about=""><dc:format>image/svg+xml</dc:format><dc:type
           rdf:resource="http://purl.org/dc/dcmitype/StillImage" /><dc:title></dc:title></cc:Work></rdf:RDF></metadata><defs
     id="defs5772" /><sodipodi:namedview
     pagecolor="#ffffff"
     bordercolor="#666666"
     borderopacity="1"
     objecttolerance="10"
     gridtolerance="10"
     guidetolerance="10"
     inkscape:pageopacity="0"
     inkscape:pageshadow="2"
     inkscape:window-width="1872"
     inkscape:window-height="1059"
     id="namedview5770"
     showgrid="false"
     inkscape:zoom="16.391983"
     inkscape:cx="1.6209882"
     inkscape:cy="11.416167"
     inkscape:window-x="48"
     inkscape:window-y="21"
     inkscape:window-maximized="1"
     inkscape:current-layer="Capa_1" /><g
     id="XMLID_241_"
     transform="matrix(0.06728686,0,0,0.06728686,1.1766081,0.49400149)"
     style="fill:#cccccc;fill-opacity:1;stroke:#000000;stroke-opacity:1;stroke-width:5.94469637;stroke-miterlimit:4;stroke-dasharray:none"><path
       id="XMLID_244_"
       d="m 344.09,407.04 0.085,30.218 c 0.037,12.968 10.56,23.455 23.52,23.455 0.022,0 0.046,0 0.068,0 12.991,-0.037 23.492,-10.598 23.455,-23.588 l -0.085,-30.085 -47.043,0 z"
       inkscape:connector-curvature="0"
       style="fill:#cccccc;fill-opacity:1;stroke:#000000;stroke-opacity:1;stroke-width:5.94469637;stroke-miterlimit:4;stroke-dasharray:none" /><path
       id="XMLID_1025_"
       d="m 286.488,401.022 -0.003,36.167 c -0.001,12.991 10.529,23.522 23.52,23.523 10e-4,0 10e-4,0 0.002,0 12.989,0 23.521,-10.53 23.521,-23.52 l 0.002,-30.154 -29.941,0 c -6.465,0.002 -12.411,-2.255 -17.101,-6.016 z"
       inkscape:connector-curvature="0"
       style="fill:#cccccc;fill-opacity:1;stroke:#000000;stroke-opacity:1;stroke-width:5.94469637;stroke-miterlimit:4;stroke-dasharray:none" /><circle
       id="XMLID_1026_"
       cx="91.124001"
       cy="40.624001"
       r="40.624001"
       style="fill:#cccccc;fill-opacity:1;stroke:#000000;stroke-opacity:1;stroke-width:5.94469637;stroke-miterlimit:4;stroke-dasharray:none" /><path
       id="XMLID_1027_"
       d="m 192.368,165.43 -61.55,-7.221 -40.252,-39.995 38.18,20.017 14.077,1.651 0,-17.387 c 0,-15.156 -12.286,-27.443 -27.443,-27.443 l -48.939,0 c -15.156,0 -27.443,12.287 -27.443,27.443 l -0.483,314.63 c -0.037,12.99 10.464,23.551 23.455,23.588 0.023,0 0.045,0 0.068,0 12.959,0 23.483,-10.487 23.52,-23.455 L 86.05,263.361 c 0,-0.022 -10e-4,-0.044 -10e-4,-0.066 l 10.144,0 0.013,173.899 c 10e-4,12.99 10.533,23.521 23.523,23.52 12.99,-10e-4 23.521,-10.533 23.52,-23.523 -0.016,-209.227 -0.427,-218.365 -0.427,-218.365 l -25.583,-3.001 c -7.824,-0.918 -17.436,-0.732 -23.064,-11.127 l -31.242,-58.674 45.057,44.77 c 3.113,3.093 7.174,5.052 11.532,5.563 l 68.277,8.01 c 10.763,1.261 20.491,-6.442 21.751,-17.184 1.263,-10.753 -6.43,-20.492 -17.182,-21.753 z"
       inkscape:connector-curvature="0"
       style="fill:#cccccc;fill-opacity:1;stroke:#000000;stroke-opacity:1;stroke-width:5.94469637;stroke-miterlimit:4;stroke-dasharray:none" /><circle
       id="XMLID_1028_"
       cx="338.60999"
       cy="40.624001"
       r="40.624001"
       style="fill:#cccccc;fill-opacity:1;stroke:#000000;stroke-opacity:1;stroke-width:5.94469637;stroke-miterlimit:4;stroke-dasharray:none" /><path
       id="XMLID_1031_"
       d="m 411.805,301.04 -20.546,0 c 0,-12.415 0,-14.571 0,-29.04 0,-5.523 -4.477,-10 -10,-10 l -3.113,0 c 1.118,-6.961 8.603,-53.567 9.796,-60.998 0.521,-3.24 0.219,-6.558 -0.876,-9.651 l -23.209,-65.535 1.393,2.07 25.486,37.881 0,-43.272 c 0,-15.156 -12.287,-27.443 -27.443,-27.443 l -48.939,0 c -15.156,0 -27.443,12.287 -27.443,27.443 l 0,6.973 -62.828,35.914 c 4.049,7.041 5.955,15.396 4.936,24.083 -1.298,11.068 -7.095,20.507 -15.342,26.726 0.96,-0.363 1.906,-0.796 2.826,-1.321 l 70.407,-40.247 -0.415,115.427 c 8.253,-6.611 16.414,-6.01 20.638,-6.01 l 0,-12.04 c 0,-10.578 6.193,-20.022 15.503,-24.423 l 8.934,-55.628 -3.581,-40.807 -1.086,-12.237 21.539,60.819 c -1.038,6.461 -8.841,55.048 -10.001,62.276 l -4.307,0 c -5.523,0 -10,4.477 -10,10 0,14.346 0,16.709 0,29.04 l -20.545,0 c -5.74,0 -10.392,4.653 -10.392,10.392 l 0,68.215 c 0,5.74 4.653,10.392 10.392,10.392 l 108.215,0 c 5.74,0 10.392,-4.653 10.392,-10.392 l 0,-68.215 c 10e-4,-5.739 -4.652,-10.392 -10.391,-10.392 z m -57.664,-13.182 c 1.053,0.169 2.099,0.251 3.132,0.251 4.406,0 8.556,-1.504 11.899,-4.07 l 2.086,0 0,17 -27.124,0 0,-17 1.155,0 c 2.504,1.931 5.511,3.283 8.852,3.819 z"
       inkscape:connector-curvature="0"
       style="fill:#cccccc;fill-opacity:1;stroke:#000000;stroke-opacity:1;stroke-width:5.94469637;stroke-miterlimit:4;stroke-dasharray:none" /></g><g
     id="g5740"
     transform="translate(0,-428.71301)" /><g
     id="g5742"
     transform="translate(0,-428.71301)" /><g
     id="g5744"
     transform="translate(0,-428.71301)" /><g
     id="g5746"
     transform="translate(0,-428.71301)" /><g
     id="g5748"
     transform="translate(0,-428.71301)" /><g
     id="g5750"
     transform="translate(0,-428.71301)" /><g
     id="g5752"
     transform="translate(0,-428.71301)" /><g
     id="g5754"
     transform="translate(0,-428.71301)" /><g
     id="g5756"
     transform="translate(0,-428.71301)" /><g
     id="g5758"
     transform="translate(0,-428.71301)" /><g
     id="g5760"
     transform="translate(0,-428.71301)" /><g
     id="g5762"
     transform="translate(0,-428.71301)" /><g
     id="g5764"
     transform="translate(0,-428.71301)" /><g
     id="g5766"
     transform="translate(0,-428.71301)" /><g
     id="g5768"
     transform="translate(0,-428.71301)" /></svg>