<?xml version="1.0" encoding="UTF-8" standalone="no"?>
<!-- Created with Inkscape (http://www.inkscape.org/) -->

<svg
   xmlns:dc="http://purl.org/dc/elements/1.1/"
   xmlns:cc="http://creativecommons.org/ns#"
   xmlns:rdf="http://www.w3.org/1999/02/22-rdf-syntax-ns#"
   xmlns:svg="http://www.w3.org/2000/svg"
   xmlns="http://www.w3.org/2000/svg"
   xmlns:sodipodi="http://sodipodi.sourceforge.net/DTD/sodipodi-0.dtd"
   xmlns:inkscape="http://www.inkscape.org/namespaces/inkscape"
   id="svg2"
   version="1.1"
   inkscape:version="0.91 r13725"
   width="381.31345"
   height="91.028931"
   viewBox="0 0 381.31345 91.028931"
   sodipodi:docname="izmus-logo.svg">
  <metadata
     id="metadata8">
    <rdf:RDF>
      <cc:Work
         rdf:about="">
        <dc:format>image/svg+xml</dc:format>
        <dc:type
           rdf:resource="http://purl.org/dc/dcmitype/StillImage" />
        <dc:title />
      </cc:Work>
    </rdf:RDF>
  </metadata>
  <defs
     id="defs6" />
  <sodipodi:namedview
     pagecolor="#ffffff"
     bordercolor="#666666"
     borderopacity="1"
     objecttolerance="10"
     gridtolerance="10"
     guidetolerance="10"
     inkscape:pageopacity="0"
     inkscape:pageshadow="2"
     inkscape:window-width="1872"
     inkscape:window-height="1059"
     id="namedview4"
     showgrid="false"
     fit-margin-top="0"
     fit-margin-left="0"
     fit-margin-right="0"
     fit-margin-bottom="0"
     inkscape:zoom="1.41"
     inkscape:cx="90.995686"
     inkscape:cy="92.637853"
     inkscape:window-x="48"
     inkscape:window-y="21"
     inkscape:window-maximized="1"
     inkscape:current-layer="svg2" />
  <path
     style="fill:#ffffff;fill-opacity:1;stroke:none;stroke-opacity:1"
     d="M 249.08983,88.888464 C 240.67552,86.195985 234.75819,82.030355 233.10452,77.635268 232.42983,75.842119 231.54098,58.504592 231.12928,39.107432 230.71759,19.71027 230.04922,2.9758996 229.644,1.9199296 229.00844,0.26369 230.83249,0 242.92473,0 c 12.92472,0 13.93396,0.17052 12.94624,2.1874996 -1.8314,3.73977 -1.95376,75.4463704 -0.13471,78.9419974 2.31734,4.453209 7.69999,7.958797 13.72556,8.939128 4.53915,0.738499 3.93503,0.881809 -4.03709,0.957691 -5.78753,0.05509 -12.0383,-0.76299 -16.3349,-2.137852 z M 0.30419737,88.270235 C 1.3384296,87.024061 1.6433156,74.618013 1.3947536,43.894664 L 1.0497346,1.24885 l 13.1250004,8.7e-4 13.125,8.6e-4 0,44.37496 0,44.374955 -14.215556,-2.5e-4 C 1.1203646,90.000036 -0.90398243,89.726002 0.30419737,88.270235 Z M 39.383069,88.995936 C 39.963971,87.59611 70.200513,28.202688 77.689954,13.75 L 83.843625,1.8749996 98.501905,1.52181 C 107.34679,1.30869 112.98956,1.63786 112.72996,2.3517896 112.49333,3.0025296 102.45598,22.97725 90.424735,46.740061 l -21.875,43.205109 -14.791666,0.02741 c -8.135418,0.01507 -14.604168,-0.424416 -14.375,-0.976648 z m 54.277096,-3.520065 c 6.477655,-4.944504 10.555615,-9.386877 15.821715,-17.235548 l 3.43215,-5.115327 0.005,13.4375 0.005,13.4375 -12.59574,0 -12.595746,0 5.926921,-4.524125 z m 31.764565,3.929338 c 0,-0.327134 1.03462,-2.296084 2.29915,-4.375444 l 2.29916,-3.780657 1.72324,3.437944 c 0.94777,1.890869 1.92877,3.859819 2.18001,4.375444 0.25123,0.515625 -1.55885,0.9375 -4.0224,0.9375 -2.46354,0 -4.47916,-0.267655 -4.47916,-0.594787 z M 150.64799,73.437496 C 147.78855,64.328121 141.79429,45.128553 137.3274,30.771791 132.86052,16.41503 128.56743,3.8993996 127.7872,2.9592896 126.60149,1.5306 128.70354,1.25 140.59192,1.25 l 14.2233,0 9.23636,32.812496 c 10.07924,35.806843 9.89638,33.95652 5.06516,51.25 -1.27976,4.580978 -1.44542,4.6875 -7.28963,4.6875 l -5.98013,0 -5.19899,-16.5625 z M 191.36797,48.43835 C 191.54299,25.578505 191.97558,5.6093696 192.32928,4.0624996 192.94032,1.39015 193.5597,1.25 204.75852,1.25 l 11.78616,0 -1.2525,3.5929296 c -1.50892,4.3285 -0.96849,79.7294454 0.59467,82.9695664 0.96993,2.010431 0.007,2.187569 -11.89088,2.188354 l -12.94624,8.54e-4 0.31824,-41.563354 z m 168.24637,39.999146 c 4.64264,-11.195555 3.94791,-18.23714 -2.3889,-24.213522 -3.13505,-2.956739 -8.38834,-5.369639 -20.20609,-9.280909 C 322.97023,50.293288 320.4187,49.007351 315.80254,44.250046 302.81487,30.86527 308.93814,11.05831 328.54973,3.0166796 l 5,-2.0502296 -2.29344,2.5447496 c -3.37211,3.74165 -4.04265,11.4874604 -1.46472,16.9200404 2.84237,5.989848 8.13664,9.065766 22.15361,12.871015 14.02429,3.807236 21.27514,7.802087 25.32781,13.954336 8.64821,13.128634 2.83578,32.752171 -11.93277,40.286519 -5.62375,2.869022 -6.60852,3.022843 -5.72588,0.894386 z m -38.56461,-1.594765 c -2.75,-0.904821 -6.82813,-1.34574 -9.0625,-0.979819 l -4.0625,0.665311 0.0226,-12.951613 0.0226,-12.951614 3.78027,6.875 c 2.07915,3.78125 6.28712,10.109375 9.35105,14.0625 3.06393,3.953125 5.43074,7.12852 5.25959,7.056434 -0.17116,-0.07209 -2.5612,-0.871377 -5.3112,-1.776199 z M 42.924735,12.68754 l 0,-11.43754 11.5625,0.038 c 9.096106,0.0299 11.029225,0.3308 9.0625,1.4106196 C 59.846496,4.7318496 50.640558,13.68287 46.526942,19.25003 l -3.602207,4.87505 0,-11.43755 z m 328.986345,5.2207 c -0.12999,-0.80671 -2.15856,-3.98498 -4.50792,-7.06281 l -4.27157,-5.5960704 4.58407,-0.57228 c 2.52123,-0.31475 4.75467,-0.43464 4.96318,-0.26641 0.2085,0.16823 0.17424,3.60403 -0.0761,7.6351004 -0.25039,4.03108 -0.56162,6.66919 -0.69162,5.86247 z M 291.56183,4.7834096 287.07394,0 l 7.38551,0 7.38552,0 -2.40689,3.4374996 c -1.32379,1.89062 -2.62771,4.04316 -2.89763,4.78341 -0.2699,0.74025 -2.51027,-0.80663 -4.97862,-3.4375 z"
     id="path3338"
     inkscape:connector-curvature="0" />
</svg>
