<?xml version="1.0" encoding="UTF-8" standalone="no"?>
<!-- Created with Inkscape (http://www.inkscape.org/) -->
<svg id="svg4239" xmlns:rdf="http://www.w3.org/1999/02/22-rdf-syntax-ns#" xmlns="http://www.w3.org/2000/svg" viewBox="0 0 128 128" version="1.1" xmlns:cc="http://creativecommons.org/ns#" xmlns:dc="http://purl.org/dc/elements/1.1/">
 <defs id="defs4241">
  <clipPath id="clipPath3907" clipPathUnits="userSpaceOnUse">
   <rect id="rect3909" stroke-linejoin="miter" fill-rule="evenodd" height="90.914" width="115.16" stroke="#000" stroke-linecap="butt" y="948.06" x="158.34" stroke-width="1px" fill="#00F"/>
  </clipPath>
 </defs>
 <metadata id="metadata4244">
  <rdf:RDF>
   <cc:Work rdf:about="">
    <dc:format>image/svg+xml</dc:format>
    <dc:type rdf:resource="http://purl.org/dc/dcmitype/StillImage"/>
    <dc:title/>
   </cc:Work>
  </rdf:RDF>
 </metadata>
 <g id="layer1" transform="translate(0,-924.36218)" stroke="#000" stroke-miterlimit="4" stroke-dasharray="none">
  <path id="path3783" d="m128.56,63.721a64.279,63.721,0,1,1,-128.56,0,64.279,63.721,0,1,1,128.56,0z" transform="matrix(0.99255051,0,0,1.0012583,0.19937704,924.5614)" stroke-width="0.39999616" fill="#e0e5e8"/>
  <path id="path2987" d="m140.95,1056c-2.5092-0.1494-2.8902-0.3364-3.3842-1.6618-0.67573-1.8128-0.32222-6.5694,0.55599-7.4809,0.78257-0.8123,9.3782-0.9022,10.122-0.1059,0.28457,0.3047,0.59756,1.0242,0.69553,1.5989,0.228,1.3376-1.4707,1.6705-2.9691,0.5818-1.4652-1.0647-4.3133-1.0094-5.3871,0.1045-0.52687,0.5466-0.80416,1.5806-0.70562,2.6312,0.1609,1.7156,0.19178,1.7323,3.4997,1.8958,2.0714,0.1023,3.3374-0.055,3.3374-0.4155,0-0.3192,0.60072-0.5804,1.3349-0.5804,0.94994,0,1.3349,0.3,1.3349,1.0401,0,2.0584-2.4356,2.7492-8.4343,2.3922zm10.055-1.1801c-0.79758-1.546-0.6796-6.292,0.18699-7.5214,0.62803-0.891,1.4623-1.0534,5.5245-1.0753,6.0763-0.033,6.5512,0.3238,6.5512,4.9167,0,1.923-0.2807,3.7132-0.64078,4.0867-0.41088,0.4263-2.5114,0.6648-5.855,0.6648-4.6086,0-5.2784-0.1245-5.767-1.0715zm9.5928-3.6623,0-2.518-3.6044,0.1638c-3.5177,0.1598-3.6085,0.2015-3.7777,1.7339-0.30937,2.8026,0.10719,3.1383,3.8944,3.1383h3.4876zm4.2718,0.025,0-4.7085,2.5586,0,2.5586,0,1.5301,3.1851,1.5301,3.1852,1.3334-3.1852,1.3334-3.1851,2.5874,0,2.5874,0,0,4.7085c0,4.6297-0.022,4.7084-1.3105,4.7084-1.2464,0-1.3183-0.1831-1.4684-3.739l-0.15789-3.7391-1.85,3.7391c-2.519,5.091-3.6457,5.1169-6.0122,0.1384-0.94135-1.9803-1.9003-3.6005-2.1309-3.6005-0.23065,0-0.41937,1.6202-0.41937,3.6005,0,3.4714-0.0479,3.6006-1.335,3.6006-1.3192,0-1.3349-0.055-1.3349-4.7084zm17.621-0.019s-1.1303-3.6297,0-4.7279c3.896-0.6923,10.867-1.1212,11.108,3.2266,0.14972,2.6986,0.0596,2.951-1.2362,3.4621-0.76873,0.3032-2.7036,0.5513-4.2998,0.5513-2.5461,0-2.9021,0.1359-2.9021,1.1079,0,0.8124-0.35599,1.1078-1.335,1.1078-1.3197,0-1.3349-0.054-1.3349-4.7278zm8.7041-0.4463c0.6056-1.6372-0.60621-2.2266-4.2988-2.0909-1.4787,0.054-1.7354,0.2687-1.7354,1.4487,0,1.306,0.164,1.3848,2.8797,1.3848,1.9151,0,2.9718-0.2487,3.1545-0.7426zm4.9173,0.6042c1.3763-3.018,1.5746-4.5158,4.7568-4.738,3.222-0.7184,3.2952,1.6659,4.5625,4.2807,1.1859,2.4468,2.1562,4.5789,2.1562,4.738,0,0.6982-2.734,0.2064-3.0108-0.5417-0.2281-0.6166-1.1729-0.8309-3.664-0.8309-2.491,0-3.4358,0.2143-3.664,0.8309-0.17798,0.4812-0.97661,0.8309-1.8974,0.8309h-1.59zm6.6698,0.6648c0-0.7025-1.5302-3.85-1.8718-3.85-0.13333,0-0.73277,0.9971-1.3321,2.2158l-1.0897,2.2157h2.1468c1.1807,0,2.1468-0.2617,2.1468-0.5815zm5.8738-0.8033,0-4.7085,2.623,0,2.623,0,2.5833,3.7391,2.5833,3.739,0.15789-3.739c0.15016-3.556,0.22206-3.7391,1.4684-3.7391,1.2886,0,1.3105,0.079,1.3105,4.7085v4.7084l-2.5364-0.013c-2.5179-0.013-2.5536-0.039-4.8932-3.6006-1.2963-1.973-2.5578-3.5874-2.8034-3.5874-0.24559,0-0.44653,1.6203-0.44653,3.6006,0,3.4714-0.0479,3.6006-1.335,3.6006-1.3192,0-1.3349-0.055-1.3349-4.7084zm19.757,3.1572c0-1.0811-0.82209-2.5081-2.7126-4.7085l-2.7126-3.1572h1.661c1.2309,0,2.0875,0.5039,3.3081,1.9461l1.6471,1.9461,1.4069-1.9259c1.1012-1.5075,1.793-1.9303,3.1836-1.9461l1.7767-0.02-2.4442,2.9679c-1.7774,2.1582-2.4442,3.4428-2.4442,4.7085,0,1.4873-0.19424,1.7405-1.335,1.7405-1.1061,0-1.3349-0.2658-1.3349-1.5512zm8.5436-3.1572,0-4.7085,2.5814,0c2.5797,0,2.5829,0,4.935,3.6006,1.2945,1.9803,2.5358,3.6006,2.7584,3.6006s0.40473-1.6203,0.40473-3.6006c0-3.4714,0.0479-3.6006,1.3349-3.6006,1.3192,0,1.3349,0.055,1.3349,4.7085v4.7084h-2.573c-2.5605,0-2.5858-0.018-5.2063-3.739l-2.6333-3.7391-0.15789,3.7391c-0.15016,3.5559-0.22206,3.739-1.4684,3.739-1.2886,0-1.3106-0.079-1.3106-4.7084zm16.676,0,2.251-4.7085,2.4338,0,2.4338,0,2.1092,4.293c1.16,2.3612,2.1939,4.48,2.2975,4.7085,0.10359,0.2285-0.52684,0.4154-1.401,0.4154-0.92013,0-1.7187-0.3498-1.8967-0.8309-0.22643-0.6121-1.1596-0.8309-3.5447-0.8309s-3.3183,0.2188-3.5447,0.8309c-0.17496,0.473-0.97116,0.8309-1.8483,0.8309h-1.5409zm6.8188,1.1266c0-0.6006-1.8285-4.1733-2.1359-4.1733s-2.1359,3.5727-2.1359,4.1733c0,0.142,0.96116,0.2582,2.1359,0.2582,1.1748,0,2.1359-0.1162,2.1359-0.2582zm5.8738-1.1266,0-4.7085,2.6188,0,2.6188,0,1.2173,3.0467c0.6695,1.6756,1.3691,3.0466,1.5547,3.0466s0.88522-1.371,1.5547-3.0466l1.2173-3.0467h2.6188,2.6188v4.7085c0,4.653-0.0157,4.7084-1.3349,4.7084-1.287,0-1.335-0.1292-1.335-3.6006,0-1.9803-0.18021-3.591-0.40048-3.5792-0.22027,0.012-1.1214,1.632-2.0024,3.6005-1.3711,3.0633-1.8027,3.5791-2.9948,3.5792-1.1987,0.0001-1.6081-0.4996-2.9369-3.5856-0.84921-1.9721-1.7242-3.5923-1.9445-3.6005-0.22027-0.01-0.40048,1.6053-0.40048,3.5856,0,3.4714-0.0479,3.6006-1.335,3.6006-1.3192,0-1.3349-0.055-1.3349-4.7084zm17.621,0,0-4.7085,5.3398,0c4.3905,0,5.3398,0.1477,5.3398,0.8309,0,0.6655-0.80532,0.8309-4.044,0.8309-3.496,0-4.0206,0.1258-3.8713,0.9284,0.14426,0.7757,0.7651,0.906,3.777,0.7927,3.3305-0.1253,3.6044-0.049,3.6044,1.0104,0,1.0496-0.31448,1.1461-3.7378,1.1461-2.9666,0-3.7378,0.1714-3.7378,0.8309,0,0.6647,0.80097,0.8309,4.0048,0.8309,3.6488,0,4.0048,0.099,4.0048,1.1079,0,1.034-0.35599,1.1078-5.3398,1.1078h-5.3398zm-69.755-13.445c-2.2568-1.8964-2.3938-2.9095-1.2646-9.3537,1.1247-6.4185,1.3339-10.53,0.59706-11.736-0.54104-0.8856-0.63819-0.5126-1.9614,7.5308-0.96748,5.8809-1.781,7.0774-2.9707,4.3689-0.47272-1.0763-0.17544-2.5095,1.6726-8.063,1.2361-3.7148,2.1072-6.8996,1.9358-7.0774s-1.2193,0.3775-2.3286,1.2339c-1.1093,0.8565-2.0937,1.6148-2.1874,1.6852-0.0938,0.07,0.1216,0.6131,0.4786,1.2061,0.41963,0.697,0.49646,1.6462,0.21735,2.6851l-0.43173,1.607-0.31385-1.6162c-0.17262-0.8888-0.57067-1.7047-0.88454-1.8129-0.78416-0.2706-2.0482,2.3232-1.6529,3.3917,0.42887,1.1594-0.34352,1.1032-1.3904-0.1011-0.73211-0.8423-0.74545-1.1511-0.10168-2.3543,0.40752-0.7616,0.74946-1.5717,0.75986-1.8002,0.0321-0.7045-2.0114-0.4582-2.2973,0.2769-0.16246,0.4177-0.28606,0.3119-0.31148-0.2664-0.0397-0.9035,0.86388-1.3634,3.4545-1.7578,0.60546-0.092,1.7603-1.4519,2.7984-3.2947,1.7422-3.0931,1.7578-3.1809,1.0901-6.16-0.62713-2.7982-0.77298-2.9972-1.969-2.6858-1.233,0.321-1.2752,0.2446-0.92679-1.6817,0.21467-1.1871,0.15309-2.018-0.14956-2.018-0.28298,0-0.88453-0.1473-1.3368-0.3273-0.57229-0.2279-0.9288,0.1129-1.1726,1.1207-0.43554,1.8002-2.1362,3.0841-4.085,3.0841-1.7779,0-1.7708,0.068-0.34953-3.3591,0.91917-2.2165,1.0078-2.8908,0.46859-3.5648-0.93992-1.1748-1.2424-1.0587-2.3618,0.9071-1.5902,2.7927-2.8444,3.8018-4.7137,3.7926-3.3045-0.016-3.3248-0.6365-0.15204-4.6519,1.6255-2.0572,2.9518-4.0313,2.9472-4.3869-0.0259-2.0468-0.98651-1.76-4.4992,1.3433-4.0231,3.5542-5.6829,4.0327-7.8053,2.2499l-1.2174-1.0227,5.4155-4.1012c3.9963-3.0264,5.4193-4.4211,5.4301-5.3217,0.0137-1.1516-0.34492-1.0461-6.3571,1.8698-6.9527,3.372-8.3841,3.5135-9.9803,0.98641-0.48403-0.76633-0.7705-1.507-0.63659-1.6459,0.13391-0.13891,3.951-1.7361,8.4825-3.5492,5.2208-2.089,8.3023-3.6135,8.4117-4.1616,0.21782-1.0912,0.56551-1.116-7.6483,0.54376-9.1095,1.8407-10.836,1.8666-12.085,0.1811-0.53528-0.72207-0.97857-1.8304-0.9851-2.463-0.0113-1.0947,0.51663-1.1993,10.935-2.1667,8.2993-0.77069,10.947-1.1958,10.947-1.758,0-0.4078-0.42051-0.74074-0.93446-0.73987-0.51395,0.001-6.341-0.39353-12.949-0.87646-13.609-0.99459-14.559-1.3052-14.85-4.858-0.12862-1.5695,0.0289-2.0222,0.70375-2.0222,0.47822,0,7.4744,0.99708,15.547,2.2157,8.0726,1.2187,14.953,2.2157,15.289,2.2157,1.8359,0-2.0353-1.522-17.657-6.9419-15.628-5.422-17.326-6.1303-18.016-7.5151-0.72178-1.4479-0.55628-4.9308,0.23429-4.9308,0.18729,0,8.9879,3.7373,19.557,8.3051,13.75,5.9424,19.569,8.7217,20.455,9.7696l1.2386,1.4645-1.8494,2.0016c-3.8036,4.1165-5.5262,10.666-4.1713,15.858,0.86288,3.3069,3.4682,7.2189,5.936,8.9131,2.761,1.8954,7.382,3.2133,8.3487,2.3811,1.0221-0.88,1.5384-5.3186,0.73538-6.3223-0.96083-1.201-2.7154-1.0261-3.0507,0.30417-0.26923,1.068-0.33974,1.0784-1.285,0.19111-1.4172-1.3305-1.241-2.5965,0.51093-3.67,1.3684-0.83857,1.5896-0.84447,2.3434-0.0625,0.96719,1.0033,3.0873,0.55087,3.0873-0.65888,0-0.60297-0.3028-0.66043-1.3349-0.25335-1.7728,0.69921-1.7552-0.24277,0.0272-1.4543,1.3-0.88365,8.2494-3.147,8.2494-2.6867,0,0.12117-0.50363,0.70706-1.1192,1.302-0.96828,0.93581-1.044,1.3308-0.56201,2.9297,0.30645,1.0165,0.92912,3.5661,1.3837,5.6658,1.0893,5.0313,1.3309,5.2894,4.3961,4.6954,11.341-2.1979,15.831-17.266,7.8799-26.441-2.2392-2.5836-2.258-2.6394-1.3913-4.1211,0.48323-0.82617,1.3625-1.6562,1.9539-1.8445,0.59142-0.18828,3.2379-1.2834,5.8811-2.4335,2.6432-1.1502,7.6893-3.3346,11.214-4.8543,3.5242-1.5197,9.6262-4.1618,13.56-5.8713,3.9337-1.7095,7.3318-3.1082,7.5513-3.1082,0.63896,0,1.1,2.6423,0.72875,4.1767-0.47775,1.9747-2.0159,2.6547-19.971,8.8283-14.229,4.8925-18.001,6.3827-16.156,6.3827,0.33626,0,7.2163-0.99708,15.289-2.2157,8.0726-1.2187,15.054-2.2157,15.515-2.2157,0.59028,0,0.83483,0.53104,0.82907,1.8003-0.009,2.0856-0.38169,2.8023-1.8608,3.583-0.58737,0.31005-7.0151,1.0129-14.284,1.562-11.856,0.89548-14.151,1.2718-12.815,2.101,0.22027,0.13678,5.2664,0.6931,11.214,1.2363,10.523,0.96106,10.813,1.0205,10.813,2.2153,0,0.67527-0.43017,1.7788-0.95592,2.4524-1.245,1.595-2.7936,1.5663-12.08-0.22378-4.086-0.78762-7.5278-1.432-7.6483-1.432-0.12058,0-0.14153,0.39884-0.0466,0.88632,0.11285,0.57936,3.0141,2.0082,8.377,4.1257,4.5124,1.7816,8.3295,3.3692,8.4825,3.5279,0.15296,0.15868-0.11791,0.91551-0.60194,1.6818-1.043,1.6512-3.157,2.3305-4.7773,1.5348-11.678-5.7341-11.576-5.6953-11.554-4.3988,0.0149,0.90512,1.4282,2.2998,5.3723,5.3018,5.1552,3.9237,5.3184,4.1122,4.4358,5.1238-1.6347,1.8739-4.0324,1.3601-7.2342-1.5502-4.7484-4.3159-4.4255-4.1257-5.1004-3.0046-0.50527,0.83931-0.10362,1.646,2.5314,5.084,3.3304,4.3454,3.3432,4.9284,0.10841,4.9442-1.8693,0.01-3.1235-0.9999-4.7137-3.7926-1.1198-1.9664-1.4218-2.082-2.3633-0.9051-0.54078,0.6759-0.46058,1.3266,0.42519,3.4493,1.2381,2.9671,1.1294,3.4726-0.74621,3.4726-1.5027,0-3.949-2.2515-3.949-3.6347,0-0.60699-0.28444-0.80209-0.84464-0.57909-0.46455,0.185-1.0762,0.3363-1.3591,0.3363-0.30265,0-0.36423,0.83089-0.14956,2.018,0.34836,1.9263,0.30623,2.0027-0.9268,1.6817-1.1961-0.3114-1.3419-0.1124-1.969,2.6858-0.66885,2.9844-0.65487,3.062,1.119,6.2112,1.0584,1.8791,2.2208,3.2551,2.8298,3.3498,2.6674,0.4149,3.4363,0.7545,3.4363,1.5177,0,0.68-0.18351,0.7062-1.0437,0.1489-1.4841-0.9615-1.8422-0.2655-0.86859,1.6877,0.75867,1.5219,0.75878,1.7583,0.001,2.5442-1.0752,1.1154-1.885,1.1143-1.4721,0,0.39526-1.0685-0.86878-3.6622-1.6529-3.3917-0.31388,0.1082-0.71192,0.9241-0.88454,1.8129l-0.31386,1.6161-0.43173-1.6069c-0.27911-1.0388-0.20227-1.988,0.21736-2.6851,0.357-0.593,0.57237-1.1358,0.4786-1.2062-0.0938-0.07-1.0781-0.8286-2.1874-1.685-1.1093-0.8565-2.1652-1.4035-2.3464-1.2155-0.18118,0.1879,0.69609,3.3588,1.9495,7.0462,1.903,5.5986,2.1818,6.9255,1.6903,8.0446-0.53561,1.2194-2.2085,1.9172-2.217,0.9246-0.002-0.2285-0.48093-3.2821-1.0644-6.7857-0.58348-3.5037-1.0662-6.495-1.0726-6.6473-0.007-0.1523-0.24465,0.097-0.52934,0.5539-0.78441,1.2592-0.59621,5.7602,0.49442,11.824,1.1123,6.1845,0.98842,7.3413-0.97096,9.0672-1.6848,1.4839-2.13,1.5191-3.5993,0.2845z" clip-path="url(#clipPath3907)" transform="matrix(0.93492528,0,0,0.96479554,-137.86917,38.808518)" stroke-width="0.20992739" fill="#466a7f"/>
 </g>
</svg>
