<?xml version="1.0" encoding="UTF-8" standalone="no"?>
<!-- Created with Inkscape (http://www.inkscape.org/) -->

<svg
   xmlns:dc="http://purl.org/dc/elements/1.1/"
   xmlns:cc="http://creativecommons.org/ns#"
   xmlns:rdf="http://www.w3.org/1999/02/22-rdf-syntax-ns#"
   xmlns:svg="http://www.w3.org/2000/svg"
   xmlns="http://www.w3.org/2000/svg"
   xmlns:sodipodi="http://sodipodi.sourceforge.net/DTD/sodipodi-0.dtd"
   xmlns:inkscape="http://www.inkscape.org/namespaces/inkscape"
   width="36.123608mm"
   height="36.125282mm"
   viewBox="0 0 127.99703 128.00297"
   id="svg6305"
   version="1.1"
   inkscape:version="0.91 r13725"
   sodipodi:docname="logo128x128.svg"
   inkscape:export-filename="/home/lior/Development/git/Izmus/Izmus_Build/Izmus_View/src/main/webapp/META-INF/views-public/core/logo/logo16x16.png"
   inkscape:export-xdpi="90"
   inkscape:export-ydpi="90">
  <defs
     id="defs6307" />
  <sodipodi:namedview
     id="base"
     pagecolor="#ffffff"
     bordercolor="#666666"
     borderopacity="1.0"
     inkscape:pageopacity="0.0"
     inkscape:pageshadow="2"
     inkscape:zoom="2.8"
     inkscape:cx="-82.220216"
     inkscape:cy="82.032451"
     inkscape:document-units="px"
     inkscape:current-layer="layer1"
     showgrid="false"
     fit-margin-top="0"
     fit-margin-left="0"
     fit-margin-right="0"
     fit-margin-bottom="0"
     inkscape:window-width="1872"
     inkscape:window-height="1059"
     inkscape:window-x="48"
     inkscape:window-y="21"
     inkscape:window-maximized="1" />
  <metadata
     id="metadata6310">
    <rdf:RDF>
      <cc:Work
         rdf:about="">
        <dc:format>image/svg+xml</dc:format>
        <dc:type
           rdf:resource="http://purl.org/dc/dcmitype/StillImage" />
        <dc:title />
      </cc:Work>
    </rdf:RDF>
  </metadata>
  <g
     inkscape:label="Layer 1"
     inkscape:groupmode="layer"
     id="layer1"
     transform="translate(1.1211689,-28.324616)">
    <circle
       style="fill:#1f6086;fill-opacity:1;stroke:#ffffff;stroke-width:1.19491827;stroke-miterlimit:4;stroke-dasharray:none;stroke-opacity:1"
       id="path8279"
       cy="92.326096"
       cx="62.87735"
       r="63.402542" />
    <path
       style="fill:#ffffff;fill-opacity:1;stroke:none;stroke-width:0.175;stroke-miterlimit:4;stroke-dasharray:none;stroke-opacity:1"
       d="m 6.5104497,109.02102 c -0.6088555,-0.11368 -0.8454368,-0.27739 -0.7718496,-0.53403 0.058362,-0.20356 0.1552806,-6.63773 0.2153712,-14.298196 l 0.109259,-13.928129 4.1117237,0 4.111722,0 0,14.495335 0,14.49534 -3.449133,-0.0331 c -1.8970219,-0.0184 -3.8442145,-0.10701 -4.3270933,-0.19717 z"
       id="path8241"
       inkscape:connector-curvature="0" />
    <path
       style="fill:#ffffff;fill-opacity:1;stroke:none;stroke-width:0.175;stroke-miterlimit:4;stroke-dasharray:none;stroke-opacity:1"
       d="m 18.689235,88.041445 c -0.06546,-0.189226 -0.243621,-1.294853 -0.395917,-2.45696 -0.245961,-1.876821 -0.196312,-3.327646 0.15735,-4.598278 0.159854,-0.574317 1.658895,-0.730186 5.285972,-0.549625 l 3.053388,0.152012 -1.422889,0.940271 c -1.517293,1.002648 -3.811145,3.291358 -5.516584,5.504209 -0.659896,0.856231 -1.085969,1.22619 -1.16132,1.008371 z"
       id="path8243"
       inkscape:connector-curvature="0" />
    <path
       style="fill:#ffffff;fill-opacity:1;stroke:none;stroke-width:0.175;stroke-miterlimit:4;stroke-dasharray:none;stroke-opacity:1"
       d="m 19.538057,104.14646 c 1.355528,-2.80768 4.494588,-9.25567 6.975689,-14.328857 l 4.511093,-9.223978 3.357973,-0.151732 c 3.816308,-0.172456 5.490166,-0.02715 5.490166,0.476458 0,1.037416 -3.660419,8.97291 -10.191206,22.093709 l -3.105567,6.23929 -4.751372,0 -4.751372,0 2.464596,-5.10487 z"
       id="path8245"
       inkscape:connector-curvature="0" />
    <path
       style="fill:#ffffff;fill-opacity:1;stroke:none;stroke-width:0.175;stroke-miterlimit:4;stroke-dasharray:none;stroke-opacity:1"
       d="m 32.911999,109.06676 c -0.586352,-0.0531 -1.061556,-0.17505 -1.056008,-0.27108 0.0056,-0.096 0.694974,-0.68507 1.532058,-1.309 1.883313,-1.40375 3.415527,-3.08729 5.047531,-5.54604 0.690226,-1.03988 1.352443,-1.998465 1.4716,-2.130185 0.122374,-0.135281 0.216658,1.866505 0.216658,4.600695 l 0,4.84018 -3.072862,-0.044 c -1.690076,-0.0244 -3.552608,-0.0875 -4.138961,-0.14055 z"
       id="path8247"
       inkscape:connector-curvature="0" />
    <path
       style="fill:#ffffff;fill-opacity:1;stroke:none;stroke-width:0.175;stroke-miterlimit:4;stroke-dasharray:none;stroke-opacity:1"
       d="m 43.698382,109.07343 c -0.310426,-0.0601 -0.564405,-0.15593 -0.564405,-0.21298 0,-0.42362 1.669793,-3.37884 1.873725,-3.31616 0.142162,0.0437 0.68728,0.89565 1.211389,1.89325 l 0.95292,1.8138 -1.454616,-0.0343 c -0.800035,-0.0188 -1.708591,-0.0835 -2.019013,-0.14358 z"
       id="path8249"
       inkscape:connector-curvature="0" />
    <path
       style="fill:#ffffff;fill-opacity:1;stroke:none;stroke-width:0.175;stroke-miterlimit:4;stroke-dasharray:none;stroke-opacity:1"
       d="M 52.444769,108.17994 C 52.301614,107.72933 51.055905,103.61706 49.676506,99.041581 45.835904,86.302233 44.577409,82.59816 43.640362,81.27566 43.36184,80.882594 43.133977,80.478891 43.133977,80.378577 c 0,-0.309214 8.34793,0.01238 8.959982,0.34511 0.686668,0.37338 1.692972,3.456307 4.466662,13.684228 l 1.956539,7.214675 -0.795967,3.24718 c -0.95588,3.89957 -1.147023,4.1295 -3.4329,4.1295 -1.565619,0 -1.586157,-0.009 -1.843524,-0.81931 z"
       id="path8251"
       inkscape:connector-curvature="0" />
    <path
       style="fill:#ffffff;fill-opacity:1;stroke:none;stroke-width:0.175;stroke-miterlimit:4;stroke-dasharray:none;stroke-opacity:1"
       d="m 63.139437,102.15406 c 0.08109,-9.171188 0.490996,-19.65108 0.800607,-20.469466 0.357231,-0.944229 0.847631,-1.096951 4.153118,-1.29334 l 3.010151,-0.178844 0,13.700164 c 0,10.941926 0.06723,13.818706 0.333868,14.288966 0.183641,0.32382 0.258973,0.66416 0.167431,0.75627 -0.09154,0.0921 -2.04789,0.2068 -4.347415,0.25483 l -4.180958,0.0874 0.06321,-7.14597 z"
       id="path8253"
       inkscape:connector-curvature="0" />
    <path
       style="fill:#ffffff;fill-opacity:1;stroke:none;stroke-width:0.175;stroke-miterlimit:4;stroke-dasharray:none;stroke-opacity:1"
       d="m 80.478935,108.41702 c -2.055678,-0.7042 -3.600505,-1.709 -4.089987,-2.66026 -0.608718,-1.18298 -0.891642,-3.69457 -0.898444,-7.975644 -0.0072,-4.563986 -0.394777,-13.262417 -0.704754,-15.818825 l -0.206328,-1.701626 4.340958,0 4.340959,0 -0.05869,12.709996 c -0.05797,12.547079 -0.05197,12.719149 0.466049,13.423939 0.810854,1.1032 1.951452,1.75937 3.346923,1.92547 0.700475,0.0834 1.470477,0.26685 1.71111,0.40771 0.311261,0.18224 -0.575871,0.25647 -3.07433,0.25731 -2.989701,0.001 -3.758893,-0.0834 -5.173451,-0.56805 z"
       id="path8255"
       inkscape:connector-curvature="0" />
    <path
       style="fill:#ffffff;fill-opacity:1;stroke:none;stroke-width:0.175;stroke-miterlimit:4;stroke-dasharray:none;stroke-opacity:1"
       d="m 93.799614,82.46537 c -0.59693,-0.727311 -1.263247,-1.534485 -1.4807,-1.793723 -0.382898,-0.456466 -0.314638,-0.468133 2.163256,-0.369747 1.407247,0.0559 2.634223,0.177566 2.726616,0.270442 0.167629,0.168463 -1.336644,2.392035 -1.982885,2.931035 -0.269065,0.224443 -0.569761,0.0056 -1.426287,-1.038003 z"
       id="path8257"
       inkscape:connector-curvature="0" />
    <path
       style="fill:#ffffff;fill-opacity:1;stroke:none;stroke-width:0.175;stroke-miterlimit:4;stroke-dasharray:none;stroke-opacity:1"
       d="m 113.72881,108.57824 c 0.37606,-0.98484 0.68214,-2.8362 0.70585,-4.2692 0.0469,-2.83444 -1.03032,-3.82022 -6.70782,-6.138452 -5.88847,-2.404381 -7.06707,-3.19956 -8.216543,-5.543584 -0.830578,-1.693716 -0.804724,-4.939622 0.05332,-6.694251 0.902303,-1.845148 2.710523,-3.532076 4.912483,-4.582984 1.03951,-0.496112 1.94382,-0.84795 2.00959,-0.781859 0.0657,0.06608 -0.18631,0.789729 -0.56019,1.608087 -0.97478,2.133675 -0.95558,3.778191 0.0588,5.038524 0.94634,1.175787 3.1149,2.411141 5.75607,3.279036 3.23717,1.063737 6.0869,2.543651 7.28635,3.783936 1.50149,1.552593 1.95492,3.042813 1.82614,6.001747 -0.12178,2.79817 -0.81245,4.44537 -2.62973,6.27168 -1.77057,1.77937 -4.94672,3.21207 -4.49433,2.02732 z"
       id="path8259"
       inkscape:connector-curvature="0" />
    <path
       style="fill:#ffffff;fill-opacity:1;stroke:none;stroke-width:0.175;stroke-miterlimit:4;stroke-dasharray:none;stroke-opacity:1"
       d="m 102.83534,108.35465 c -0.20696,-0.0451 -1.26475,-0.15632 -2.35068,-0.2472 l -1.974405,-0.16531 0.106044,-3.694 c 0.05833,-2.0317 0.229055,-3.9131 0.379361,-4.18089 0.245186,-0.436865 0.343642,-0.346225 0.958364,0.88233 0.376776,0.75306 1.517876,2.63012 2.535736,4.17124 1.01787,1.54112 1.85066,2.93078 1.85066,3.08814 0,0.26864 -0.651,0.33165 -1.50508,0.1457 z"
       id="path8261"
       inkscape:connector-curvature="0" />
    <path
       style="fill:#ffffff;fill-opacity:1;stroke:none;stroke-width:0.175;stroke-miterlimit:4;stroke-dasharray:none;stroke-opacity:1"
       d="m 117.76535,86.659182 c -0.22325,-0.538185 -0.85182,-1.667083 -1.39681,-2.508656 -0.54499,-0.84157 -0.99089,-1.777465 -0.99089,-2.079763 0,-0.513477 0.11784,-0.549637 1.79144,-0.549637 l 1.79145,0 -0.13179,2.794133 c -0.14979,3.176069 -0.44671,3.830529 -1.06341,2.343923 z"
       id="path8263"
       inkscape:connector-curvature="0" />
  </g>
</svg>
