<?xml version="1.0" encoding="UTF-8" standalone="no"?>
<!-- Created with Inkscape (http://www.inkscape.org/) -->

<svg
   xmlns:dc="http://purl.org/dc/elements/1.1/"
   xmlns:cc="http://creativecommons.org/ns#"
   xmlns:rdf="http://www.w3.org/1999/02/22-rdf-syntax-ns#"
   xmlns:svg="http://www.w3.org/2000/svg"
   xmlns="http://www.w3.org/2000/svg"
   xmlns:sodipodi="http://sodipodi.sourceforge.net/DTD/sodipodi-0.dtd"
   xmlns:inkscape="http://www.inkscape.org/namespaces/inkscape"
   id="svg4325"
   version="1.1"
   inkscape:version="0.91 r13725"
   width="32"
   height="32"
   viewBox="0 0 32 32"
   sodipodi:docname="assessor.svg">
  <metadata
     id="metadata4331">
    <rdf:RDF>
      <cc:Work
         rdf:about="">
        <dc:format>image/svg+xml</dc:format>
        <dc:type
           rdf:resource="http://purl.org/dc/dcmitype/StillImage" />
        <dc:title></dc:title>
      </cc:Work>
    </rdf:RDF>
  </metadata>
  <defs
     id="defs4329" />
  <sodipodi:namedview
     pagecolor="#ffffff"
     bordercolor="#666666"
     borderopacity="1"
     objecttolerance="10"
     gridtolerance="10"
     guidetolerance="10"
     inkscape:pageopacity="0"
     inkscape:pageshadow="2"
     inkscape:window-width="1868"
     inkscape:window-height="1059"
     id="namedview4327"
     showgrid="false"
     fit-margin-top="0"
     fit-margin-left="0"
     fit-margin-right="0"
     fit-margin-bottom="0"
     inkscape:zoom="9.3357874"
     inkscape:cx="5.871863"
     inkscape:cy="18.727887"
     inkscape:window-x="52"
     inkscape:window-y="21"
     inkscape:window-maximized="1"
     inkscape:current-layer="svg4325" />
  <path
     style="fill:#000000"
     d=""
     id="path4881"
     inkscape:connector-curvature="0" />
  <path
     style="fill:#000000"
     d=""
     id="path4879"
     inkscape:connector-curvature="0" />
  <path
     style="fill:#000000"
     d=""
     id="path4875"
     inkscape:connector-curvature="0" />
  <g
     id="g4917"
     transform="matrix(0.23607589,0,0,0.22869852,0.16496124,-0.64192831)"
     style="stroke-width:0;stroke-miterlimit:4;stroke-dasharray:none;stroke:#000000;stroke-opacity:0.32460734">
    <g
       id="g4907"
       style="stroke-width:0;stroke-miterlimit:4;stroke-dasharray:none;stroke:#000000;stroke-opacity:0.32460734">
      <path
         style="fill:#000000;fill-opacity:0.15183249;stroke:#000000;stroke-width:2.15185255;stroke-miterlimit:4;stroke-dasharray:none;stroke-opacity:1"
         d="m 83.105933,131.345 -18,-8.87698 -17,-0.28698 -17,-0.28697 -0.46463,-10.5 -0.46463,-10.5 -0.53537,10.5 -0.53537,10.5 -10.89329,0.28529 -10.8932803,0.28528 0.57219,-10.78528 c 0.63977,-12.059182 3.0893403,-21.932562 8.1172703,-32.718022 3.99031,-8.559652 12.12834,-19.56727 14.46627,-19.56727 0.93479,0 2.46729,1.299561 3.40556,2.887912 2.32647,3.938405 8.38213,9.112088 10.66546,9.112088 1.02883,0 3.75574,-1.575 6.05982,-3.5 5.08236,-4.24619 7.89969,-4.395334 12.2152,-0.64665 5.78582,5.025874 7.04054,5.338986 10.87598,2.714082 1.87485,-1.283114 4.53382,-4.173593 5.90882,-6.423286 1.375,-2.249693 3.2646,-4.102455 4.19911,-4.117249 0.93451,-0.01479 2.93367,1.591697 4.44258,3.569978 2.5245,3.30979 2.84629,3.456262 4.03169,1.835132 1.19566,-1.635169 2.34932,-1.259228 16.057417,5.232591 l 14.7692,6.994334 2.19056,5.920534 c 1.2048,3.256294 2.2173,6.869512 2.25,8.029374 0.0327,1.159862 -5.09888,12.747362 -11.40349,25.750002 -8.77843,18.10466 -11.88144,23.62101 -13.25,23.55511 -0.98289,-0.0473 -9.887067,-4.08068 -19.787067,-8.96302 z M 114.3106,115.38206 c 6.12876,-12.6566 10.74287,-22.764585 10.25356,-22.462179 -1.41976,0.877462 -8.95823,-3.410716 -8.95823,-5.095797 0,-4.557142 5.0181,-9.450376 6.33772,-6.180016 0.27741,0.6875 0.53302,0.8 0.56802,0.25 0.035,-0.55 -0.26853,-1.522044 -0.67451,-2.160098 -0.68829,-1.081748 -25.680467,-13.339902 -27.197667,-13.339902 -0.91584,0 -27.38766,53.979232 -26.77318,54.593722 0.5592,0.55919 33.986797,17.22159 34.770347,17.3317 0.2919,0.041 5.54517,-10.28082 11.67394,-22.93743 z m -27.693707,9.67517 c -9.2326,-4.58257 -14.61032,-7.82132 -14.82333,-8.92738 -0.19571,-1.01627 0.27908,-1.73578 1.14543,-1.73578 0.98737,0 1.30568,-0.66544 0.95669,-2 -0.34494,-1.31906 -0.0307,-2 0.92302,-2 0.85645,0 1.41366,-0.91738 1.36663,-2.25 -0.0555,-1.57266 0.45798,-2.20643 1.70568,-2.10526 1.39066,0.11275 1.53736,-0.15376 0.66391,-1.2062 -1.4365,-1.73088 -0.21909,-3.75616 1.7936,-2.98382 1.29416,0.49661 1.33271,0.34093 0.24123,-0.97421 -2.44802,-2.94969 0.36422,-3.853763 4.85736,-1.561534 2.24353,1.144564 4.43457,2.060074 4.86898,2.034464 0.43441,-0.0256 -1.34766,-1.15924 -3.96016,-2.51917 -2.6125,-1.359933 -4.75,-2.626816 -4.75,-2.815295 0,-0.188479 1.8,-3.842019 4,-8.118977 2.2,-4.276958 4,-8.389123 4,-9.138144 0,-0.749021 0.69293,-1.361856 1.53984,-1.361856 2.23005,0 9.460157,3.860866 9.460157,5.051709 0,1.8607 -2.789447,2.108532 -5.860077,0.520645 -1.67233,-0.864795 -3.40045,-1.543313 -3.84026,-1.507818 -0.43981,0.03549 6.09865,3.395883 14.529917,7.467529 12.2218,5.902181 15.25541,7.764354 14.96375,9.185464 -0.22947,1.118039 -1.09784,1.673741 -2.32958,1.490771 -1.5251,-0.226538 -1.6492,-0.0798 -0.55557,0.656782 1.19686,0.80614 1.15065,1.49117 -0.30793,4.56491 -0.94386,1.98904 -2.09808,3.38037 -2.56492,3.09184 -0.46685,-0.28852 -0.61329,0.37603 -0.32544,1.47679 0.35431,1.35487 0.0314,2.00138 -0.99964,2.00138 -1.03068,0 -1.35394,0.64652 -1,2 0.35394,1.35348 0.0307,2 -1,2 -1.03068,0 -1.35394,0.64652 -1,2 0.77051,2.94642 -2.58476,2.59693 -9.73877,-1.0144 -4.512467,-2.27788 -5.971477,-2.6588 -5.971477,-1.55901 0,2.80756 -1.97757,2.60985 -8.93363,-0.89317 -3.85904,-1.94338 -7.36518,-3.49773 -7.79141,-3.4541 -0.42623,0.0436 5.75004,3.30612 13.72504,7.25 9.378437,4.63792 14.614197,7.7888 14.823317,8.92068 0.18917,1.02389 -0.29063,1.75 -1.15638,1.75 -0.98737,0 -1.30568,0.66544 -0.95669,2 0.86044,3.29034 -2.14188,2.38505 -17.699287,-5.33684 z m 8.98904,-16.66316 c -1.925,-1.05389 -3.95,-1.91617 -4.5,-1.91617 -0.55,0 0.575,0.86228 2.5,1.91617 1.925,1.05389 3.95,1.91617 4.5,1.91617 0.55,0 -0.575,-0.86228 -2.5,-1.91617 z m -67.78498,1.75 c 0.2638,-9.48834 0.4336,-10.250002 2.28498,-10.250002 1.85138,0 2.02118,0.761662 2.28498,10.250002 l 0.28499,10.25 15.71501,-0.0345 15.71502,-0.0345 12.5,-25.562952 c 6.875,-14.059624 12.59959,-25.8566 12.72131,-26.215502 0.12171,-0.358901 -1.01713,-2.146208 -2.53076,-3.971792 l -2.75206,-3.319243 -3.22565,4.491645 c -3.21443,4.476008 -8.68875,8.646842 -11.34921,8.646842 -0.77016,0 -3.57854,-1.8 -6.24085,-4 -2.6623,-2.2 -5.45089,-4 -6.19687,-4 -0.74597,0 -2.83448,1.284007 -4.64111,2.85335 -5.50806,4.784594 -7.34916,5.42329 -10.67519,3.703334 -1.59964,-0.827209 -4.89575,-3.775811 -7.32469,-6.552448 l -4.41624,-5.048431 -4.32603,5.772098 C 16.935223,78.747965 11.108163,95.2566 9.9335927,111.64407 l -0.62715,8.75 9.1147603,0 9.11476,0 0.28499,-10.25 z m 26.83583,-2.41248 c -3.13998,-3.99185 -3.43229,-6.56969 -1.89514,-16.713119 1.21579,-8.022776 1.20955,-9.877416 -0.0469,-13.923115 -1.33643,-4.303398 -1.30711,-4.824733 0.37582,-6.684357 2.01379,-2.225206 4.62564,-2.563441 7.58106,-0.981747 2.20102,1.177947 2.42326,3.600645 0.82091,8.948808 -0.86439,2.885082 -0.76332,5.928461 0.45199,13.610092 l 1.56533,9.894068 -2.49413,4.25592 c -1.37179,2.34076 -2.89252,4.25593 -3.37941,4.25593 -0.4869,0 -1.82771,-1.19812 -2.97958,-2.66248 z m 5.3134,-11.828544 c -0.80608,-6.672948 -0.89076,-16.25653 -0.18891,-21.377977 0.44374,-3.237926 -2.54543,-5.189479 -4.67967,-3.05524 -1.38063,1.380625 -1.38448,1.98792 -0.0369,5.807414 1.34442,3.810516 1.33888,5.314206 -0.052,14.095693 -1.44634,9.131824 -1.43589,10.064234 0.14712,13.125434 l 1.70406,3.2953 1.97646,-2.44082 c 1.75962,-2.17304 1.88357,-3.20979 1.12979,-9.449804 z m 61.287487,-9.519232 c -1.03698,-3.88505 -1.10959,-3.939687 -2.32563,-1.75 -1.70289,3.066323 -1.65627,3.295394 0.92389,4.539759 1.2375,0.596824 2.29998,1.115591 2.36107,1.152815 0.0611,0.03722 -0.37061,-1.736934 -0.95933,-3.942574 z M 46.105933,60.523055 c -5.22021,-2.384448 -11.73384,-9.555969 -13.95006,-15.359046 -2.34201,-6.132458 -1.83917,-19.528688 0.94729,-25.236779 10.14297,-20.77802539 39.28099,-20.05234539 48.66893,1.212097 2.98289,6.75649 2.96315,17.987057 -0.0435,24.754741 -2.73307,6.151853 -8.31107,12.128916 -13.62264,14.597245 -5.3907,2.505101 -16.54989,2.521202 -22,0.03174 z m 21,-2.028837 c 17.78739,-8.253021 19.85736,-36.656664 3.46213,-47.506514 -13.5116,-8.9415504 -31.42854,-2.4640334 -36.80352,13.305587 -0.63724,1.869573 -1.15421,6.369573 -1.14884,10 0.016,10.808017 6.02412,20.631218 14.99023,24.508833 4.91258,2.124564 14.58662,1.97181 19.5,-0.307906 z"
         id="path4883"
         inkscape:connector-curvature="0" />
    </g>
    <g
       id="g4912"
       style="stroke-width:0;stroke-miterlimit:4;stroke-dasharray:none;stroke:#000000;stroke-opacity:0.32460734">
      <path
         inkscape:connector-curvature="0"
         id="path4885"
         d="M 48.632423,58.859653 C 43.235055,56.80089 38.854829,52.62012 35.910861,46.717373 33.538599,41.960914 32.816192,37.862977 33.181444,31.234441 c 0.271489,-4.926918 0.632676,-6.54742 2.183662,-9.797219 4.621155,-9.682759 16.11515,-15.7965774 25.933851,-13.7945812 7.475302,1.5241859 14.485201,6.9335812 17.489821,13.4965342 6.102301,13.329182 0.791562,30.769472 -11.153147,36.62656 -3.007448,1.474702 -4.191628,1.688 -10.073343,1.814441 -4.614837,0.09921 -7.361911,-0.122445 -8.929865,-0.720523 z"
         style="fill:#cccccc;fill-opacity:1;stroke:#000000;stroke-width:0;stroke-miterlimit:4;stroke-dasharray:none;stroke-opacity:0.32460734" />
      <path
         style="fill:#cccccc;fill-opacity:1;stroke:#000000;stroke-width:0;stroke-miterlimit:4;stroke-dasharray:none;stroke-opacity:0.32460734"
         d="m 9.6409132,118.99108 c 0.154825,-0.7588 0.4464188,-3.97 0.6479868,-7.136 1.001006,-15.722619 6.784743,-32.266986 15.538249,-44.447118 1.711681,-2.381731 3.344662,-4.585029 3.628847,-4.896218 0.304661,-0.333609 2.387382,1.44781 5.07518,4.340964 4.897839,5.272052 8.97406,7.826174 11.350422,7.112067 0.758914,-0.228056 3.318991,-1.884803 5.68906,-3.68166 4.505335,-3.415698 5.89176,-3.839846 7.845098,-2.400043 1.072898,0.790831 0.960738,0.838474 -1.27714,0.542496 -2.066933,-0.273368 -2.769311,-0.05859 -4.459546,1.363644 -1.866508,1.570564 -1.982281,1.880891 -1.662561,4.456444 0.189008,1.52258 0.610692,3.99534 0.937074,5.495022 0.424418,1.950147 0.346891,4.624924 -0.272225,9.391949 -1.372334,10.566616 -1.201205,14.096153 0.838882,17.301923 2.078055,3.26543 3.438016,4.45386 4.59058,4.01158 0.476812,-0.18297 1.958204,-2.19033 3.291983,-4.4608 l 2.425053,-4.12813 -1.211421,-7.574149 C 61.432312,86.879573 61.410953,83.655359 62.481166,73.86408 l 0.344293,-3.149904 3.204469,2.127648 c 3.168725,2.103916 3.229518,2.11718 5.450459,1.189212 3.96247,-1.655624 7.741596,-5.295052 12.267782,-11.814287 0.333342,-0.48012 3.04524,2.439203 4.120273,4.435418 l 1.074427,1.995093 -8.791768,18.119802 C 75.315635,96.732954 69.623399,108.3634 67.501699,112.6125 l -3.85764,7.72564 -15.24802,0 -15.24802,0 -0.397312,-8.9375 c -0.218522,-4.91563 -0.650028,-9.55101 -0.958901,-10.30085 -0.60857,-1.477408 -2.63434,-1.835275 -3.429986,-0.60593 -0.269615,0.41657 -0.626545,4.98379 -0.793176,10.14936 l -0.302966,9.39195 -8.953132,0.16777 -8.9531326,0.16777 0.2814998,-1.37963 z"
         id="path4887"
         inkscape:connector-curvature="0" />
      <path
         style="fill:#cccccc;fill-opacity:1;stroke:#000000;stroke-width:0;stroke-miterlimit:4;stroke-dasharray:none;stroke-opacity:0.32460734"
         d="m 85.179604,129.44006 c -16.72515,-8.33642 -16.984282,-8.49395 -16.418792,-9.98131 3.403063,-8.95073 25.322946,-52.442648 26.431044,-52.442648 1.08154,0 23.708074,10.984442 25.387384,12.324746 1.20821,0.964303 1.20807,0.967279 -0.0459,0.986492 -2.16819,0.03322 -5.10456,4.027629 -5.10456,6.943855 0,1.782966 3.73823,4.854142 6.70035,5.504733 0.98049,0.215351 1.7827,0.643342 1.7827,0.95109 0,1.365869 -20.81212,44.183152 -21.47602,44.183152 -0.14459,0 -7.909893,-3.81155 -17.256236,-8.47011 z m 19.342426,1.44753 c 0,-0.89091 0.58931,-2.05416 1.36335,-2.69117 l 1.36335,-1.12198 -1.51483,-1.5326 c -0.83316,-0.84294 -4.65053,-3.1702 -8.483053,-5.1717 -5.978879,-3.12242 -6.685851,-3.64112 -4.979415,-3.65335 1.409173,-0.0101 2.115994,-0.35807 2.425206,-1.19395 0.413937,-1.11898 0.71702,-1.05476 5.887722,1.24746 2.99823,1.33494 6.40594,2.47932 7.57268,2.54305 1.97866,0.10809 2.13412,-0.0166 2.31122,-1.85339 0.11761,-1.21981 0.52118,-1.96928 1.06038,-1.96928 0.55546,0 0.87051,-0.63233 0.87051,-1.74713 0,-1.27258 0.35024,-1.83871 1.28947,-2.08433 0.99663,-0.26062 1.22344,-0.68259 0.99873,-1.85811 -0.17632,-0.92232 0.0208,-1.64047 0.50095,-1.82471 1.24367,-0.47723 3.40893,-5.22349 3.10597,-6.80829 -0.16856,-0.8818 0.0146,-1.431669 0.477,-1.431669 0.41288,0 1.10246,-0.423872 1.53242,-0.941937 1.27711,-1.538827 -0.79764,-3.006427 -12.86976,-9.103591 -10.110459,-5.106399 -10.904316,-5.620248 -8.971218,-5.806902 1.636488,-0.158013 2.120758,-0.477263 2.120758,-1.398064 0,-0.852456 -1.096805,-1.761074 -3.840013,-3.181144 -4.301181,-2.226583 -6.621831,-2.527373 -7.155603,-0.927472 -0.194575,0.583209 -2.142689,4.812606 -4.329143,9.398659 -3.841529,8.057549 -3.93608,8.368003 -2.808354,9.221195 1.096947,0.829906 1.04423,0.884075 -0.878005,0.902189 -1.929726,0.01818 -2.02524,0.118181 -1.694141,1.773673 0.285926,1.429633 0.116373,1.815723 -0.915915,2.085673 -1.039144,0.27175 -1.202479,0.65286 -0.908899,2.12077 0.287517,1.43758 0.125056,1.85037 -0.826139,2.09912 -0.785548,0.20542 -1.184038,0.83137 -1.184038,1.85987 0,0.93009 -0.484784,1.80969 -1.211864,2.19881 -0.793528,0.42468 -1.211864,1.26871 -1.211864,2.44505 0,1.19291 -0.305364,1.79647 -0.908899,1.79647 -0.541748,0 -0.908898,0.55723 -0.908898,1.37944 0,1.71485 2.419321,3.33967 13.027542,8.74929 10.17294,5.18765 16.620393,8.01341 18.329453,8.03334 1.06696,0.0124 1.36334,-0.32523 1.36334,-1.55329 z"
         id="path4889"
         inkscape:connector-curvature="0" />
    </g>
  </g>
</svg>
