<?xml version="1.0" encoding="UTF-8" standalone="no"?>
<!-- Created with Inkscape (http://www.inkscape.org/) -->

<svg
   xmlns:dc="http://purl.org/dc/elements/1.1/"
   xmlns:cc="http://creativecommons.org/ns#"
   xmlns:rdf="http://www.w3.org/1999/02/22-rdf-syntax-ns#"
   xmlns:svg="http://www.w3.org/2000/svg"
   xmlns="http://www.w3.org/2000/svg"
   xmlns:sodipodi="http://sodipodi.sourceforge.net/DTD/sodipodi-0.dtd"
   xmlns:inkscape="http://www.inkscape.org/namespaces/inkscape"
   id="svg2"
   version="1.1"
   inkscape:version="0.91 r13725"
   width="32"
   height="32"
   viewBox="0 0 32.000001 32"
   sodipodi:docname="available-startups.svg">
  <metadata
     id="metadata8">
    <rdf:RDF>
      <cc:Work
         rdf:about="">
        <dc:format>image/svg+xml</dc:format>
        <dc:type
           rdf:resource="http://purl.org/dc/dcmitype/StillImage" />
        <dc:title></dc:title>
      </cc:Work>
    </rdf:RDF>
  </metadata>
  <defs
     id="defs6" />
  <sodipodi:namedview
     pagecolor="#ffffff"
     bordercolor="#666666"
     borderopacity="1"
     objecttolerance="10"
     gridtolerance="10"
     guidetolerance="10"
     inkscape:pageopacity="0"
     inkscape:pageshadow="2"
     inkscape:window-width="1872"
     inkscape:window-height="1059"
     id="namedview4"
     showgrid="false"
     fit-margin-top="0"
     fit-margin-left="0"
     fit-margin-right="0"
     fit-margin-bottom="0"
     inkscape:zoom="18.509804"
     inkscape:cx="20.252801"
     inkscape:cy="13.035654"
     inkscape:window-x="48"
     inkscape:window-y="21"
     inkscape:window-maximized="1"
     inkscape:current-layer="svg2" />
  <path
     style="fill:#cccccc;fill-opacity:1;stroke:#000000;stroke-width:0.4;stroke-miterlimit:4;stroke-dasharray:none;stroke-opacity:1"
     d="M 0.12137066,23.797513 C 0.25751493,22.101468 0.90831153,20.391598 1.7515658,19.514429 2.5804105,18.652249 2.7621212,18.869038 2.2261675,20.080648 1.9551039,20.693434 1.6702007,21.806406 1.593051,22.553919 L 1.4527765,23.913032 2.811891,23.772759 C 3.5594023,23.695609 4.6723759,23.410706 5.2851602,23.139642 6.4967725,22.603689 6.713561,22.7854 5.8513796,23.614245 4.9742116,24.457498 3.2643415,25.108294 1.5682964,25.244438 L -0.00491072,25.37072 0.12137066,23.797513 Z M 9.9836169,24.388959 C 9.9273668,24.286319 9.7383161,23.507419 9.5635069,22.65807 9.3886953,21.808721 9.108273,21.061075 8.9403483,20.996636 8.7724237,20.932197 8.2828669,21.061584 7.8524484,21.284163 7.0847341,21.681163 7.0511759,21.675312 6.0860698,20.976194 5.5449825,20.584232 4.7815786,19.820827 4.3896156,19.279739 3.6904982,18.314634 3.6846463,18.281076 4.0816454,17.513362 4.304225,17.082942 4.4324522,16.590367 4.3665974,16.418751 4.3007426,16.247134 3.5243416,15.970391 2.6412608,15.803766 1.75818,15.637141 0.98739721,15.422721 0.92840988,15.327278 0.86942256,15.231835 1.3445503,14.508616 1.9842494,13.720124 l 1.1630867,-1.433621 2.065265,0.07138 2.0652627,0.07138 2.5824086,-3.0022288 c 4.3423896,-5.0483261 5.8687586,-6.316104 8.9589666,-7.4411767 1.539494,-0.5604938 5.270377,-1.20884224 5.519966,-0.9592532 0.24959,0.2495891 -0.398759,3.980472 -0.959253,5.5199654 -1.123986,3.0872226 -2.394103,4.6175973 -7.421225,8.9418893 l -2.982277,2.565332 0.135166,1.9784 c 0.07434,1.088119 0.04652,2.087987 -0.06182,2.221927 -0.221082,0.273312 -2.232077,1.890374 -2.676323,2.152058 -0.158171,0.09317 -0.333606,0.08542 -0.3898561,-0.01722 z M 18.48808,9.6747155 C 19.092358,9.0069966 19.040499,7.6337052 18.3863,6.9795082 17.366963,5.9601709 15.326507,6.5025269 15.109362,7.8505224 c -0.319394,1.982747 2.06849,3.2719806 3.378718,1.8241931 z"
     id="path4138"
     inkscape:connector-curvature="0"
     inkscape:transform-center-x="25.067797" />
  <path
     style="fill:#cccccc;fill-opacity:1;stroke:#000000;stroke-width:0.4;stroke-miterlimit:4;stroke-dasharray:none;stroke-opacity:1"
     d="m 6.6980654,24.272807 c 0.1361442,-1.696046 0.7869408,-3.405916 1.6301951,-4.283084 0.8288447,-0.86218 1.0105554,-0.645392 0.4746017,0.566219 -0.2710636,0.612786 -0.5559668,1.725757 -0.6331165,2.47327 l -0.1402745,1.359113 1.3591145,-0.140273 c 0.7475113,-0.07715 1.8604853,-0.362053 2.4732693,-0.633117 1.211612,-0.535953 1.4284,-0.354242 0.566219,0.474603 -0.877168,0.843254 -2.5870378,1.494049 -4.2830829,1.630194 L 6.571784,25.846013 6.6980654,24.272807 Z m 9.8622456,0.591446 c -0.05625,-0.102641 -0.2453,-0.881541 -0.42011,-1.73089 -0.174811,-0.849349 -0.455234,-1.596994 -0.623158,-1.661433 -0.167925,-0.06444 -0.657482,0.06495 -1.0879,0.287526 -0.767715,0.397 -0.801273,0.391149 -1.766379,-0.307969 -0.541087,-0.391962 -1.304491,-1.155367 -1.696454,-1.696454 -0.699117,-0.965106 -0.704969,-0.998664 -0.30797,-1.766378 0.22258,-0.43042 0.350807,-0.922995 0.284952,-1.094611 C 10.877437,16.722428 10.101036,16.445684 9.2179555,16.27906 8.3348747,16.112434 7.5640919,15.898015 7.5051046,15.802572 7.4461172,15.707129 7.921245,14.983909 8.560944,14.195418 l 1.1630868,-1.433622 2.0652652,0.07138 2.065262,0.07138 2.582409,-3.0022284 c 4.342389,-5.0483261 5.868759,-6.316104 8.958967,-7.4411768 1.539493,-0.5604938 5.270377,-1.2088422 5.519966,-0.9592531 0.249589,0.249589 -0.39876,3.9804719 -0.959254,5.5199653 -1.123986,3.087223 -2.394103,4.617598 -7.421225,8.941889 l -2.982276,2.565332 0.135165,1.9784 c 0.07434,1.08812 0.04652,2.087987 -0.06182,2.221927 -0.221081,0.273312 -2.232076,1.890375 -2.676322,2.152059 -0.158172,0.09317 -0.333607,0.08542 -0.389857,-0.01722 z M 25.064775,10.150009 C 25.669053,9.48229 25.617194,8.1089985 24.962995,7.4548015 23.943658,6.4354642 21.903201,6.9778203 21.686057,8.3258158 c -0.319394,1.9827472 2.068489,3.2719812 3.378718,1.8241932 z"
     id="path4138-7"
     inkscape:connector-curvature="0"
     inkscape:transform-center-x="25.067797" />
  <path
     style="fill:#cccccc;fill-opacity:1;stroke:#000000;stroke-width:0.4;stroke-miterlimit:4;stroke-dasharray:none;stroke-opacity:1"
     d="m 7.6453474,29.324979 c 0.1361443,-1.696046 0.7869409,-3.405916 1.6301951,-4.283084 0.8288445,-0.86218 1.0105555,-0.645392 0.4746018,0.566218 -0.2710636,0.612786 -0.5559669,1.725758 -0.6331165,2.473271 l -0.1402745,1.359113 1.3591147,-0.140273 c 0.747511,-0.07715 1.860485,-0.362053 2.473269,-0.633117 1.211612,-0.535953 1.428401,-0.354242 0.566219,0.474603 -0.877168,0.843254 -2.587038,1.494049 -4.2830828,1.630193 L 7.519066,30.898185 7.6453474,29.324979 Z m 9.8622456,0.591446 c -0.05625,-0.102641 -0.2453,-0.881541 -0.42011,-1.73089 -0.174811,-0.849349 -0.455234,-1.596994 -0.623158,-1.661434 -0.167925,-0.06444 -0.657482,0.06495 -1.0879,0.287527 -0.767714,0.397 -0.801273,0.391149 -1.766378,-0.307969 -0.541088,-0.391962 -1.304492,-1.155367 -1.696455,-1.696454 -0.699117,-0.965106 -0.704969,-0.998664 -0.30797,-1.766378 0.22258,-0.43042 0.350807,-0.922995 0.284952,-1.094611 C 11.824719,21.7746 11.048318,21.497856 10.165238,21.331231 9.2821567,21.164606 8.5113739,20.950186 8.4523866,20.854743 8.3933993,20.7593 8.8685271,20.036081 9.5082261,19.247589 l 1.1630869,-1.433621 2.065265,0.07138 2.065262,0.07138 2.582409,-3.002228 c 4.342389,-5.0483269 5.868759,-6.3161045 8.958967,-7.4411772 1.539493,-0.5604938 5.270377,-1.2088422 5.519966,-0.9592532 0.249589,0.249589 -0.39876,3.9804714 -0.959254,5.5199654 -1.123986,3.087223 -2.394103,4.617597 -7.421225,8.941889 l -2.982276,2.565332 0.135165,1.9784 c 0.07434,1.08812 0.04652,2.087987 -0.06182,2.221927 -0.221082,0.273312 -2.232077,1.890375 -2.676323,2.152059 -0.158172,0.09317 -0.333607,0.08542 -0.389857,-0.01722 z m 8.504464,-14.714244 c 0.604278,-0.667719 0.552419,-2.041011 -0.10178,-2.695208 -1.019337,-1.019337 -3.059794,-0.476981 -3.276938,0.871014 -0.319394,1.982748 2.068489,3.271981 3.378718,1.824194 z"
     id="path4138-5"
     inkscape:connector-curvature="0"
     inkscape:transform-center-x="25.067797" />
</svg>
