<?xml version="1.0" encoding="UTF-8" standalone="no"?>
<!-- Created with Inkscape (http://www.inkscape.org/) -->

<svg
   xmlns:dc="http://purl.org/dc/elements/1.1/"
   xmlns:cc="http://creativecommons.org/ns#"
   xmlns:rdf="http://www.w3.org/1999/02/22-rdf-syntax-ns#"
   xmlns:svg="http://www.w3.org/2000/svg"
   xmlns="http://www.w3.org/2000/svg"
   xmlns:sodipodi="http://sodipodi.sourceforge.net/DTD/sodipodi-0.dtd"
   xmlns:inkscape="http://www.inkscape.org/namespaces/inkscape"
   id="svg3036"
   version="1.1"
   inkscape:version="0.48.4 r9939"
   width="24"
   height="24"
   sodipodi:docname="flow-diagram.svg">
  <metadata
     id="metadata3042">
    <rdf:RDF>
      <cc:Work
         rdf:about="">
        <dc:format>image/svg+xml</dc:format>
        <dc:type
           rdf:resource="http://purl.org/dc/dcmitype/StillImage" />
        <dc:title />
      </cc:Work>
    </rdf:RDF>
  </metadata>
  <defs
     id="defs3040" />
  <sodipodi:namedview
     pagecolor="#ffffff"
     bordercolor="#666666"
     borderopacity="1"
     objecttolerance="10"
     gridtolerance="10"
     guidetolerance="10"
     inkscape:pageopacity="0"
     inkscape:pageshadow="2"
     inkscape:window-width="1863"
     inkscape:window-height="1059"
     id="namedview3038"
     showgrid="false"
     inkscape:zoom="20.240931"
     inkscape:cx="21.277008"
     inkscape:cy="8.974849"
     inkscape:window-x="57"
     inkscape:window-y="21"
     inkscape:window-maximized="1"
     inkscape:current-layer="svg3036" />
  <path
     style="fill:#686868;fill-opacity:1"
     d="M 10.317823,23.804347 C 9.7665454,23.671209 9.4219767,23.245086 9.4219767,22.69648 c 0,-0.457908 0.2167991,-0.801543 0.6460633,-1.024028 0.182485,-0.09458 0.297359,-0.105864 1.323839,-0.130073 0.618208,-0.01457 1.093335,-0.0308 1.055833,-0.03601 -0.108416,-0.01506 -0.84152,-0.723734 -0.907882,-0.877613 -0.126435,-0.293191 0.189452,-0.609733 0.481104,-0.482095 0.06875,0.03008 0.135174,0.05469 0.147621,0.05469 0.01243,0 0.02265,-0.32554 0.02265,-0.723427 l 0,-0.723431 -0.148647,-0.142778 c -0.311861,-0.299541 -0.310434,-0.759788 0.0032,-1.061117 l 0.145361,-0.139618 0,-1.271003 c 0,-1.247641 0.01929,-1.42101 0.168439,-1.514025 0.06856,-0.04274 0.125959,-0.02473 -1.267475,-0.398282 -1.4303101,-0.383446 -1.5854051,-0.436436 -1.6246045,-0.555068 -0.038805,-0.117411 -0.1083617,-0.119394 -0.1464316,-0.004 -0.061639,0.186525 -0.2082707,0.199209 -2.3027486,0.199209 l -2.0208731,0 0,0.863686 c 0,0.475031 0.010161,0.863692 0.022645,0.863692 0.012431,0 0.078869,-0.0246 0.1476151,-0.0547 0.2551932,-0.11168 0.5923847,0.171581 0.5080517,0.426792 -0.016592,0.0502 -0.2404063,0.289308 -0.4973668,0.531349 l -0.4672093,0.440073 1.3647146,0 c 1.4458588,0 1.5652458,0.01605 1.6636469,0.22347 0.074313,0.156656 0.074313,1.699569 0,1.856224 -0.030482,0.06431 -0.1102425,0.140898 -0.1771944,0.1702 -0.084663,0.03703 -0.9875022,0.05327 -2.9645388,0.05327 -1.9770367,0 -2.8798762,-0.01622 -2.9645335,-0.05327 -0.1564408,-0.06846 -0.2326669,-0.23253 -0.2326669,-0.500785 l 0,-0.213666 -0.42227559,0 c -0.47247869,0 -0.63979357,-0.05184 -0.72120805,-0.22347 -0.0785288,-0.165547 -0.0785288,-9.3679032 0,-9.5334504 0.0304817,-0.064305 0.11024789,-0.1408928 0.17719978,-0.1701951 0.0857328,-0.037527 1.22165536,-0.053274 3.84111756,-0.053274 2.0456639,0 3.7193904,-0.00976 3.7193904,-0.021751 0,-0.011945 -0.025618,-0.075759 -0.056948,-0.1417885 C 7.8165068,8.0743066 8.1184604,7.7618191 8.403249,7.8486392 8.5427302,7.8911579 9.1697312,8.4594331 9.3003111,8.6616761 l 0.092942,0.1439501 2e-4,-0.3696087 c 2e-4,-0.4188586 0.057315,-0.5799088 0.2328507,-0.6567283 0.07982,-0.03494 0.5981942,-0.053338 1.5056652,-0.05345 1.369768,-1.916e-4 1.382404,-8.84e-4 1.234064,-0.08945 -0.210562,-0.1254194 -0.802206,-0.7276518 -0.846475,-0.861619 -0.09039,-0.2735407 0.234948,-0.5635667 0.501388,-0.4469622 0.06874,0.030084 0.135169,0.054694 0.147615,0.054694 0.01243,0 0.02265,-0.1494849 0.02265,-0.3321858 0,-0.3028343 -0.01286,-0.3445264 -0.145362,-0.4718086 -0.313765,-0.3013683 -0.313613,-0.7899962 3.44e-4,-1.0716748 l 0.144999,-0.1301255 0,-1.0079622 0,-1.0079579 -0.961658,-0.017203 c -1.040148,-0.018584 -1.138208,-0.040244 -1.4533002,-0.3209954 -0.4773752,-0.4253122 -0.4773752,-1.21913227 0,-1.64444445 0.3547402,-0.3160577 0.2562422,-0.30537063 2.8146102,-0.30537063 2.558369,0 2.45987,-0.01069598 2.814611,0.30537063 0.479699,0.42738455 0.479699,1.21705985 0,1.64444445 -0.315092,0.2807383 -0.413153,0.3023932 -1.453301,0.3209952 l -0.961658,0.017203 0,1.0069105 0,1.0069104 0.148647,0.142778 c 0.31186,0.2995408 0.310434,0.7597888 -0.0032,1.0611168 -0.132519,0.1272821 -0.145362,0.1689742 -0.145362,0.4718085 0,0.1827009 0.01016,0.3321858 0.02264,0.3321858 0.01243,0 0.07888,-0.024604 0.147621,-0.0547 0.266435,-0.1165997 0.591774,0.1734221 0.501387,0.4469669 -0.04426,0.1339672 -0.635918,0.7361955 -0.84648,0.861619 -0.148334,0.088358 -0.135703,0.089272 1.234065,0.08945 1.465947,1.915e-4 1.584323,0.015911 1.682865,0.2236484 0.07431,0.1566605 0.07431,1.699569 0,1.8562294 -0.09711,0.2047073 -0.224771,0.2234693 -1.520507,0.2234693 l -1.221574,0 0,0.479827 c 0,0.263905 0.01016,0.479825 0.02264,0.479825 0.01243,0 0.07888,-0.0246 0.147621,-0.0547 0.255193,-0.11168 0.592384,0.171581 0.508052,0.426796 -0.01659,0.0502 -0.243828,0.292526 -0.504972,0.538502 -0.261143,0.245981 -0.468798,0.451205 -0.461448,0.456054 0.0073,0.0048 0.631568,0.177327 1.38716,0.383282 1.533381,0.417968 1.584724,0.435665 1.625983,0.560514 0.03756,0.113698 0.107486,0.113698 0.145053,0 0.0161,-0.04877 0.08613,-0.113552 0.155587,-0.143946 0.174298,-0.07628 4.560715,-0.07812 4.734672,-0.0018 0.210805,0.09225 0.232662,0.220453 0.232662,1.364473 0,0.592544 0.01016,1.077352 0.02264,1.077352 0.01243,0 0.07888,-0.0246 0.147621,-0.0547 0.255192,-0.111679 0.592384,0.171578 0.508051,0.426792 -0.01659,0.0502 -0.240406,0.289309 -0.497372,0.53135 l -0.467204,0.440073 1.364715,0 c 1.445853,0 1.565246,0.01605 1.663646,0.223469 0.07431,0.156657 0.07431,1.699569 0,1.856225 -0.03048,0.06431 -0.110247,0.140898 -0.177199,0.1702 -0.170974,0.07482 -5.758093,0.07482 -5.929073,0 -0.156435,-0.06846 -0.232661,-0.232531 -0.232661,-0.500786 l 0,-0.213665 -1.29886,0 c -0.714376,0 -1.298865,0.0098 -1.298865,0.02175 0,0.01195 0.02611,0.07673 0.05798,0.143946 0.113176,0.238582 -0.169543,0.5498 -0.440177,0.484559 -0.145545,-0.03508 -0.777961,-0.593007 -0.917399,-0.809333 l -0.08708,-0.1351 -0.110826,0.219883 c -0.06095,0.120936 -0.153593,0.241872 -0.205865,0.268745 -0.08713,0.04479 -0.09505,0.110628 -0.09505,0.790896 0,0.408128 0.01016,0.742043 0.02264,0.742043 0.01243,0 0.07888,-0.0246 0.14762,-0.0547 0.291653,-0.127634 0.607539,0.188905 0.481105,0.482095 -0.06636,0.153879 -0.799466,0.862542 -0.907882,0.877614 -0.03751,0.0052 0.437625,0.02139 1.055832,0.03601 1.02648,0.0242 1.141355,0.03548 1.32384,0.130076 0.428583,0.222129 0.642776,0.563366 0.642776,1.024024 0,0.460658 -0.214193,0.801896 -0.642776,1.024024 -0.19543,0.101287 -0.248756,0.103751 -2.422876,0.111804 -1.222683,0.0045 -2.290497,-0.0081 -2.372922,-0.02794 z m 3.602608,-6.390931 c 0.189225,-0.174273 0.396259,-0.332775 0.460075,-0.352233 0.170023,-0.05183 0.390016,0.05479 0.463205,0.224509 0.05372,0.124635 0.05097,0.167758 -0.01838,0.283782 l -0.08175,0.13681 1.321517,0 1.321515,0 0,-0.213665 c 0,-0.26825 0.07622,-0.432322 0.232662,-0.500781 0.07982,-0.03494 0.5982,-0.05334 1.505665,-0.05345 1.369774,-1.96e-4 1.382404,-8.84e-4 1.23407,-0.08945 -0.210562,-0.125423 -0.802211,-0.727656 -0.84648,-0.861623 -0.09039,-0.273541 0.234947,-0.563567 0.501388,-0.446963 0.06875,0.03008 0.135173,0.0547 0.147615,0.0547 0.01243,0 0.02264,-0.388661 0.02264,-0.863691 l 0,-0.863687 -2.020879,0 c -2.094473,0 -2.241105,-0.0127 -2.302744,-0.199213 -0.03783,-0.114478 -0.107562,-0.113466 -0.145756,0.0022 -0.03984,0.120516 -0.09928,0.140999 -1.550345,0.534103 -0.6869,0.186083 -1.27869,0.348266 -1.315084,0.360401 -0.0501,0.01671 -0.04096,0.05286 0.03745,0.148626 0.0991,0.121011 0.103649,0.183587 0.103649,1.428064 0,1.266809 0.0027,1.303175 0.104049,1.363924 0.05723,0.03432 0.149285,0.160628 0.204563,0.280658 l 0.100509,0.218248 0.08839,-0.137168 c 0.04859,-0.07544 0.243212,-0.279749 0.432437,-0.454022 z m -12.5197995,0.0792 c 0,-0.26825 0.076226,-0.432322 0.2326669,-0.500781 0.07982,-0.03494 0.5981945,-0.05334 1.5056659,-0.05345 1.3697678,-1.96e-4 1.3823982,-8.84e-4 1.2340643,-0.08945 -0.2105622,-0.125423 -0.8022064,-0.727656 -0.8464807,-0.861623 -0.090386,-0.273541 0.2349531,-0.563567 0.5013878,-0.446963 0.068746,0.03008 0.1351738,0.0547 0.1476205,0.0547 0.01243,0 0.022645,-0.484808 0.022645,-1.077353 0,-1.144019 0.021834,-1.272219 0.2326615,-1.364472 0.1739571,-0.07613 4.5603746,-0.07429 4.7346721,0.0018 0.069454,0.0304 0.1394651,0.09517 0.1555869,0.143945 0.037562,0.113699 0.1074808,0.113699 0.1450534,0 0.041237,-0.124849 0.092602,-0.142546 1.6259829,-0.560513 0.755592,-0.205956 1.385036,-0.38461 1.398774,-0.397013 0.01373,-0.01239 -0.0088,-0.03369 -0.04994,-0.04735 -0.130865,-0.04331 -0.838486,-0.732907 -0.901131,-0.878163 -0.126434,-0.29319 0.189452,-0.609729 0.481105,-0.482095 0.06875,0.03008 0.135173,0.0547 0.14762,0.0547 0.01243,0 0.02264,-0.215925 0.02264,-0.479826 l 0,-0.479826 -1.221574,0 c -0.788873,0 -1.2646978,-0.01885 -1.3433127,-0.053274 C 9.4508101,9.8987598 9.3937108,9.7377096 9.3935,9.318851 L 9.3933,8.9492423 9.300357,9.0931924 C 9.1697777,9.2954354 8.5427768,9.8637082 8.4032954,9.9062293 8.1185014,9.9930453 7.8165533,9.6805619 7.9379508,9.4246475 7.9692971,9.3586218 7.9949096,9.294816 7.9949096,9.282863 c 0,-0.011945 -1.5736229,-0.021751 -3.4969327,-0.021751 l -3.496938,0 0,4.222473 0,4.222474 0.1998233,0 0.1998233,0 0,-0.213666 z"
     id="path3046"
     inkscape:connector-curvature="0" />
</svg>
