<?xml version="1.0" encoding="UTF-8" standalone="no"?>
<!-- Created with Inkscape (http://www.inkscape.org/) -->

<svg
   xmlns:dc="http://purl.org/dc/elements/1.1/"
   xmlns:cc="http://creativecommons.org/ns#"
   xmlns:rdf="http://www.w3.org/1999/02/22-rdf-syntax-ns#"
   xmlns:svg="http://www.w3.org/2000/svg"
   xmlns="http://www.w3.org/2000/svg"
   xmlns:sodipodi="http://sodipodi.sourceforge.net/DTD/sodipodi-0.dtd"
   xmlns:inkscape="http://www.inkscape.org/namespaces/inkscape"
   id="svg2"
   version="1.1"
   inkscape:version="0.91 r13725"
   width="32"
   height="32"
   viewBox="0 0 32 32"
   sodipodi:docname="investors-menu.svg">
  <metadata
     id="metadata8">
    <rdf:RDF>
      <cc:Work
         rdf:about="">
        <dc:format>image/svg+xml</dc:format>
        <dc:type
           rdf:resource="http://purl.org/dc/dcmitype/StillImage" />
        <dc:title></dc:title>
      </cc:Work>
    </rdf:RDF>
  </metadata>
  <defs
     id="defs6" />
  <sodipodi:namedview
     pagecolor="#ffffff"
     bordercolor="#666666"
     borderopacity="1"
     objecttolerance="10"
     gridtolerance="10"
     guidetolerance="10"
     inkscape:pageopacity="0"
     inkscape:pageshadow="2"
     inkscape:window-width="1872"
     inkscape:window-height="1059"
     id="namedview4"
     showgrid="false"
     inkscape:zoom="20.85965"
     inkscape:cx="23.806305"
     inkscape:cy="14.294722"
     inkscape:window-x="48"
     inkscape:window-y="21"
     inkscape:window-maximized="1"
     inkscape:current-layer="svg2" />
  <path
     style="fill:#cccccc;fill-opacity:1;stroke:#000000;stroke-opacity:1;stroke-width:0.5;stroke-miterlimit:4;stroke-dasharray:none"
     d="m 1.8989661,31.314384 c -0.2258,-0.0656 -0.44256,-0.28253 -0.49387,-0.49422 -0.0196,-0.0809 0.13604,-0.8547 0.34587,-1.71964 0.20983,-0.86493 0.50931,-2.22259 0.66551,-3.017 0.1562,-0.79442 0.31538,-1.59684 0.35372,-1.78315 0.30687,-1.49106 1.9066,-2.95611 4.4376403,-4.06403 0.81999,-0.35894 2.3448703,-0.88523 3.2887906,-1.13508 0.96099,-0.25436 1.46348,-0.49512 1.77717,-0.8515 0.29742,-0.33788 0.39919,-0.64302 0.39919,-1.19693 0,-0.55094 -0.14191,-1.00354 -0.38791,-1.23722 -1.12236,-1.06616 -1.9531,-2.97893 -2.26452,-5.21407 -0.0607,-0.435501 -0.1771503,-1.1082205 -0.2588103,-1.4949305 -0.23931,-1.1332497 -0.30617,-1.8715997 -0.26556,-2.9323897 0.0456,-1.19121 0.18869,-1.81613 0.6176603,-2.69759 0.27521,-0.56553 0.37972,-0.7069 0.85535,-1.15713 1.7444,-1.65121001 4.5679,-2.01804001 7.089,-0.921 0.32521,0.14152 0.73006,0.2876 0.89967,0.32463 0.50245,0.1097 0.94359,0.37379 1.38757,0.83068 0.51363,0.52857 0.78549,1.02656 1.00364,1.83847 0.15781,0.58741 0.16764,0.7103 0.16996,2.12557 0.002,1.52885 -0.0925,2.4161897 -0.3763,3.5153892 -0.05,0.19347 -0.16572,0.736631 -0.25727,1.207031 -0.37688,1.93654 -1.01533,3.34559 -1.96319,4.33269 -0.32302,0.33638 -0.39823,0.45927 -0.47139,0.77018 -0.24992,1.06214 0.0552,1.90192 0.84771,2.33327 0.17131,0.0932 0.72815,0.28467 1.23742,0.4254 4.1707,1.15252 6.7934,2.77607 7.5386,4.66669 0.0695,0.17617 0.21561,0.80333 0.32481,1.3937 0.22545,1.2188 0.65054,3.15226 0.98545,4.48215 0.31729,1.25994 0.30224,1.39655 -0.17779,1.61451 -0.25888,0.11753 -0.65082,0.12087 -13.68967,0.11664 -7.6149706,-0.002 -13.5076609,-0.0289 -13.6184509,-0.0611 z m 12.8200309,-5.81234 c 0.17904,-1.17772 0.34858,-2.21322 0.37675,-2.30111 0.0436,-0.13582 0.002,-0.2159 -0.27491,-0.53355 -0.17938,-0.20555 -0.373,-0.43323 -0.43027,-0.50595 -0.10233,-0.12992 -0.11647,-0.12125 -0.81755,0.50158 -0.39239,0.34859 -0.77698,0.66102 -0.85467,0.6943 -0.0777,0.0333 -0.15181,0.0678 -0.16472,0.0767 -0.0129,0.009 0.37466,1.01237 0.86125,2.22986 0.62937,1.57471 0.89827,2.17982 0.93166,2.09653 0.0258,-0.0644 0.19342,-1.08067 0.37246,-2.2584 z m 2.9801,0.0779 0.83951,-2.14874 -0.16828,-0.12824 c -0.0925,-0.0705 -0.4488,-0.38123 -0.79166,-0.69044 -0.34286,-0.30921 -0.64826,-0.5622 -0.67865,-0.5622 -0.10685,0 -0.90661,0.98557 -0.8723,1.07497 0.033,0.0861 0.73614,4.51678 0.73614,4.63889 0,0.17203 0.16743,-0.21902 0.93524,-2.18424 z m -3.91056,-4.38573 c 0.82391,-0.72847 0.91901,-0.83285 0.81914,-0.89903 -0.0621,-0.0412 -0.44761,-0.26747 -0.8566,-0.50287 l -0.74361,-0.42799 -0.34302,0.23223 c -0.18866,0.12772 -0.42212,0.26028 -0.5188,0.29457 -0.0967,0.0343 -0.17578,0.0892 -0.17578,0.12203 0,0.0328 0.1471,0.43989 0.3269,0.9046 0.1798,0.46471 0.35256,0.91199 0.38391,0.99395 0.0314,0.082 0.0837,0.13948 0.11638,0.12784 0.0326,-0.0117 0.47882,-0.39205 0.99148,-0.84533 z m 5.05332,-0.0548 c 0.20096,-0.50097 0.37871,-0.94449 0.39499,-0.98561 0.0166,-0.0419 -0.1009,-0.13249 -0.26691,-0.20592 -0.16309,-0.0721 -0.42563,-0.2183 -0.58343,-0.3248 l -0.2869,-0.19362 -0.68386,0.39303 c -0.37612,0.21618 -0.73467,0.42778 -0.79677,0.47023 -0.10045,0.0687 -0.01,0.16997 0.82265,0.91737 0.51457,0.4621 0.95792,0.84018 0.98521,0.84018 0.0273,0 0.21405,-0.40988 0.41502,-0.91086 z m -2.30172,-1.90778 c 0.49218,-0.28439 0.90244,-0.52437 0.91169,-0.53327 0.009,-0.009 -0.0567,-0.21142 -0.14648,-0.45002 -0.0964,-0.25598 -0.17919,-0.63994 -0.20207,-0.93666 -0.0213,-0.27656 -0.0466,-0.50283 -0.0561,-0.50283 -0.01,0 -0.19942,0.0477 -0.42198,0.10599 -0.65303,0.17104 -1.84978,0.13455 -2.55301,-0.0778 -0.0876,-0.0264 -0.1077,0.0526 -0.13501,0.52969 -0.022,0.38395 -0.0779,0.66718 -0.17746,0.89829 -0.0799,0.18564 -0.13424,0.34721 -0.12067,0.35905 0.0582,0.0507 1.94219,1.12512 1.97263,1.12492 0.0185,-1.3e-4 0.43628,-0.23291 0.92846,-0.51731 z m 0.0685,-3.64389 c 1.20965,-0.37188 2.17208,-1.55427 2.71733,-3.33838 0.10554,-0.34533 0.10601,-0.3696 0.006,-0.33011 -0.28028,0.11104 -0.98586,0.22134 -1.42231,0.22234 -0.65672,0.002 -1.09255,-0.13702 -1.40075,-0.44523 -0.25455,-0.25455 -0.67209,-1.03891 -0.74374,-1.39715 -0.0536,-0.268121 -0.19156,-0.257251 -0.24342,0.0192 -0.072,0.38372 -0.5364,1.23006 -0.79051,1.44062 -0.35853,0.29709 -0.81489,0.40577 -1.54312,0.3675 -0.85331,-0.0448 -1.18717,-0.14413 -1.48445,-0.4414 -0.13504,-0.13505 -0.24553,-0.2349 -0.24553,-0.22189 0,0.013 0.0886,0.32222 0.19692,0.68714 0.37426,1.26101 1.03474,2.37606 1.711,2.88857 0.53635,0.40648 0.9612,0.57385 1.79943,0.70885 0.28663,0.0462 1.04602,-0.0381 1.4428,-0.16005 z m -2.51804,-4.31897 c 0.20122,-0.11752 0.56947,-0.7389 0.66065,-1.114791 0.0377,-0.1552895 0.0197,-0.1722395 -0.25646,-0.2417795 -0.48104,-0.12113 -1.49405,-0.19728 -2.06153,-0.15498 -0.59783,0.0446 -0.58382,0.0248 -0.46418,0.6556405 0.0786,0.41419 0.23718,0.75624 0.3882,0.83706 0.38011,0.20343 1.39832,0.2145 1.73332,0.0189 z m 4.70129,0.0239 c 0.16094,-0.0538 0.26605,-0.14716 0.35098,-0.31161 0.13636,-0.26404 0.28617,-1.0525905 0.21365,-1.1245705 -0.026,-0.0258 -0.4402,-0.0449 -0.92047,-0.0423 -0.96885,0.005 -1.9279,0.12759 -1.9279,0.2463395 0,0.0415 0.113,0.309131 0.25111,0.594731 0.24411,0.50479 0.34674,0.61086 0.70395,0.72749 0.20581,0.0672 1.02445,0.0117 1.32868,-0.09 z m -1.8363,-2.1170105 c 0.38068,-0.0628 1.0088,-0.10042 1.68359,-0.1007 l 1.07635,-4.5e-4 -0.33013,-0.6178597 c -0.48592,-0.90943 -0.99552,-1.64478 -1.38915,-2.00454 -0.19132,-0.17485 -0.36711,-0.31725 -0.39064,-0.31643 -0.0235,8.1e-4 -0.25851,0.19042 -0.52218,0.42135 -0.98347,0.86135 -2.2695,1.61661 -3.364,1.97561 -0.63816,0.20932 -1.66389,0.3674397 -2.18105,0.3362097 -0.3564,-0.0215 -0.3995,-0.0112 -0.3995,0.0956 0,0.11215 0.0373,0.11636 0.59126,0.0669 1.09526,-0.0977 2.24872,-0.0456 2.89237,0.1305 0.66088,0.18087 1.29827,0.18464 2.33308,0.0138 z M 1.3998761,19.978344 c -0.30433,-0.1125 -0.60305004,-0.38585 -0.71977004,-0.65863 -0.1049,-0.24518 -0.11455,-0.70647 -0.02,-0.95669 0.14733,-0.38992 0.60972004,-0.72326 1.00327004,-0.72326 0.16377,0 0.29568,-0.16405 1.42427,-1.77134 1.577,-2.24588 1.53,-2.19169 1.90026,-2.19169 0.32635,0 0.18293,-0.1248 1.8547403,1.61398 0.43098,0.44824 0.80451,0.81284 0.83007,0.81024 0.0256,-0.003 0.4484,-0.44845 0.9396403,-0.99076 0.49124,-0.54231 0.9091,-0.98602 0.92857,-0.98602 0.0357,0 0.6014403,1.08371 0.6051903,1.15931 0.002,0.0399 -1.5831903,1.79308 -1.9976006,2.20938 -0.17008,0.17085 -0.26098,0.2112 -0.4794,0.21281 -0.26652,0.002 -0.28253,-0.0114 -1.4331703,-1.19607 -0.64,-0.65893 -1.18121,-1.18049 -1.20267,-1.15902 -0.0215,0.0215 -0.50906,0.707 -1.08352,1.5234 -0.98675,1.40231 -1.0409,1.49464 -0.97962,1.6704 0.0949,0.27226 0.007,0.71095 -0.20044,0.99689 -0.30886,0.42637 -0.89384,0.61303 -1.3698,0.43707 z M 26.887967,8.9479435 c -0.0742,-0.03 -0.54598,-0.5531097 -1.04831,-1.1624797 -0.50234,-0.60937 -0.94591,-1.14382 -0.98572,-1.18766 -0.056,-0.0617 -0.32514,0.19488 -1.18887,1.13317 l -1.1165,1.2128797 -0.0177,-0.9304697 -0.0177,-0.93046 0.77585,-0.8419 c 1.15612,-1.25456 1.23134,-1.3213 1.48908,-1.3213 0.12153,0 0.26436,0.0166 0.3174,0.037 0.053,0.0204 0.52118,0.55249 1.04031,1.18252 0.51913,0.63003 0.96589,1.14551 0.9928,1.14551 0.0269,0 0.50314,-0.56291 1.05829,-1.25092 l 1.00937,-1.25092 -0.0214,-0.33625 c -0.0494,-0.77726 0.45481,-1.33734 1.20388,-1.33734 0.53808,0 0.90977,0.24608 1.11554,0.73856 0.32874,0.78677 -0.17899,1.57718 -1.07399,1.67198 -0.15294,0.0162 -0.39705,0.28503 -1.52106,1.67511 -1.45403,1.7982297 -1.59505,1.9211397 -2.01127,1.7529697 z"
     id="path4138"
     inkscape:connector-curvature="0" />
</svg>
