<?xml version="1.0" encoding="UTF-8" standalone="no"?>
<svg
   xmlns:dc="http://purl.org/dc/elements/1.1/"
   xmlns:cc="http://creativecommons.org/ns#"
   xmlns:rdf="http://www.w3.org/1999/02/22-rdf-syntax-ns#"
   xmlns:svg="http://www.w3.org/2000/svg"
   xmlns="http://www.w3.org/2000/svg"
   xmlns:sodipodi="http://sodipodi.sourceforge.net/DTD/sodipodi-0.dtd"
   xmlns:inkscape="http://www.inkscape.org/namespaces/inkscape"
   enable-background="new 0 0 512 512"
   height="32"
   id="Layer_1"
   version="1.1"
   viewBox="0 0 32 32"
   width="32"
   xml:space="preserve"
   inkscape:version="0.91 r13725"
   sodipodi:docname="my-requests.svg"><metadata
     id="metadata9"><rdf:RDF><cc:Work
         rdf:about=""><dc:format>image/svg+xml</dc:format><dc:type
           rdf:resource="http://purl.org/dc/dcmitype/StillImage" /><dc:title></dc:title></cc:Work></rdf:RDF></metadata><defs
     id="defs7" /><sodipodi:namedview
     pagecolor="#ffffff"
     bordercolor="#666666"
     borderopacity="1"
     objecttolerance="10"
     gridtolerance="10"
     guidetolerance="10"
     inkscape:pageopacity="0"
     inkscape:pageshadow="2"
     inkscape:window-width="1872"
     inkscape:window-height="1059"
     id="namedview5"
     showgrid="false"
     inkscape:zoom="20.85965"
     inkscape:cx="17.015964"
     inkscape:cy="15.61499"
     inkscape:window-x="48"
     inkscape:window-y="21"
     inkscape:window-maximized="1"
     inkscape:current-layer="Layer_1" /><path
     d="m 3.24404,31.550763 11.86756,0 0,-13.20122 -11.86756,0 0,13.20122 z m 26.74671,-22.4164498 -6.96114,0 c 0.49401,-0.2537 0.93473,-0.52119 1.32525,-0.80183 1.50701,-1.07555 2.29994,-2.43925 2.29733,-3.79477 8.5e-4,-1.11007 -0.5273,-2.09008 -1.28965,-2.75373 -0.76452,-0.66796 -1.77529,-1.06194 -2.86192,-1.06357 -1.15778,-6.7e-4 -2.232,0.40015 -3.15232,1.01446 -1.3841,0.9277 -2.47322,2.32573 -3.24894,3.85974 -0.0372,0.0746 -0.0731,0.1495 -0.10899,0.22451 -0.28402,-0.59124 -0.61431,-1.16347 -0.98758,-1.70088 -0.6562,-0.93593 -1.44537,-1.76646 -2.3692,-2.38337 -0.92055,-0.61455 -1.99483,-1.01488 -3.1523699,-1.01446 -1.15118,0.004 -2.20469,0.48734 -2.99416,1.22977 -0.7859,0.7426 -1.33803,1.78807 -1.34106,2.97442 -0.002,0.69363 0.20066,1.41801 0.61667,2.07616 0.52289,0.82791 1.35153,1.54515 2.49877,2.13355 l -6.2520701,0 c -0.8334199,0 -1.50936995,0.6756997 -1.50936995,1.5094298 l 0,5.59671 14.61159995,0 0,-7.1061398 1.77674,0 0,7.1060798 14.61166,0 0,-5.59671 C 31.5,9.8100129 30.82418,9.1343132 29.99075,9.1343132 M 8.7682801,6.9149632 c -0.58966,-0.3703 -0.94822,-0.74485 -1.15723,-1.07695 -0.20798,-0.33464 -0.27961,-0.62744 -0.2813,-0.91335 -0.003,-0.47886 0.23625,-0.98964 0.65681,-1.38694 0.41366,-0.39392 0.9759,-0.63381 1.48213,-0.63381 l 0.0126,0 c 0.6494899,4.9e-4 1.2964899,0.22015 1.9416199,0.64846 0.96445,0.63738 1.87405,1.75574 2.50906,3.02432 0.32441,0.64076 0.57786,1.31858 0.74872,1.97951 -2.92411,-0.30261 -4.8192199,-0.94931 -5.9124599,-1.64124 m 9.9999799,-1.54437 c 0.52767,-0.75593 1.14864,-1.39161 1.7905,-1.81822 0.64549,-0.42831 1.29243,-0.64803 1.94173,-0.64846 l 0.007,0 c 0.54431,0 1.06023,0.20871 1.41613,0.52246 0.35892,0.31932 0.54401,0.7015 0.54516,1.1114 -0.003,0.48613 -0.25847,1.19483 -1.39173,2.02384 -1.07937,0.78329 -2.94143,1.58766 -5.81438,2.14959 0.27537,-1.14112 0.80346,-2.34716 1.5058,-3.34061 m -1.87998,26.1801698 11.86761,0 0,-13.20122 -11.86761,0 0,13.20122 z"
     id="path3"
     inkscape:connector-curvature="0"
     style="fill:#cccccc;fill-opacity:1;stroke:#000000;stroke-opacity:1;stroke-width:0.5;stroke-miterlimit:4;stroke-dasharray:none" /></svg>