<?xml version="1.0" encoding="UTF-8" standalone="no"?>
<!-- Created with Inkscape (http://www.inkscape.org/) -->

<svg
   xmlns:dc="http://purl.org/dc/elements/1.1/"
   xmlns:cc="http://creativecommons.org/ns#"
   xmlns:rdf="http://www.w3.org/1999/02/22-rdf-syntax-ns#"
   xmlns:svg="http://www.w3.org/2000/svg"
   xmlns="http://www.w3.org/2000/svg"
   xmlns:sodipodi="http://sodipodi.sourceforge.net/DTD/sodipodi-0.dtd"
   xmlns:inkscape="http://www.inkscape.org/namespaces/inkscape"
   width="32"
   height="32"
   viewBox="0 0 31.999999 31.999998"
   id="svg4255"
   version="1.1"
   inkscape:version="0.91 r13725"
   sodipodi:docname="startup.svg">
  <defs
     id="defs4257" />
  <sodipodi:namedview
     id="base"
     pagecolor="#ffffff"
     bordercolor="#666666"
     borderopacity="1.0"
     inkscape:pageopacity="0.0"
     inkscape:pageshadow="2"
     inkscape:zoom="15.839192"
     inkscape:cx="32.018282"
     inkscape:cy="10.386665"
     inkscape:document-units="px"
     inkscape:current-layer="layer1"
     showgrid="false"
     units="px"
     inkscape:window-width="1868"
     inkscape:window-height="1059"
     inkscape:window-x="52"
     inkscape:window-y="21"
     inkscape:window-maximized="1" />
  <metadata
     id="metadata4260">
    <rdf:RDF>
      <cc:Work
         rdf:about="">
        <dc:format>image/svg+xml</dc:format>
        <dc:type
           rdf:resource="http://purl.org/dc/dcmitype/StillImage" />
        <dc:title></dc:title>
      </cc:Work>
    </rdf:RDF>
  </metadata>
  <g
     inkscape:label="Layer 1"
     inkscape:groupmode="layer"
     id="layer1"
     transform="translate(0,-1020.3622)">
    <path
       style="fill:#cccccc;fill-opacity:1;stroke:#000000;stroke-opacity:1;stroke-width:0.49999994;stroke-miterlimit:4;stroke-dasharray:none"
       d="m 16.453582,1051.7593 c -0.0161,-0.05 -0.046,-0.193 -0.0666,-0.3176 -0.0503,-0.3048 -0.522853,-1.1268 -1.078997,-1.8767 -0.754105,-1.0169 -0.785325,-1.1045 -0.897586,-2.5206 -0.007,-0.083 -0.12582,0.1242 -0.193651,0.3365 -0.0426,0.1334 -0.1058,0.2426 -0.140341,0.2426 -0.162791,0 -0.789405,-0.8591 -1.089657,-1.494 -0.361842,-0.7651 -0.319422,-1.5804 0.120741,-2.3207 0.257322,-0.4326 0.671614,-0.9095 0.790215,-0.9095 0.0362,0 0.166201,0.2257 0.288902,0.5016 0.490413,1.1025 0.521923,1.1426 0.806245,1.0249 0.0761,-0.031 0.118431,0.031 0.180491,0.2678 0.105831,0.4033 0.670335,1.5629 0.884986,1.818 0.101611,0.1208 0.205671,0.185 0.263612,0.1628 0.162251,-0.062 0.436342,-0.603 0.683314,-1.3482 l 0.235932,-0.7119 0.0801,0.4033 c 0.044,0.2219 0.116911,0.4537 0.161951,0.5153 0.0709,0.097 0.0964,0.1 0.191001,0.021 0.179101,-0.1486 0.407613,-0.6622 0.485333,-1.0908 0.0746,-0.4114 0.0181,-0.9687 -0.12529,-1.2366 -0.0792,-0.1479 -0.0884,-0.4361 -0.0155,-0.4812 0.11909,-0.074 0.588693,0.2252 0.924535,0.5882 0.973397,1.0523 0.978487,2.0836 0.0193,3.9029 -0.380353,0.7214 -0.552114,0.9393 -0.696555,0.8839 -0.144151,-0.055 -0.298642,-0.4314 -0.298642,-0.727 0,-0.1582 -0.0262,-0.2254 -0.0809,-0.2074 -0.156021,0.051 -0.241582,0.5168 -0.280052,1.5241 -0.0213,0.559 -0.0806,1.189 -0.131761,1.4 -0.169641,0.7001 -0.931096,1.9297 -1.021126,1.6489 z m -9.4498609,-5.71 c -0.10637,-0.1063 -0.200271,-0.3586 -0.320232,-0.8603 -0.709164,-2.9659 0.0769,-6.3256 1.919632,-8.205 0.325943,-0.3324 0.459393,-0.4262 0.6040041,-0.4246 0.333262,0 0.404243,0.1245 0.669665,1.1399 0.2903008,1.1105 0.7463438,2.4544 1.1167268,3.291 0.141841,0.3203 0.272771,0.6641 0.290972,0.764 0.0452,0.2478 -0.169552,0.4647 -0.554234,0.56 -0.166141,0.041 -0.544373,0.1914 -0.8405148,0.334 -1.0602471,0.5103 -1.7311211,1.3938 -2.0550831,2.7064 -0.203402,0.8241 -0.474693,1.0509 -0.830936,0.6946 z m 17.8932339,0.037 c -0.0955,-0.078 -0.186181,-0.3057 -0.291361,-0.7318 -0.382543,-1.55 -1.244718,-2.4914 -2.741038,-2.9928 -0.834615,-0.2797 -0.862225,-0.3732 -0.410293,-1.3892 0.349263,-0.7852 0.854736,-2.2866 1.137938,-3.3799 0.238921,-0.9224 0.308512,-1.0355 0.637114,-1.0355 0.409642,0 1.502979,1.3873 1.997682,2.5348 0.532064,1.2341 0.777355,2.4479 0.775885,3.8395 -0.001,0.972 -0.0603,1.477 -0.280661,2.3919 -0.192652,0.7997 -0.468283,1.0546 -0.825266,0.763 z m -12.484979,-4.0628 c -0.296452,-0.3769 -1.142628,-2.6021 -1.50041,-3.9456 -0.493353,-1.8526 -0.667734,-3.1698 -0.668254,-5.0477 -7.3e-4,-2.6331 0.455603,-4.6635 1.54902,-6.8921 0.817545,-1.6664 1.860602,-3.073 3.326531,-4.4861 0.839735,-0.8095 1.005656,-0.9183 1.255088,-0.8235 0.220811,0.084 1.650301,1.4801 2.255864,2.2033 1.899963,2.269 3.09954,5.0399 3.487983,8.057 0.12051,0.936 0.10088,3.1747 -0.0369,4.2064 -0.268881,2.0136 -0.769934,3.8334 -1.58973,5.7737 -0.183751,0.4349 -0.392062,0.8645 -0.462913,0.9546 l -0.12882,0.1637 -3.679324,0 -3.679333,0 -0.128821,-0.1637 z m 4.462978,-5.1295 c 0.476113,-0.2487 0.719585,-0.6051 0.755845,-1.1063 0.0334,-0.4615 -0.0642,-0.7845 -0.327432,-1.0843 -0.430643,-0.4905 -1.152827,-0.6433 -1.704151,-0.3606 -0.562094,0.2882 -0.837045,0.7912 -0.789755,1.4449 0.0369,0.5102 0.280882,0.8665 0.759345,1.1091 0.469183,0.238 0.846905,0.2371 1.306148,0 z m -0.124121,-5.0034 c 0.781315,-0.1634 1.47468,-0.7156 1.844622,-1.4689 0.164761,-0.3355 0.180891,-0.4319 0.180891,-1.0802 0,-0.6339 -0.0187,-0.7517 -0.170531,-1.0756 -0.526783,-1.1235 -1.778181,-1.7495 -2.954619,-1.4781 -0.751734,0.1734 -1.433619,0.7144 -1.775411,1.4087 -0.200511,0.4073 -0.211881,0.4686 -0.211881,1.1436 0,0.6499 0.0161,0.7459 0.180901,1.0816 0.553393,1.1269 1.720651,1.717 2.906028,1.4689 z"
       id="path4244"
       inkscape:connector-curvature="0" />
  </g>
</svg>
