<?xml version="1.0" encoding="iso-8859-1"?>
<!-- Generator: Adobe Illustrator 18.0.0, SVG Export Plug-In . SVG Version: 6.00 Build 0)  -->
<!DOCTYPE svg PUBLIC "-//W3C//DTD SVG 1.1//EN" "http://www.w3.org/Graphics/SVG/1.1/DTD/svg11.dtd">
<svg xmlns="http://www.w3.org/2000/svg" xmlns:xlink="http://www.w3.org/1999/xlink" version="1.1" id="Capa_1" x="0px" y="0px" viewBox="0 0 430.843 430.843" style="enable-background:new 0 0 430.843 430.843;" xml:space="preserve" width="512px" height="512px">
<g>
	<path d="M397.462,116.802l-28.893-5.781c-1.462-1.67-3.259-3.015-5.258-3.96c2.272-2.54,4.202-5.108,5.667-7.234   c3.533-5.125,6.475-10.647,8.517-15.972c1.003-2.246,1.853-4.504,2.553-6.717c2.736-2.298,4.347-5.731,4.347-9.331v-8.82   c0-2.536-0.79-5.007-2.253-7.063V39.505C382.142,17.721,364.419,0,342.634,0h-12.809c-21.78,0-39.506,17.721-39.506,39.505v12.42   c-1.458,2.055-2.256,4.528-2.256,7.061v8.82c0,3.6,1.609,7.027,4.352,9.329c0.697,2.21,1.551,4.471,2.556,6.723   c2.036,5.322,4.98,10.844,8.516,15.966c1.468,2.132,3.398,4.702,5.681,7.253c-1.994,0.946-3.778,2.287-5.238,3.95l-28.287,5.73   c-0.16,0.211-0.317,0.425-0.482,0.632c-0.515,1.367-1.066,2.719-1.649,4.047c-0.768,1.965-1.627,3.945-2.572,5.92l9.089,1.817   c16.117,3.223,27.814,17.495,27.814,33.937v104.352c0,3.454-0.5,6.824-1.49,10.067v8.134c0,13.706-8.502,25.46-20.51,30.268v59.091   c0,13.985,11.338,25.322,25.325,25.322c13.98,0,25.317-11.336,25.317-25.322c0,13.985,11.334,25.322,25.324,25.322   c13.98,0,25.314-11.336,25.314-25.322V266.978c2.219,1.448,4.861,2.294,7.705,2.294c7.796,0,14.103-6.317,14.103-14.105v-11.439   c0.959-2.055,1.491-4.346,1.491-6.761V132.613C410.421,124.927,404.995,118.308,397.462,116.802z M328.651,143.241   c-0.107,1.033-0.834,1.899-1.841,2.177c-0.226,0.065-0.45,0.092-0.678,0.092c-0.782,0-1.537-0.361-2.021-1.005l-7.117-9.439   c-0.329-0.439-0.51-0.975-0.51-1.526l0.008-15.128c0.002-0.888,0.468-1.711,1.229-2.172c0.757-0.458,1.702-0.479,2.49-0.068   c2.067,1.097,4.139,1.833,6.146,2.187c1.207,0.218,2.086,1.269,2.086,2.494v6.313c0.366,0.145,0.692,0.366,0.957,0.662   c0.481,0.534,0.714,1.244,0.64,1.954L328.651,143.241z M355.457,135.065l-7.102,9.43c-0.49,0.646-1.242,1.013-2.022,1.013   c-0.227,0-0.459-0.033-0.685-0.092c-1.005-0.279-1.734-1.145-1.84-2.181l-1.384-13.456c-0.074-0.71,0.155-1.419,0.637-1.954   c0.264-0.296,0.589-0.517,0.957-0.662v-6.313c0-1.226,0.881-2.276,2.091-2.494c1.998-0.353,4.069-1.088,6.14-2.185   c0.791-0.412,1.731-0.389,2.489,0.068c0.765,0.459,1.224,1.284,1.224,2.172l0.003,15.13   C355.965,134.092,355.787,134.628,355.457,135.065z M358.034,91.962c-6.194,8.983-11.993,13.002-15.003,13.002h-13.6   c-3.008,0-8.813-4.02-15.005-13.002c-4.884-7.088-8.283-14.928-9.08-20.98l-0.139-1.049l-2.459-1.595   c-0.718-0.469-1.153-1.265-1.153-2.126v-4.164c0-1.399,1.137-2.535,2.535-2.535h1.031v-4.517c0-0.96,0.543-1.834,1.401-2.265   c3.486-1.736,10.407-4.66,17.571-4.66c5.71,0,10.449,1.902,14.081,5.65c4.521,4.68,9.741,7.048,15.494,7.048   c3.268,0,6.634-0.768,10.02-2.289c0.783-0.351,1.693-0.282,2.417,0.187c0.339,0.217,0.607,0.508,0.806,0.845h1.381   c1.399,0,2.536,1.136,2.536,2.535v4.165c0,0.86-0.438,1.656-1.153,2.125l-2.456,1.596l-0.143,1.046   C366.318,77.032,362.918,84.874,358.034,91.962z" fill="#686868"/>
	<path d="M124.486,285.664v-8.15c-0.987-3.242-1.486-6.607-1.486-10.05v-104.37c0-16.4,11.666-30.667,27.737-33.92l8.688-1.759   c-0.955-1.997-1.825-3.997-2.598-5.981c-0.586-1.334-1.137-2.685-1.65-4.046c-0.19-0.239-0.373-0.483-0.556-0.729l-28.179-5.637   c-1.461-1.67-3.257-3.015-5.257-3.96c2.273-2.54,4.201-5.108,5.667-7.234c3.534-5.125,6.475-10.647,8.516-15.972   c1.004-2.246,1.853-4.504,2.554-6.717c2.735-2.298,4.348-5.731,4.348-9.331v-8.82c0-2.536-0.791-5.007-2.252-7.063V39.505   C140.018,17.721,122.293,0,100.506,0H87.699c-21.78,0-39.504,17.721-39.504,39.505v12.42c-1.461,2.055-2.259,4.528-2.259,7.061   v8.82c0,3.6,1.612,7.027,4.354,9.329c0.696,2.21,1.549,4.471,2.555,6.723c2.035,5.322,4.979,10.844,8.514,15.966   c1.47,2.132,3.399,4.702,5.681,7.253c-1.993,0.946-3.779,2.287-5.237,3.95l-28.461,5.766c-7.515,1.522-12.92,8.128-12.92,15.803   v104.372c0,2.415,0.535,4.707,1.486,6.761v11.439c0,7.788,6.313,14.105,14.106,14.105c2.84,0,5.489-0.847,7.702-2.294v108.045   c0,13.985,11.337,25.322,25.324,25.322c13.98,0,25.317-11.336,25.317-25.322c0,13.985,11.333,25.322,25.326,25.322   c13.979,0,25.312-11.336,25.312-25.322v-59.093C132.99,311.122,124.486,299.367,124.486,285.664z M86.524,143.241   c-0.107,1.033-0.833,1.899-1.84,2.177c-0.226,0.065-0.451,0.092-0.678,0.092c-0.784,0-1.538-0.361-2.02-1.005l-7.117-9.439   c-0.331-0.439-0.509-0.975-0.509-1.526l0.006-15.128c0.002-0.888,0.469-1.711,1.23-2.172c0.756-0.458,1.701-0.479,2.488-0.068   c2.069,1.097,4.141,1.833,6.147,2.187c1.206,0.218,2.087,1.269,2.087,2.494v6.313c0.363,0.145,0.69,0.366,0.956,0.662   c0.48,0.534,0.713,1.244,0.64,1.954L86.524,143.241z M113.331,135.065l-7.103,9.43c-0.488,0.646-1.241,1.013-2.022,1.013   c-0.227,0-0.458-0.033-0.684-0.092c-1.003-0.279-1.733-1.145-1.839-2.181l-1.384-13.456c-0.074-0.71,0.156-1.419,0.635-1.954   c0.264-0.296,0.59-0.517,0.959-0.662v-6.313c0-1.226,0.881-2.276,2.089-2.494c2-0.353,4.069-1.088,6.142-2.185   c0.789-0.412,1.731-0.389,2.489,0.068c0.765,0.459,1.224,1.284,1.224,2.172l0.002,15.13   C113.838,134.092,113.662,134.628,113.331,135.065z M115.906,91.962c-6.193,8.983-11.99,13.002-15,13.002H87.303   c-3.006,0-8.811-4.02-15.002-13.002c-4.886-7.088-8.285-14.928-9.082-20.98l-0.14-1.049l-2.457-1.595   c-0.718-0.469-1.153-1.265-1.153-2.126v-4.164c0-1.399,1.135-2.535,2.534-2.535h1.031v-4.517c0-0.96,0.546-1.834,1.403-2.265   c3.488-1.736,10.406-4.66,17.57-4.66c5.71,0,10.45,1.902,14.082,5.65c4.522,4.68,9.742,7.048,15.495,7.048   c3.268,0,6.633-0.768,10.019-2.289c0.784-0.351,1.692-0.282,2.416,0.187c0.338,0.217,0.607,0.508,0.807,0.845h1.381   c1.399,0,2.536,1.136,2.536,2.535v4.165c0,0.86-0.438,1.656-1.155,2.125l-2.455,1.596l-0.142,1.046   C124.191,77.032,120.793,84.874,115.906,91.962z" fill="#686868"/>
	<path d="M287.868,274.225c0.959-2.054,1.491-4.347,1.491-6.762V163.11c0-7.686-5.427-14.306-12.958-15.813l-28.894-5.78   c-1.461-1.67-3.259-3.016-5.258-3.959c2.273-2.542,4.2-5.109,5.667-7.234c3.533-5.126,6.475-10.647,8.515-15.974   c1.005-2.246,1.854-4.503,2.553-6.718c2.735-2.296,4.35-5.731,4.35-9.331v-8.82c0-2.535-0.791-5.007-2.254-7.063V70.002   c0-21.784-17.723-39.504-39.508-39.504h-12.809c-21.781,0-39.505,17.72-39.505,39.504v12.42c-1.46,2.055-2.258,4.528-2.258,7.061   v8.82c0,3.6,1.611,7.027,4.354,9.329c0.697,2.21,1.549,4.473,2.555,6.723c2.035,5.324,4.978,10.845,8.514,15.968   c1.469,2.132,3.398,4.702,5.681,7.251c-1.994,0.946-3.778,2.289-5.236,3.951l-28.462,5.766c-7.515,1.521-12.92,8.128-12.92,15.804   v104.37c0,2.415,0.535,4.708,1.485,6.762v11.439c0,7.788,6.313,14.107,14.106,14.107c2.841,0,5.489-0.848,7.701-2.295V405.52   c0,13.986,11.339,25.323,25.326,25.323c13.979,0,25.317-11.336,25.317-25.323c0,13.986,11.331,25.323,25.324,25.323   c13.98,0,25.311-11.336,25.311-25.323V297.475c2.219,1.448,4.864,2.296,7.708,2.296c7.793,0,14.103-6.319,14.103-14.107V274.225z    M207.587,173.739c-0.106,1.033-0.834,1.897-1.839,2.176c-0.225,0.064-0.451,0.092-0.678,0.092c-0.784,0-1.539-0.361-2.02-1.005   l-7.119-9.441c-0.33-0.438-0.509-0.975-0.509-1.526l0.008-15.128c0.002-0.889,0.467-1.711,1.229-2.172   c0.757-0.458,1.703-0.481,2.489-0.069c2.069,1.098,4.139,1.833,6.147,2.188c1.205,0.217,2.086,1.269,2.086,2.494v6.311   c0.365,0.147,0.691,0.368,0.957,0.662c0.48,0.535,0.712,1.244,0.638,1.955L207.587,173.739z M234.394,165.561l-7.104,9.432   c-0.487,0.645-1.239,1.012-2.021,1.012c-0.227,0-0.458-0.033-0.685-0.092c-1.002-0.281-1.731-1.145-1.837-2.182l-1.384-13.455   c-0.074-0.711,0.155-1.42,0.634-1.955c0.264-0.294,0.592-0.515,0.959-0.662v-6.311c0-1.226,0.882-2.277,2.089-2.494   c2.001-0.354,4.069-1.089,6.143-2.186c0.788-0.411,1.732-0.388,2.489,0.07c0.765,0.458,1.225,1.282,1.225,2.172l0.001,15.129   C234.902,164.588,234.725,165.124,234.394,165.561z M236.968,122.46c-6.191,8.981-11.99,13.001-15,13.001h-13.603   c-3.006,0-8.811-4.021-15.002-13.001c-4.885-7.088-8.285-14.928-9.082-20.982l-0.139-1.048l-2.457-1.596   c-0.719-0.468-1.153-1.264-1.153-2.124v-4.164c0-1.4,1.134-2.535,2.534-2.535h1.031v-4.517c0-0.961,0.544-1.836,1.401-2.266   c3.488-1.737,10.408-4.66,17.572-4.66c5.71,0,10.45,1.902,14.082,5.651c4.521,4.678,9.741,7.048,15.494,7.048   c3.268,0,6.634-0.769,10.02-2.289c0.783-0.352,1.69-0.282,2.415,0.185c0.338,0.219,0.607,0.508,0.808,0.847h1.381   c1.399,0,2.535,1.134,2.535,2.535v4.165c0,0.86-0.437,1.656-1.153,2.124l-2.455,1.596l-0.142,1.047   C245.255,107.529,241.856,115.372,236.968,122.46z" fill="#686868"/>
</g>
<g>
</g>
<g>
</g>
<g>
</g>
<g>
</g>
<g>
</g>
<g>
</g>
<g>
</g>
<g>
</g>
<g>
</g>
<g>
</g>
<g>
</g>
<g>
</g>
<g>
</g>
<g>
</g>
<g>
</g>
</svg>
