<?xml version="1.0" encoding="UTF-8" standalone="no"?>
<!-- Created with Inkscape (http://www.inkscape.org/) -->

<svg
   xmlns:dc="http://purl.org/dc/elements/1.1/"
   xmlns:cc="http://creativecommons.org/ns#"
   xmlns:rdf="http://www.w3.org/1999/02/22-rdf-syntax-ns#"
   xmlns:svg="http://www.w3.org/2000/svg"
   xmlns="http://www.w3.org/2000/svg"
   xmlns:sodipodi="http://sodipodi.sourceforge.net/DTD/sodipodi-0.dtd"
   xmlns:inkscape="http://www.inkscape.org/namespaces/inkscape"
   id="svg2"
   version="1.1"
   inkscape:version="0.91 r13725"
   width="32"
   height="32"
   viewBox="0 0 32 32"
   sodipodi:docname="wish-list.svg">
  <metadata
     id="metadata8">
    <rdf:RDF>
      <cc:Work
         rdf:about="">
        <dc:format>image/svg+xml</dc:format>
        <dc:type
           rdf:resource="http://purl.org/dc/dcmitype/StillImage" />
        <dc:title></dc:title>
      </cc:Work>
    </rdf:RDF>
  </metadata>
  <defs
     id="defs6" />
  <sodipodi:namedview
     pagecolor="#ffffff"
     bordercolor="#666666"
     borderopacity="1"
     objecttolerance="10"
     gridtolerance="10"
     guidetolerance="10"
     inkscape:pageopacity="0"
     inkscape:pageshadow="2"
     inkscape:window-width="1872"
     inkscape:window-height="1059"
     id="namedview4"
     showgrid="false"
     inkscape:zoom="13.088408"
     inkscape:cx="18.440704"
     inkscape:cy="9.9563555"
     inkscape:window-x="48"
     inkscape:window-y="21"
     inkscape:window-maximized="1"
     inkscape:current-layer="svg2" />
  <path
     style="fill:#cccccc;fill-opacity:1;stroke:#000000;stroke-opacity:1;stroke-width:0.5;stroke-miterlimit:4;stroke-dasharray:none"
     d="M 4.500186,31.403547 C 4.3725299,31.275891 4.2680831,24.468766 4.2680831,16.276602 4.2680831,5.1468759 4.3716319,1.2782108 4.6777191,0.97212155 4.9672747,0.68256793 6.9686496,0.56248553 11.504997,0.56248553 l 6.417641,0 0,4.74257177 c 0,4.009701 0.08344,4.7745917 0.539966,4.9497757 0.29698,0.113963 2.449794,0.207204 4.784027,0.207204 l 4.244064,0 -0.09028,10.49694 -0.09028,10.496939 -11.288927,0.08986 C 9.8122986,31.595203 4.6278343,31.531197 4.5001811,31.403542 Z m 13.298339,-7.855428 c 0.839809,-0.68816 1.92479,-1.930105 2.41107,-2.759877 0.853683,-1.456702 0.865139,-1.54853 0.332482,-2.665521 -0.605976,-1.270747 -1.710073,-1.737321 -3.223131,-1.362044 -1.171264,0.290502 -1.717715,0.290502 -2.88898,0 -1.446741,-0.358827 -2.58453,0.09095 -3.189492,1.26081 -0.510814,0.987803 -0.506557,1.16006 0.05969,2.415782 0.629475,1.395921 3.696869,4.362051 4.510973,4.362051 0.253252,0 1.147577,-0.56304 1.987384,-1.251201 z m 1.830932,-18.627423 0,-3.8345216 3.755003,3.7433593 c 2.065252,2.058847 3.755003,3.7843822 3.755003,3.8345218 0,0.050143 -1.689751,0.091159 -3.755003,0.091159 l -3.755003,0 0,-3.8345228 z"
     id="path4138"
     inkscape:connector-curvature="0" />
</svg>
