<?xml version="1.0" encoding="UTF-8" standalone="no"?>
<!-- Created with Inkscape (http://www.inkscape.org/) -->

<svg
   xmlns:dc="http://purl.org/dc/elements/1.1/"
   xmlns:cc="http://creativecommons.org/ns#"
   xmlns:rdf="http://www.w3.org/1999/02/22-rdf-syntax-ns#"
   xmlns:svg="http://www.w3.org/2000/svg"
   xmlns="http://www.w3.org/2000/svg"
   xmlns:sodipodi="http://sodipodi.sourceforge.net/DTD/sodipodi-0.dtd"
   xmlns:inkscape="http://www.inkscape.org/namespaces/inkscape"
   width="32"
   height="32"
   viewBox="0 0 32 31.999997"
   id="svg4211"
   version="1.1"
   inkscape:version="0.91 r13725"
   sodipodi:docname="contact.svg">
  <defs
     id="defs4213" />
  <sodipodi:namedview
     id="base"
     pagecolor="#ffffff"
     bordercolor="#666666"
     borderopacity="1.0"
     inkscape:pageopacity="0.0"
     inkscape:pageshadow="2"
     inkscape:zoom="15.839192"
     inkscape:cx="4.9845697"
     inkscape:cy="17.91179"
     inkscape:document-units="px"
     inkscape:current-layer="layer1"
     showgrid="false"
     fit-margin-top="0"
     fit-margin-left="0"
     fit-margin-right="0"
     fit-margin-bottom="0"
     units="px"
     inkscape:window-width="1872"
     inkscape:window-height="1059"
     inkscape:window-x="48"
     inkscape:window-y="21"
     inkscape:window-maximized="1" />
  <metadata
     id="metadata4216">
    <rdf:RDF>
      <cc:Work
         rdf:about="">
        <dc:format>image/svg+xml</dc:format>
        <dc:type
           rdf:resource="http://purl.org/dc/dcmitype/StillImage" />
        <dc:title></dc:title>
      </cc:Work>
    </rdf:RDF>
  </metadata>
  <g
     inkscape:label="Layer 1"
     inkscape:groupmode="layer"
     id="layer1"
     transform="translate(-355.69685,-514.07567)">
    <path
       style="fill:#cccccc;fill-opacity:1;stroke:#000000;stroke-opacity:1;stroke-width:0.5;stroke-miterlimit:4;stroke-dasharray:none"
       d="m 363.64162,544.95548 c -1.42927,-0.31918 -2.35695,-1.13825 -2.84168,-2.50897 l -0.14867,-0.42044 -0.0201,-1.25889 -0.0201,-1.25888 0.97579,-0.003 c 1.29675,-0.003 1.59234,-0.0403 2.03166,-0.25735 0.58839,-0.2908 1.01758,-0.87842 1.12798,-1.54437 0.0583,-0.35171 0.0244,-0.62199 -0.13058,-1.03959 -0.21648,-0.58352 -0.67525,-1.02459 -1.28144,-1.23199 -0.25501,-0.0873 -0.4045,-0.0969 -1.49868,-0.0969 l -1.21541,0 0,-1.62775 0,-1.62774 1.30684,-0.0148 1.30686,-0.0148 0.31464,-0.14909 c 0.74285,-0.352 1.211,-1.0823 1.211,-1.88911 0,-0.80681 -0.46815,-1.5371 -1.211,-1.88911 l -0.31464,-0.1491 -1.30686,-0.0148 -1.30684,-0.0148 0,-1.62555 0,-1.62555 1.28287,-0.0141 c 1.464,-0.0163 1.59805,-0.0446 2.08706,-0.44299 0.57002,-0.46434 0.86918,-1.22278 0.75563,-1.91572 -0.10137,-0.61865 -0.52631,-1.23162 -1.04126,-1.50203 -0.51419,-0.27 -0.69269,-0.29437 -2.18976,-0.299 l -0.90386,-0.003 0.0209,-1.2589 c 0.0202,-1.21712 0.0253,-1.27174 0.15199,-1.64642 0.47257,-1.39737 1.51407,-2.29337 2.97767,-2.56168 0.20428,-0.0376 2.76383,-0.0486 8.82422,-0.038 l 8.53649,0.0146 0.40764,0.13611 c 1.24302,0.41503 2.06012,1.23203 2.47713,2.47684 l 0.13657,0.40764 0.0138,11.67773 c 0.014,11.90475 0.0106,12.17175 -0.16392,12.70271 -0.1548,0.47079 -0.46352,1.00846 -0.77503,1.34977 -0.50076,0.54865 -0.95394,0.83991 -1.68862,1.08523 l -0.40764,0.13611 -8.60843,0.008 c -6.65433,0.007 -8.66829,-0.006 -8.87218,-0.0511 z m 14.98491,-9.69145 c -7.8e-4,-0.57691 -0.0274,-1.1025 -0.0656,-1.31883 -0.13433,-0.75767 -0.50828,-1.4632 -1.08253,-2.04243 -0.42189,-0.42555 -0.78926,-0.68074 -1.282,-0.89054 -0.63434,-0.27008 -0.81217,-0.28981 -2.8327,-0.31428 -2.3681,-0.0286 -2.78845,0.0204 -3.60872,0.42112 -0.7541,0.36843 -1.46957,1.08985 -1.82775,1.84299 -0.30426,0.63977 -0.36422,0.97798 -0.38899,2.19427 l -0.0223,1.09124 5.55624,-0.0122 5.55624,-0.0122 -0.002,-0.95916 z m -4.65001,-5.85865 c 0.15826,-0.0383 0.46189,-0.15512 0.67473,-0.25951 0.94236,-0.4622 1.56866,-1.22706 1.86762,-2.28086 0.11875,-0.41857 0.1284,-0.51258 0.10709,-1.04212 -0.0182,-0.45046 -0.0514,-0.66685 -0.14698,-0.95719 -0.37476,-1.13815 -1.24403,-1.97615 -2.43052,-2.34311 -0.29859,-0.0923 -0.4656,-0.11117 -0.98314,-0.11083 -0.55815,3.9e-4 -0.66614,0.0148 -1.03109,0.13749 -1.70575,0.57359 -2.69701,2.14125 -2.46701,3.90151 0.10699,0.81886 0.41806,1.42645 1.05287,2.05654 0.85725,0.85086 2.13744,1.19341 3.35643,0.89808 z m -14.01444,9.06443 c -0.30248,-0.1071 -0.6161,-0.47781 -0.68501,-0.80972 -0.0802,-0.38656 0.002,-0.72249 0.24153,-0.99544 0.33762,-0.38356 0.37246,-0.39125 1.85423,-0.40943 0.8482,-0.0104 1.39563,0.003 1.56603,0.0383 0.31118,0.0646 0.54596,0.23394 0.73348,0.52907 0.11985,0.1886 0.137,0.26115 0.13617,0.57549 -7.7e-4,0.40859 -0.0671,0.56983 -0.34267,0.8375 -0.29403,0.28555 -0.47583,0.314 -1.97904,0.30971 -1.04386,-0.003 -1.36476,-0.019 -1.52472,-0.0756 z m 0.0873,-7.36355 c -0.15704,-0.035 -0.27571,-0.11157 -0.46248,-0.29835 -0.21173,-0.21172 -0.26013,-0.29402 -0.30771,-0.52325 -0.0927,-0.44662 -0.004,-0.7558 0.30689,-1.06644 0.34731,-0.34731 0.46859,-0.36737 2.10143,-0.34757 1.43915,0.0174 1.50558,0.0294 1.80111,0.32496 0.25575,0.25575 0.31886,0.41714 0.31991,0.81815 7.9e-4,0.32577 -0.0139,0.38392 -0.15346,0.59947 -0.18186,0.28107 -0.38732,0.4307 -0.68485,0.49872 -0.27272,0.0623 -2.63637,0.0578 -2.92084,-0.006 z m 0.0499,-7.37975 c -0.58052,-0.11411 -0.95228,-0.7349 -0.82045,-1.37 0.0477,-0.22983 0.0961,-0.31267 0.30363,-0.52024 0.34256,-0.34257 0.43808,-0.36011 1.9615,-0.36011 1.44006,0 1.63114,0.0312 1.92183,0.3135 0.27563,0.26768 0.3416,0.42891 0.34267,0.8375 7.9e-4,0.31533 -0.0161,0.38628 -0.13722,0.57549 -0.33788,0.52772 -0.52328,0.57716 -2.13828,0.57024 -0.67346,-0.003 -1.3186,-0.0237 -1.43368,-0.0465 z"
       id="path4200"
       inkscape:connector-curvature="0" />
  </g>
</svg>
