<?xml version="1.0" encoding="UTF-8" standalone="no"?>
<!-- Created with Inkscape (http://www.inkscape.org/) -->

<svg
   xmlns:dc="http://purl.org/dc/elements/1.1/"
   xmlns:cc="http://creativecommons.org/ns#"
   xmlns:rdf="http://www.w3.org/1999/02/22-rdf-syntax-ns#"
   xmlns:svg="http://www.w3.org/2000/svg"
   xmlns="http://www.w3.org/2000/svg"
   xmlns:sodipodi="http://sodipodi.sourceforge.net/DTD/sodipodi-0.dtd"
   xmlns:inkscape="http://www.inkscape.org/namespaces/inkscape"
   width="32"
   height="32"
   viewBox="0 0 32 31.999997"
   id="svg4211"
   version="1.1"
   inkscape:version="0.91 r13725"
   sodipodi:docname="general.svg">
  <defs
     id="defs4213" />
  <sodipodi:namedview
     id="base"
     pagecolor="#ffffff"
     bordercolor="#666666"
     borderopacity="1.0"
     inkscape:pageopacity="0.0"
     inkscape:pageshadow="2"
     inkscape:zoom="15.839192"
     inkscape:cx="4.9845697"
     inkscape:cy="17.91179"
     inkscape:document-units="px"
     inkscape:current-layer="layer1"
     showgrid="false"
     fit-margin-top="0"
     fit-margin-left="0"
     fit-margin-right="0"
     fit-margin-bottom="0"
     units="px"
     inkscape:window-width="1870"
     inkscape:window-height="1059"
     inkscape:window-x="50"
     inkscape:window-y="21"
     inkscape:window-maximized="1" />
  <metadata
     id="metadata4216">
    <rdf:RDF>
      <cc:Work
         rdf:about="">
        <dc:format>image/svg+xml</dc:format>
        <dc:type
           rdf:resource="http://purl.org/dc/dcmitype/StillImage" />
        <dc:title />
      </cc:Work>
    </rdf:RDF>
  </metadata>
  <g
     inkscape:label="Layer 1"
     inkscape:groupmode="layer"
     id="layer1"
     transform="translate(-355.69685,-514.07567)">
    <path
       style="fill:#cccccc;fill-opacity:1;stroke:#000000;stroke-width:0.375;stroke-miterlimit:4;stroke-dasharray:none;stroke-opacity:1"
       d="m 365.65768,541.21926 c -1.07195,-0.23938 -1.76771,-0.85368 -2.13126,-1.88172 l -0.1115,-0.31533 -0.0151,-0.94417 -0.0151,-0.94416 0.73184,-0.002 c 0.97256,-0.002 1.19425,-0.0302 1.52374,-0.19301 0.4413,-0.2181 0.76319,-0.65882 0.84599,-1.15828 0.0437,-0.26378 0.0183,-0.46649 -0.0979,-0.77969 -0.16236,-0.43764 -0.50643,-0.76845 -0.96108,-0.924 -0.19125,-0.0655 -0.30337,-0.0727 -1.12401,-0.0727 l -0.91155,0 0,-1.22081 0,-1.22081 0.98013,-0.0111 0.98014,-0.0111 0.23598,-0.11182 c 0.55714,-0.264 0.90825,-0.81172 0.90825,-1.41683 0,-0.60511 -0.35111,-1.15282 -0.90825,-1.41683 l -0.23598,-0.11183 -0.98014,-0.0111 -0.98013,-0.0111 0,-1.21916 0,-1.21916 0.96215,-0.0106 c 1.098,-0.0122 1.19854,-0.0335 1.56529,-0.33224 0.42752,-0.34825 0.65189,-0.91708 0.56673,-1.43679 -0.076,-0.46399 -0.39474,-0.92371 -0.78095,-1.12652 -0.38564,-0.2025 -0.51952,-0.22078 -1.64232,-0.22425 l -0.67789,-0.002 0.0157,-0.94418 c 0.0152,-0.91284 0.019,-0.9538 0.11399,-1.23481 0.35443,-1.04803 1.13556,-1.72003 2.23326,-1.92126 0.15321,-0.0282 2.07287,-0.0364 6.61816,-0.0285 l 6.40237,0.0109 0.30573,0.10208 c 0.93226,0.31127 1.54509,0.92402 1.85785,1.85763 l 0.10242,0.30573 0.0104,8.7583 c 0.0105,8.92856 0.008,9.12881 -0.12294,9.52703 -0.1161,0.35309 -0.34764,0.75635 -0.58127,1.01233 -0.37557,0.41149 -0.71545,0.62993 -1.26646,0.81392 l -0.30573,0.10208 -6.45633,0.006 c -4.99074,0.005 -6.50121,-0.004 -6.65413,-0.0383 z m 11.23868,-7.26858 c -5.8e-4,-0.43269 -0.0206,-0.82688 -0.0492,-0.98913 -0.10075,-0.56825 -0.38121,-1.0974 -0.8119,-1.53182 -0.31641,-0.31916 -0.59194,-0.51055 -0.9615,-0.6679 -0.47575,-0.20256 -0.60912,-0.21736 -2.12452,-0.23571 -1.77608,-0.0214 -2.09134,0.0153 -2.70654,0.31584 -0.56558,0.27632 -1.10218,0.81738 -1.37081,1.38224 -0.2282,0.47983 -0.27317,0.73348 -0.29175,1.6457 l -0.0167,0.81843 4.16718,-0.009 4.16718,-0.009 -0.002,-0.71937 z m -3.48751,-4.39399 c 0.1187,-0.0287 0.34642,-0.11634 0.50605,-0.19463 0.70677,-0.34665 1.1765,-0.9203 1.40072,-1.71065 0.0891,-0.31393 0.0963,-0.38443 0.0803,-0.78159 -0.0137,-0.33784 -0.0386,-0.50014 -0.11023,-0.71789 -0.28107,-0.85361 -0.93302,-1.48211 -1.82289,-1.75733 -0.22394,-0.0692 -0.3492,-0.0834 -0.73736,-0.0831 -0.41861,3e-4 -0.4996,0.0111 -0.77331,0.10312 -1.27932,0.43019 -2.02276,1.60594 -1.85026,2.92613 0.0802,0.61415 0.31354,1.06984 0.78965,1.54241 0.64294,0.63814 1.60308,0.89506 2.51732,0.67356 z m -10.51083,6.79832 c -0.22686,-0.0803 -0.46207,-0.35836 -0.51375,-0.60729 -0.0602,-0.28992 10e-4,-0.54187 0.18114,-0.74658 0.25322,-0.28767 0.27935,-0.29344 1.39068,-0.30707 0.63615,-0.008 1.04672,0.002 1.17452,0.0287 0.23338,0.0485 0.40947,0.17546 0.55011,0.39681 0.0899,0.14145 0.10275,0.19586 0.10213,0.43161 -5.8e-4,0.30645 -0.0503,0.42738 -0.25701,0.62813 -0.22052,0.21416 -0.35687,0.2355 -1.48428,0.23228 -0.78289,-0.002 -1.02357,-0.0142 -1.14354,-0.0567 z m 0.0655,-5.52266 c -0.11778,-0.0263 -0.20678,-0.0837 -0.34686,-0.22376 -0.1588,-0.15879 -0.1951,-0.22052 -0.23078,-0.39244 -0.0695,-0.33497 -0.003,-0.56685 0.23016,-0.79983 0.26049,-0.26048 0.35145,-0.27553 1.57608,-0.26068 1.07936,0.0131 1.12918,0.0221 1.35083,0.24372 0.19181,0.19181 0.23914,0.31286 0.23993,0.61361 5.9e-4,0.24433 -0.0104,0.28794 -0.11509,0.44961 -0.1364,0.2108 -0.29049,0.32302 -0.51364,0.37404 -0.20454,0.0467 -1.97728,0.0433 -2.19063,-0.005 z m 0.0374,-5.53481 c -0.43539,-0.0856 -0.71421,-0.55118 -0.61533,-1.0275 0.0358,-0.17238 0.0721,-0.23451 0.22772,-0.39018 0.25692,-0.25693 0.32856,-0.27009 1.47112,-0.27009 1.08005,0 1.22336,0.0234 1.44138,0.23513 0.20672,0.20076 0.2562,0.32168 0.257,0.62812 5.9e-4,0.2365 -0.0121,0.28971 -0.10292,0.43162 -0.25341,0.39579 -0.39246,0.43287 -1.60371,0.42768 -0.50509,-0.002 -0.98895,-0.0178 -1.07526,-0.0349 z"
       id="path4200"
       inkscape:connector-curvature="0" />
  </g>
</svg>
