<?xml version="1.0" encoding="UTF-8" standalone="no"?>
<!-- Created with Inkscape (http://www.inkscape.org/) -->

<svg
   xmlns:dc="http://purl.org/dc/elements/1.1/"
   xmlns:cc="http://creativecommons.org/ns#"
   xmlns:rdf="http://www.w3.org/1999/02/22-rdf-syntax-ns#"
   xmlns:svg="http://www.w3.org/2000/svg"
   xmlns="http://www.w3.org/2000/svg"
   xmlns:sodipodi="http://sodipodi.sourceforge.net/DTD/sodipodi-0.dtd"
   xmlns:inkscape="http://www.inkscape.org/namespaces/inkscape"
   width="32"
   height="32"
   viewBox="0 0 31.999999 31.999999"
   id="svg4211"
   version="1.1"
   inkscape:version="0.91 r13725"
   sodipodi:docname="investor.svg">
  <defs
     id="defs4213" />
  <sodipodi:namedview
     id="base"
     pagecolor="#ffffff"
     bordercolor="#666666"
     borderopacity="1.0"
     inkscape:pageopacity="0.0"
     inkscape:pageshadow="2"
     inkscape:zoom="31.678384"
     inkscape:cx="13.562244"
     inkscape:cy="14.36129"
     inkscape:document-units="px"
     inkscape:current-layer="layer1"
     showgrid="false"
     fit-margin-top="0"
     fit-margin-left="0"
     fit-margin-right="0"
     fit-margin-bottom="0"
     units="px"
     inkscape:window-width="1872"
     inkscape:window-height="1059"
     inkscape:window-x="48"
     inkscape:window-y="21"
     inkscape:window-maximized="1" />
  <metadata
     id="metadata4216">
    <rdf:RDF>
      <cc:Work
         rdf:about="">
        <dc:format>image/svg+xml</dc:format>
        <dc:type
           rdf:resource="http://purl.org/dc/dcmitype/StillImage" />
        <dc:title></dc:title>
      </cc:Work>
    </rdf:RDF>
  </metadata>
  <g
     inkscape:label="Layer 1"
     inkscape:groupmode="layer"
     id="layer1"
     transform="translate(-362.08343,-510.39792)">
    <path
       style="fill:#cccccc;fill-opacity:1;stroke:#000000;stroke-width:0.29999995;stroke-miterlimit:4;stroke-dasharray:none;stroke-opacity:1"
       d="m 374.71187,537.04349 c -2.11341,-0.94857 -3.87502,-1.75712 -3.91469,-1.79679 -0.0617,-0.0617 -0.0456,-0.14272 0.11176,-0.56309 0.22952,-0.61281 0.42142,-1.34476 0.5002,-1.90795 0.0514,-0.3678 0.0471,-0.51277 -0.0292,-0.97177 -0.17919,-1.07802 -0.47967,-1.94041 -1.2131,-3.48172 -0.7935,-1.66752 -1.14276,-2.54277 -1.3658,-3.42266 -0.49549,-1.95466 -0.17621,-4.23555 0.88448,-6.31891 0.38564,-0.75746 0.81588,-1.34906 1.48744,-2.04533 1.26939,-1.3161 2.43809,-1.96286 4.49081,-2.48522 1.21778,-0.3099 1.84357,-0.37919 3.13551,-0.34722 0.91579,0.0226 1.20201,0.0494 1.73112,0.1619 1.10062,0.23394 2.39546,0.70968 3.12671,1.14878 1.52402,0.91513 2.69961,2.37689 3.25411,4.04623 0.26003,0.78283 0.34862,1.27239 0.37923,2.09572 0.0322,0.86637 -0.0375,1.50803 -0.25408,2.34039 -0.13338,0.51245 -0.15101,0.65713 -0.129,1.05817 0.0309,0.56161 0.14285,0.90217 0.6554,1.99244 0.49033,1.043 0.57823,1.29724 0.57907,1.6748 8.2e-4,0.52408 -0.24394,0.86971 -0.66524,0.93808 -0.28818,0.0468 -0.34261,0.18144 -0.29894,0.7397 l 0.037,0.47268 -0.22051,0.20156 c -0.21045,0.19236 -0.2191,0.21187 -0.18958,0.42728 0.0396,0.28864 -0.0214,0.49572 -0.24275,0.82544 -0.21336,0.3177 -0.25703,0.45336 -0.38827,1.20653 -0.0558,0.31948 -0.15717,0.70275 -0.22555,0.85171 -0.22582,0.492 -0.7618,0.90933 -1.48327,1.15492 -0.43617,0.14848 -1.70809,0.13546 -2.64136,-0.0271 -0.99482,-0.17322 -0.92975,-0.22148 -1.78311,1.32234 -0.25456,0.46053 -0.64523,1.19803 -0.86815,1.63889 -0.3292,0.65103 -0.42526,0.80092 -0.5115,0.79818 -0.0585,-0.002 -1.83534,-0.77948 -3.94874,-1.72804 z m 3.8572,-10.17402 0.0146,-0.52357 0.34139,-0.0644 c 1.18213,-0.22305 1.92683,-1.16174 1.86445,-2.35013 -0.0276,-0.52716 -0.23821,-1.00123 -0.57262,-1.28936 -0.36173,-0.31166 -1.00464,-0.68057 -1.68105,-0.96464 -0.94867,-0.39838 -1.24556,-0.70315 -1.24556,-1.2786 0,-0.52675 0.2704,-0.89282 0.70348,-0.95239 0.37397,-0.0514 0.64179,0.0352 0.86184,0.27876 0.18381,0.20346 0.34399,0.61507 0.34399,0.88395 0,0.0799 0.0351,0.15338 0.0817,0.1713 0.0449,0.0172 0.36845,0.0314 0.71898,0.0314 0.76122,0 0.81278,-0.027 0.76784,-0.40242 -0.13327,-1.11323 -0.69994,-1.79829 -1.73683,-2.09973 l -0.29299,-0.0851 -0.0145,-0.60333 -0.0145,-0.60332 -0.43875,0 -0.43876,0 -0.0258,0.56614 -0.0258,0.56615 -0.38713,0.10746 c -0.77098,0.21402 -1.28537,0.61106 -1.57014,1.21198 -0.1479,0.31208 -0.15904,0.37558 -0.15845,0.90347 6.9e-4,0.62378 0.0535,0.84309 0.29598,1.22815 0.25947,0.41214 1.01103,0.92007 2.00401,1.35434 0.95152,0.41615 1.18106,0.66653 1.18164,1.28889 5.7e-4,0.61707 -0.33819,0.92914 -1.00863,0.92914 -0.31696,0 -0.39904,-0.0208 -0.61942,-0.15698 -0.30893,-0.19088 -0.47479,-0.46925 -0.52646,-0.88358 l -0.0376,-0.30154 -0.76122,-0.0142 -0.76121,-0.0142 0.002,0.29819 c 0.005,1.10763 0.67705,1.87306 1.90862,2.17279 l 0.38713,0.0942 0.0138,0.4609 c 0.008,0.25349 0.0247,0.49096 0.0379,0.52771 0.0175,0.0482 0.12802,0.0626 0.39913,0.0516 l 0.37498,-0.0152 0.0147,-0.52358 z"
       id="path4200"
       inkscape:connector-curvature="0"
       sodipodi:nodetypes="csccssssssccsscccsccccsccccccsscccccccccsccscssccccccccccccssscccccccccccccc" />
  </g>
</svg>
