<?xml version="1.0" encoding="UTF-8" standalone="no"?>
<svg
   xmlns:dc="http://purl.org/dc/elements/1.1/"
   xmlns:cc="http://creativecommons.org/ns#"
   xmlns:rdf="http://www.w3.org/1999/02/22-rdf-syntax-ns#"
   xmlns:svg="http://www.w3.org/2000/svg"
   xmlns="http://www.w3.org/2000/svg"
   xmlns:xlink="http://www.w3.org/1999/xlink"
   xmlns:sodipodi="http://sodipodi.sourceforge.net/DTD/sodipodi-0.dtd"
   xmlns:inkscape="http://www.inkscape.org/namespaces/inkscape"
   enable-background="new -27 24 100 100"
   height="100px"
   id="female1"
   version="1.1"
   viewBox="-27 24 100 100"
   width="100px"
   xml:space="preserve"
   inkscape:version="0.48.4 r9939"
   sodipodi:docname="female-avatar.svg"><metadata
     id="metadata73"><rdf:RDF><cc:Work
         rdf:about=""><dc:format>image/svg+xml</dc:format><dc:type
           rdf:resource="http://purl.org/dc/dcmitype/StillImage" /></cc:Work></rdf:RDF></metadata><defs
     id="defs71" /><sodipodi:namedview
     pagecolor="#ffffff"
     bordercolor="#666666"
     borderopacity="1"
     objecttolerance="10"
     gridtolerance="10"
     guidetolerance="10"
     inkscape:pageopacity="0"
     inkscape:pageshadow="2"
     inkscape:window-width="1863"
     inkscape:window-height="1059"
     id="namedview69"
     showgrid="false"
     inkscape:zoom="2.8284271"
     inkscape:cx="61.983969"
     inkscape:cy="81.245206"
     inkscape:window-x="57"
     inkscape:window-y="21"
     inkscape:window-maximized="1"
     inkscape:current-layer="female1"
     inkscape:object-paths="false" /><g
     id="g5"><path
       inkscape:connector-curvature="0"
       id="circle7"
       d="m 73,74 c 0,27.61424 -22.385763,50 -50,50 -27.6142375,0 -50,-22.38576 -50,-50 0,-27.614237 22.3857625,-50 50,-50 27.614237,0 50,22.385763 50,50 z"
       style="fill:#f5eee5" /><g
       id="g9"><defs
         id="defs11"><circle
           sodipodi:ry="50"
           sodipodi:rx="50"
           sodipodi:cy="74"
           sodipodi:cx="23"
           r="50"
           id="SVGID_1_"
           cy="74"
           cx="23" /></defs><clipPath
         id="SVGID_2_"><use
           height="100"
           width="100"
           y="0"
           x="0"
           style="overflow:visible"
           id="use15"
           xlink:href="#SVGID_1_"
           overflow="visible" /></clipPath><path
         inkscape:connector-curvature="0"
         id="rect17"
         d="m -3,65 31,0 0,43 -31,0 z"
         clip-path="url(#SVGID_2_)"
         style="fill:#d98c21" /><path
         inkscape:connector-curvature="0"
         id="rect19"
         d="m 18,61 31,0 0,47 -31,0 z"
         clip-path="url(#SVGID_2_)"
         style="fill:#cc751f" /><path
         style="fill:#e6c19c"
         inkscape:connector-curvature="0"
         id="path21"
         d="m 36,95.9 c 0,4 4.7,5.2 7.1,5.8 7.6,2 22.8,5.9 22.8,5.9 3.2,1.1 5.7,3.5 7.1,6.6 V 124 H -27 v -9.8 c 1.3,-3.1 3.9,-5.5 7.1,-6.6 0,0 15.2,-3.9 22.8,-5.9 2.4,-0.6 7.1,-1.8 7.1,-5.8 0,-4 0,-10.9 0,-10.9 h 26 c 0,0 0,6.9 0,10.9 z"
         clip-path="url(#SVGID_2_)" /><g
         id="g23"
         clip-path="url(#SVGID_2_)"><defs
           id="defs25"><path
             inkscape:connector-curvature="0"
             id="SVGID_3_"
             d="m 36,95.9 c 0,4 4.7,5.2 7.1,5.8 7.6,2 22.8,5.9 22.8,5.9 3.2,1.1 5.7,3.5 7.1,6.6 V 124 H -27 v -9.8 c 1.3,-3.1 3.9,-5.5 7.1,-6.6 0,0 15.2,-3.9 22.8,-5.9 2.4,-0.6 7.1,-1.8 7.1,-5.8 0,-4 0,-10.9 0,-10.9 h 26 c 0,0 0,6.9 0,10.9 z" /></defs><clipPath
           id="SVGID_4_"><use
             height="100"
             width="100"
             y="0"
             x="0"
             style="overflow:visible"
             id="use29"
             xlink:href="#SVGID_3_"
             overflow="visible" /></clipPath><path
           style="fill:#d4b08c"
           inkscape:connector-curvature="0"
           id="path31"
           d="m 23.2,35 0.2,0 0,0 c 3.3,0 8.2,0.2 11.4,2 3.3,1.9 7.3,5.6 8.5,12.1 2.4,13.7 -2.1,35.4 -6.3,42.4 -4,6.7 -9.8,9.2 -13.5,9.4 l -0.1,0 -0.2,0 -0.2,0 -0.1,0 C 19.2,100.7 13.4,98.2 9.4,91.5 5.2,84.5 0.7,62.8 3.1,49.1 4.3,42.6 8.3,38.9 11.6,37 14.8,35.2 19.7,35 23,35 l 0,0 0.2,0 z"
           clip-path="url(#SVGID_4_)" /><path
           style="fill:#6b363e"
           inkscape:connector-curvature="0"
           id="path33"
           d="M -27,82 H 73 v 42 H -27 V 82 z m 50,31 C 35.1,113 43.8,98.9 43.8,98.9 43.8,98.9 33.9,83 23,83 12.1,83 2.2,98.9 2.2,98.9 c 0,0 8.7,14.1 20.8,14.1 z"
           clip-path="url(#SVGID_4_)"
           transform="translate(-156.99153,-93.644068)" /><g
           id="g35"
           clip-path="url(#SVGID_4_)"><defs
             id="defs37"><path
               inkscape:connector-curvature="0"
               id="SVGID_5_"
               d="M -27,82 H 73 v 42 H -27 V 82 z m 50,31 C 35.1,113 43.8,98.9 43.8,98.9 43.8,98.9 33.9,83 23,83 12.1,83 2.2,98.9 2.2,98.9 c 0,0 8.7,14.1 20.8,14.1 z" /></defs><clipPath
             id="SVGID_6_"><use
               height="100"
               width="100"
               y="0"
               x="0"
               style="overflow:visible"
               id="use41"
               xlink:href="#SVGID_5_"
               overflow="visible" /></clipPath><path
             style="fill:#ffffff"
             inkscape:connector-curvature="0"
             id="path43"
             d="m 45.4,101.7 c -1.3,10 -9.3,17.3 -9.3,17.3 0,0 -8.2,-7 -10.2,-7.6 12.7,-7.6 17.1,-12 17.1,-12 0,0 3.6,-7.7 2.4,2.3 z m -44.7,0 C 2,111.8 10,119 10,119 c 0,0 8.2,-7 10.2,-7.6 -12.7,-7.6 -17.1,-12 -17.1,-12 0,0 -3.6,-7.7 -2.4,2.3 z"
             clip-path="url(#SVGID_6_)" /></g></g></g><path
       style="fill:#f2cea5"
       inkscape:connector-curvature="0"
       id="path45"
       d="m 23,40 c 19.1,0 20.7,13.8 20.8,15.1 1.1,11.9 -3,28.1 -6.8,33.7 -4,5.9 -9.8,8.1 -13.5,8.3 -0.2,0 -0.2,0 -0.3,0 L 23,97 C 19.2,96.8 13.4,94.6 9.4,88.7 5.6,83.1 1.5,66.9 2.6,54.9 2.7,53.7 3.9,40 23,40 z" /><path
       style="fill:#a3705f"
       inkscape:connector-curvature="0"
       id="path47"
       d="m 18.8,85 c -0.2,0 -0.4,0.4 -0.3,0.7 0.9,2.1 2.3,3.3 4.2,3.4 2,0.2 4.1,-1.2 5.2,-3.4 0.1,-0.3 0,-0.7 -0.3,-0.7 l -8.8,0 z" /><path
       inkscape:connector-curvature="0"
       id="circle49"
       d="m 34,69 c 0,1.104569 -0.895431,2 -2,2 -1.104569,0 -2,-0.895431 -2,-2 0,-1.104569 0.895431,-2 2,-2 1.104569,0 2,0.895431 2,2 z"
       style="fill:#262626" /><path
       inkscape:connector-curvature="0"
       id="circle51"
       d="m 16,69 c 0,1.104569 -0.895431,2 -2,2 -1.104569,0 -2,-0.895431 -2,-2 0,-1.104569 0.895431,-2 2,-2 1.104569,0 2,0.895431 2,2 z"
       style="fill:#262626" /><path
       style="fill:none;stroke:#cc9872;stroke-width:2"
       inkscape:connector-curvature="0"
       id="path53"
       d="m 8.5,64.2 c 0,0 1.4,-1.2 4.9,-1.2 2.5,0 4.9,0.7 6.4,2.6" /><path
       style="fill:none;stroke:#bb8660;stroke-width:2"
       inkscape:connector-curvature="0"
       id="path55"
       d="m 37.4,64.2 c 0,0 -1.4,-1.2 -4.9,-1.2 -3.5,0 -6.9,1.5 -7.7,5.7 -0.8,4.2 0.3,7.7 2.1,10.1" /><path
       style="fill:#e6a422"
       inkscape:connector-curvature="0"
       id="path57"
       d="m -3,69.3 c 2.4,-0.9 7.2,-3.5 12,-11.9 6.8,-12 17.2,-6.5 20.5,-2.6 0.4,0.4 0.9,0.2 0.9,0.2 0,0 8.6,-3.7 12,3.8 2.5,5.5 3.9,7.1 6.5,8.8 V 59.7 C 49,44.2 39.5,44 39.1,44 38.7,44 38.4,44 38.2,43.4 37.3,40.5 28,30.9 12.4,37 -3.2,43.1 -3,65 -3,65 v 4.3 z" /><g
       id="g59"><defs
         id="defs61"><path
           inkscape:connector-curvature="0"
           id="SVGID_7_"
           d="m -3,69.3 c 2.4,-0.9 7.2,-3.5 12,-11.9 6.8,-12 17.2,-6.5 20.5,-2.6 0.4,0.4 0.9,0.2 0.9,0.2 0,0 8.6,-3.7 12,3.8 2.5,5.5 3.9,7.1 6.5,8.8 V 59.7 C 49,44.2 39.5,44 39.1,44 38.7,44 38.4,44 38.2,43.4 37.3,40.5 28,30.9 12.4,37 -3.2,43.1 -3,65 -3,65 v 4.3 z" /></defs><clipPath
         id="SVGID_8_"><use
           height="100"
           width="100"
           y="0"
           x="0"
           style="overflow:visible"
           id="use65"
           xlink:href="#SVGID_7_"
           overflow="visible" /></clipPath><path
         style="fill:#d98c21"
         inkscape:connector-curvature="0"
         id="path67"
         d="m 29.8,55.6 c 0,0 3,-7.5 9,-12.1 6,-4.6 11.2,7.4 11.2,7.4 L 50.3,70.5 29.8,55.6 z"
         clip-path="url(#SVGID_8_)" /></g></g><path
     style="fill:#6792ab;fill-opacity:1"
     d="m 18.040979,123.67808 c -9.5160074,-0.96888 -18.81093737,-4.82315 -26.3771174,-10.93763 -2.3446206,-1.89476 -6.6885706,-6.22514 -6.3559306,-6.33607 0.64883,-0.21637 15.0400406,-3.89278 15.2381706,-3.89278 0.13047,0 0.35658,0.62919 0.50246,1.3982 0.57992,3.05705 2.78783,7.64748 5.30983,11.03959 1.39363,1.87444 3.36979,4.08764 3.6498324,4.08764 0.103089,0 1.64278,-1.17177 3.421535,-2.60392 1.778756,-1.43216 3.663127,-2.89688 4.187491,-3.25495 l 0.95339,-0.65102 1.588983,0.28043 c 2.102227,0.37102 3.841979,0.36576 5.845964,-0.0177 l 1.645951,-0.31492 2.345144,1.77708 c 1.289829,0.97739 3.179888,2.46385 4.200132,3.30324 1.088502,0.89555 1.979591,1.47835 2.156538,1.41045 0.466089,-0.17886 3.457555,-3.86091 4.698013,-5.78257 2.083864,-3.22821 3.768392,-7.14052 4.207178,-9.77115 0.0826,-0.49523 0.213313,-0.90353 0.290466,-0.90732 0.37415,-0.0184 15.28858,3.91181 15.28858,4.0288 0,0.29015 -4.590301,4.73804 -6.42696,6.22756 -6.845553,5.55172 -15.305716,9.28108 -24.081514,10.61547 -2.715996,0.41298 -9.547187,0.58061 -12.288136,0.30154 z"
     id="path3097"
     inkscape:connector-curvature="0" /><path
     style="fill:none;stroke:#000000;stroke-width:1px;stroke-linecap:butt;stroke-linejoin:miter;stroke-opacity:1"
     d="m 54.755832,88.314761 c -0.112358,0.224716 8.539214,6.666579 8.539214,6.666579 0,0 8.052328,-8.127234 9.101003,-16.554089 1.048676,-8.426855 1.048676,-8.426855 1.048676,-8.426855"
     id="path3881"
     inkscape:connector-curvature="0"
     transform="translate(-27,24)" /><path
     style="fill:none;stroke:#000000;stroke-width:1px;stroke-linecap:butt;stroke-linejoin:miter;stroke-opacity:1"
     d="m 45.430113,88.502024 c 0,0 -8.277045,6.591674 -8.35195,6.516768 C 37.003257,94.943887 27.902254,84.344776 27.602632,78.389798 27.303011,72.43482 27.303011,72.43482 27.303011,72.43482"
     id="path3887"
     inkscape:connector-curvature="0"
     transform="translate(-27,24)" /><rect
     style="fill:#cc751f;fill-opacity:1"
     id="rect3923"
     width="2.40625"
     height="9.5625"
     x="71.90625"
     y="68.09375"
     transform="translate(-27,24)" /><rect
     style="fill:#d98c21;fill-opacity:1"
     id="rect3945"
     width="2.7400389"
     height="11.578874"
     x="25.897785"
     y="66.147263"
     transform="translate(-27,24)"
     ry="0.015625" /><path
     style="fill:none;stroke:#d98c21;stroke-width:0.86869299px;stroke-linecap:butt;stroke-linejoin:miter;stroke-opacity:1"
     d="m -0.47971601,102.13596 c 0.0349326,-0.0158 1.91255651,-0.5063 1.91255651,-0.5063"
     id="path3975"
     inkscape:connector-curvature="0" /><path
     style="fill:#cc751f;fill-opacity:1;stroke:#d98c21;stroke-width:0.02209709;stroke-opacity:1"
     d="m 74.434364,78.821433 c -0.830927,-0.217261 -1.513286,-0.397971 -1.516355,-0.401577 -0.0031,-0.0036 0.01265,-0.145769 0.03492,-0.315916 0.02228,-0.170148 0.04089,-0.341676 0.04137,-0.381175 l 8.73e-4,-0.07182 -0.508233,0 c -0.279528,0 -0.508548,0.0075 -0.508933,0.01657 -0.0023,0.05519 -0.06321,0.474548 -0.06986,0.481193 -0.008,0.008 -2.368281,-0.601047 -2.9236,-0.754366 -3.530641,-0.97478 -5.43437,-2.450183 -5.874931,-4.553114 -0.09692,-0.462617 -0.102331,-0.661286 -0.102331,-3.755847 l 0,-2.928398 0.128512,-0.158467 c 0.322343,-0.397477 0.758712,-1.009628 1.089574,-1.528486 0.931636,-1.460991 1.896122,-3.59037 2.814947,-6.214806 l 0.172132,-0.49166 4.382913,0 4.382912,0 0,10.728136 c 0,5.900475 -0.0075,10.727373 -0.01657,10.726441 -0.0091,-9.33e-4 -0.696422,-0.179454 -1.527349,-0.396715 z"
     id="path3989"
     inkscape:connector-curvature="0"
     transform="translate(-27,24)" /><path
     style="fill:none;stroke:#cc7420;stroke-width:1px;stroke-linecap:butt;stroke-linejoin:miter;stroke-opacity:1"
     d="m 44.020038,101.37258 c 0.198873,0.0884 3.314563,0.92808 3.314563,0.92808"
     id="path4009"
     inkscape:connector-curvature="0" /></svg>