<?xml version="1.0" encoding="UTF-8" standalone="no"?>
<svg
   xmlns:dc="http://purl.org/dc/elements/1.1/"
   xmlns:cc="http://creativecommons.org/ns#"
   xmlns:rdf="http://www.w3.org/1999/02/22-rdf-syntax-ns#"
   xmlns:svg="http://www.w3.org/2000/svg"
   xmlns="http://www.w3.org/2000/svg"
   xmlns:sodipodi="http://sodipodi.sourceforge.net/DTD/sodipodi-0.dtd"
   xmlns:inkscape="http://www.inkscape.org/namespaces/inkscape"
   enable-background="new 0 0 128 128"
   height="128px"
   id="Layer_1"
   version="1.1"
   viewBox="0 0 128 128"
   width="128px"
   xml:space="preserve"
   inkscape:version="0.91 r13725"
   sodipodi:docname="about128x128.svg"><metadata
     id="metadata11"><rdf:RDF><cc:Work
         rdf:about=""><dc:format>image/svg+xml</dc:format><dc:type
           rdf:resource="http://purl.org/dc/dcmitype/StillImage" /><dc:title></dc:title></cc:Work></rdf:RDF></metadata><defs
     id="defs9" /><sodipodi:namedview
     pagecolor="#ffffff"
     bordercolor="#666666"
     borderopacity="1"
     objecttolerance="10"
     gridtolerance="10"
     guidetolerance="10"
     inkscape:pageopacity="0"
     inkscape:pageshadow="2"
     inkscape:window-width="1868"
     inkscape:window-height="1059"
     id="namedview7"
     showgrid="false"
     inkscape:zoom="1.84375"
     inkscape:cx="64"
     inkscape:cy="64"
     inkscape:window-x="52"
     inkscape:window-y="21"
     inkscape:window-maximized="1"
     inkscape:current-layer="Layer_1" /><path
     d="M106,24c3.3,0,6,2.7,6,6v60c0,3.3-2.7,6-6,6H95h-4v4v6.9l-13-10L77,96h-1.4H23c-3.3,0-6-2.7-6-6V30  c0-3.3,2.7-6,6-6H106 M106,20H23c-5.5,0-10,4.5-10,10v60c0,5.5,4.5,10,10,10h52.6L95,115v-15h11c5.5,0,10-4.5,10-10V30  C116,24.5,111.5,20,106,20L106,20z"
     id="path3"
     style="fill:#ffffff;fill-opacity:1"
     fill="#3B97D3" /><path
     d="M71.4,61.1c-4.3,3.2-4.5,4.4-4.5,6.1V69h-6.4c0,0-1.9-2-1.9-5.5c0-1.6,1.1-3.1,4.3-5.6c4.4-3.5,5-4.4,5-6.7  c0-2-1.1-3.5-5.1-3.5s-8.6,1-8.6,1l-0.4-6.1c0,0,5.2-2.1,10.2-2.1c8.6,0,12.3,2.9,12.3,9.8C76.3,55.8,75.5,57.9,71.4,61.1z   M59.1,72.3h8.6V82h-8.6V72.3z"
     id="path5"
     fill="#2C3E50"
     style="fill:#ffffff;fill-opacity:1" /></svg>