<?xml version="1.0" encoding="UTF-8" standalone="no"?>
<!-- Created with Inkscape (http://www.inkscape.org/) -->

<svg
   xmlns:dc="http://purl.org/dc/elements/1.1/"
   xmlns:cc="http://creativecommons.org/ns#"
   xmlns:rdf="http://www.w3.org/1999/02/22-rdf-syntax-ns#"
   xmlns:svg="http://www.w3.org/2000/svg"
   xmlns="http://www.w3.org/2000/svg"
   xmlns:sodipodi="http://sodipodi.sourceforge.net/DTD/sodipodi-0.dtd"
   xmlns:inkscape="http://www.inkscape.org/namespaces/inkscape"
   id="svg4295"
   version="1.1"
   inkscape:version="0.91 r13725"
   width="32.000031"
   height="32.005985"
   viewBox="0 0 32.000031 32.005985"
   sodipodi:docname="about128x128.svg">
  <metadata
     id="metadata4301">
    <rdf:RDF>
      <cc:Work
         rdf:about="">
        <dc:format>image/svg+xml</dc:format>
        <dc:type
           rdf:resource="http://purl.org/dc/dcmitype/StillImage" />
        <dc:title></dc:title>
      </cc:Work>
    </rdf:RDF>
  </metadata>
  <defs
     id="defs4299" />
  <sodipodi:namedview
     pagecolor="#ffffff"
     bordercolor="#666666"
     borderopacity="1"
     objecttolerance="10"
     gridtolerance="10"
     guidetolerance="10"
     inkscape:pageopacity="0"
     inkscape:pageshadow="2"
     inkscape:window-width="1872"
     inkscape:window-height="1059"
     id="namedview4297"
     showgrid="false"
     fit-margin-top="0"
     fit-margin-left="0"
     fit-margin-right="0"
     fit-margin-bottom="0"
     inkscape:zoom="14.75"
     inkscape:cx="4.2342314"
     inkscape:cy="14.473407"
     inkscape:window-x="48"
     inkscape:window-y="21"
     inkscape:window-maximized="1"
     inkscape:current-layer="svg4295" />
  <path
     style="fill:#ff75ff;fill-opacity:0;stroke:#ffffff;stroke-opacity:1;stroke-width:0.8;stroke-miterlimit:4;stroke-dasharray:none"
     d="M 15.115213,30.989176 C 10.632251,30.708714 6.5771645,28.500782 3.9042795,24.884979 2.3160622,22.736474 1.36436,20.267627 1.0621009,17.511932 c -0.0827812,-0.754527 -0.0827812,-2.267566 0,-3.022094 C 1.3863537,11.533622 2.4696808,8.8852249 4.2848479,6.6112083 4.7404724,6.040412 5.9214963,4.8438631 6.4692208,4.3981197 8.8056842,2.4966934 11.447604,1.3980569 14.490445,1.0624979 c 0.753261,-0.0830625 2.265879,-0.0830625 3.01914,0 3.00341,0.331209 5.575936,1.3872643 7.899874,3.2429969 0.549019,0.4384027 1.487821,1.3447019 1.952614,1.8850014 2.027098,2.3563853 3.230303,5.1489518 3.575856,8.2993418 0.08278,0.754528 0.08278,2.267567 0,3.022094 -0.378918,3.454516 -1.804208,6.505907 -4.175771,8.939851 -2.493701,2.559289 -5.681629,4.108168 -9.223426,4.481265 -0.619124,0.06525 -1.82996,0.09328 -2.423519,0.05616 z m 2.473826,-2.36426 c 3.260406,-0.451397 6.055166,-1.976689 8.14292,-4.444168 1.614523,-1.908176 2.586054,-4.165459 2.914404,-6.771406 0.07247,-0.574996 0.06131,-2.382251 -0.01838,-2.979419 -0.454369,-3.404941 -2.157495,-6.3938379 -4.827971,-8.4727985 -1.807367,-1.4070361 -3.882053,-2.2673697 -6.2333,-2.584835 -0.659737,-0.089062 -2.473629,-0.089062 -3.133366,0 C 11.001485,3.8356578 8.0524225,5.5159281 5.952715,8.2042443 4.5671851,9.9781708 3.7010672,12.061556 3.3720331,14.411867 c -0.090375,0.645346 -0.090187,2.534069 3.656e-4,3.178047 0.3484403,2.481541 1.2761988,4.626202 2.8076786,6.490353 0.3905622,0.475396 1.1506208,1.239346 1.6584454,1.66692 1.9017919,1.601249 4.2991923,2.630276 6.7351713,2.89091 0.198628,0.02128 0.418022,0.04528 0.487547,0.05334 0.311071,0.03609 2.13327,-0.01181 2.527985,-0.06647 z m -5.994951,-3.9712 0,-0.592405 0.80354,-0.01547 c 0.53669,-0.01031 0.845521,-0.03112 0.929933,-0.06263 0.205809,-0.07678 0.364659,-0.216994 0.4467,-0.394378 0.07678,-0.166031 0.07697,-0.175509 0.08681,-3.933493 0.0075,-2.702632 -0.0019,-3.809649 -0.03075,-3.917771 -0.05644,-0.209625 -0.286115,-0.4281 -0.554952,-0.527915 -0.275278,-0.102207 -0.769303,-0.144647 -1.401402,-0.120385 l -0.496565,0.01903 0,-0.582947 0,-0.582946 0.175209,0 c 0.190106,0 5.974841,-0.202706 6.550672,-0.229547 l 0.351731,-0.01641 0.0094,4.89907 c 0.0094,4.71204 0.012,4.904283 0.07734,5.03573 0.15135,0.304612 0.559819,0.421528 1.47598,0.422484 l 0.604912,6.28e-4 0,0.595884 0,0.595884 -4.514274,0 -4.514264,0 0,-0.592406 z m 3.739103,-12.735691 c -0.589172,-0.09159 -1.171237,-0.404915 -1.551355,-0.835068 -0.492009,-0.556762 -0.736528,-1.3366016 -0.638587,-2.0366697 0.08672,-0.6199401 0.327543,-1.1054802 0.762299,-1.5369361 0.22035,-0.2186717 0.347766,-0.3099841 0.617268,-0.442359 0.453581,-0.2227779 0.72164,-0.2876716 1.188281,-0.2876716 0.465983,0 0.734708,0.064875 1.18557,0.2863216 0.271603,0.1333968 0.394669,0.2226092 0.635053,0.4604246 0.246834,0.2441717 0.327178,0.3540372 0.466621,0.6380432 0.224456,0.4571714 0.289322,0.724368 0.289322,1.1917676 0,0.4542558 -0.06525,0.7355334 -0.263925,1.1375994 -0.270084,0.54659 -0.628865,0.905314 -1.175043,1.174864 -0.158906,0.07837 -0.382593,0.166294 -0.49708,0.195272 -0.277772,0.07031 -0.752934,0.09569 -1.018424,0.05437 z"
     id="path4845"
     inkscape:connector-curvature="0" />
</svg>
