<?xml version="1.0" encoding="UTF-8" standalone="no"?>
<svg
   xmlns:dc="http://purl.org/dc/elements/1.1/"
   xmlns:cc="http://creativecommons.org/ns#"
   xmlns:rdf="http://www.w3.org/1999/02/22-rdf-syntax-ns#"
   xmlns:svg="http://www.w3.org/2000/svg"
   xmlns="http://www.w3.org/2000/svg"
   xmlns:sodipodi="http://sodipodi.sourceforge.net/DTD/sodipodi-0.dtd"
   xmlns:inkscape="http://www.inkscape.org/namespaces/inkscape"
   enable-background="new 0 0 128 128"
   height="128px"
   id="Layer_1"
   version="1.1"
   viewBox="0 0 128 128"
   width="128px"
   xml:space="preserve"
   inkscape:version="0.91 r13725"
   sodipodi:docname="contact128x128.svg"><metadata
     id="metadata4214"><rdf:RDF><cc:Work
         rdf:about=""><dc:format>image/svg+xml</dc:format><dc:type
           rdf:resource="http://purl.org/dc/dcmitype/StillImage" /><dc:title></dc:title></cc:Work></rdf:RDF></metadata><defs
     id="defs4212" /><sodipodi:namedview
     pagecolor="#ffffff"
     bordercolor="#666666"
     borderopacity="1"
     objecttolerance="10"
     gridtolerance="10"
     guidetolerance="10"
     inkscape:pageopacity="0"
     inkscape:pageshadow="2"
     inkscape:window-width="1868"
     inkscape:window-height="1059"
     id="namedview4210"
     showgrid="false"
     inkscape:zoom="5.1265242"
     inkscape:cx="29.37746"
     inkscape:cy="59.315102"
     inkscape:window-x="52"
     inkscape:window-y="21"
     inkscape:window-maximized="1"
     inkscape:current-layer="Layer_1" /><path
     d="M63,7.8c-20.3,0-36.8,16.5-36.8,36.8c0,36.8,36.8,58.7,36.8,58.7S99.8,84,99.8,44.6  C99.8,24.2,83.3,7.8,63,7.8z M63.1,98.5c-7.3-5-32.9-24.7-32.9-54c0-18.1,14.7-32.8,32.8-32.8s32.8,14.7,32.8,32.8  C95.8,75.9,70.5,93.9,63.1,98.5z"
     fill="#2C3E50"
     id="path4204"
     style="fill:#ffffff;fill-opacity:1" /><path
     d="M63,21c13.2,0,24,10.8,24,24S76.2,69,63,69S39,58.2,39,45S49.8,21,63,21 M63,19c-14.4,0-26,11.6-26,26  s11.6,26,26,26s26-11.6,26-26S77.4,19,63,19L63,19z"
     fill="#2C3E50"
     id="path4206"
     style="fill:#ffffff;fill-opacity:1" /><path
     d="M89.5,81.8c-0.4,0.6-0.8,1.2-1.3,1.7c15.1,3.3,24.2,9.3,24.2,15c0,8.4-19.8,17.5-49.4,17.5  s-49.4-9-49.4-17.5c0-5.8,9.3-11.8,24.6-15.1c-0.4-0.6-0.9-1.1-1.3-1.7c-15.2,3.4-25.3,9.6-25.3,16.8c0,10.8,23,19.5,51.4,19.5  s51.4-8.7,51.4-19.5C114.5,91.4,104.5,85.2,89.5,81.8z"
     fill="#3B97D3"
     id="path4208"
     style="fill:#ffffff;fill-opacity:1" /></svg>