<?xml version="1.0" encoding="UTF-8" standalone="no"?>
<svg
   xmlns:dc="http://purl.org/dc/elements/1.1/"
   xmlns:cc="http://creativecommons.org/ns#"
   xmlns:rdf="http://www.w3.org/1999/02/22-rdf-syntax-ns#"
   xmlns:svg="http://www.w3.org/2000/svg"
   xmlns="http://www.w3.org/2000/svg"
   xmlns:sodipodi="http://sodipodi.sourceforge.net/DTD/sodipodi-0.dtd"
   xmlns:inkscape="http://www.inkscape.org/namespaces/inkscape"
   enable-background="new 0 0 48 48"
   height="32"
   id="Layer_1"
   version="1.1"
   viewBox="0 0 32 32"
   width="32"
   xml:space="preserve"
   inkscape:version="0.91 r13725"
   sodipodi:docname="news.svg"><metadata
     id="metadata5108"><rdf:RDF><cc:Work
         rdf:about=""><dc:format>image/svg+xml</dc:format><dc:type
           rdf:resource="http://purl.org/dc/dcmitype/StillImage" /><dc:title></dc:title></cc:Work></rdf:RDF></metadata><defs
     id="defs5106" /><sodipodi:namedview
     pagecolor="#ffffff"
     bordercolor="#666666"
     borderopacity="1"
     objecttolerance="10"
     gridtolerance="10"
     guidetolerance="10"
     inkscape:pageopacity="0"
     inkscape:pageshadow="2"
     inkscape:window-width="1868"
     inkscape:window-height="1059"
     id="namedview5104"
     showgrid="false"
     fit-margin-top="0"
     fit-margin-left="0"
     fit-margin-right="0"
     fit-margin-bottom="0"
     inkscape:zoom="4.9166667"
     inkscape:cx="14.826087"
     inkscape:cy="15.5"
     inkscape:window-x="52"
     inkscape:window-y="21"
     inkscape:window-maximized="1"
     inkscape:current-layer="Layer_1" /><path
     d="m 27.299558,31.389831 0,0 -22.9130438,0 0,0 c -1.861348,0 -3.369565,-1.508217 -3.369565,-3.369565 l 0,-26.9565225 c 0,-0.37199999 0.3012392,-0.67391299 0.6739131,-0.67391299 l 0,0 22.9130437,0 0,0 c 0.279,0 0.518913,0.1698261 0.621347,0.4117609 0.0337,0.080196 0.05257,0.1691521 0.05257,0.26215209 l 0,0 0,9.4347835 4.717391,0 c 0.372674,0 0.673913,0.301913 0.673913,0.673913 l 0,16.847826 c 0,1.861348 -1.508217,3.369565 -3.369565,3.369565 z m -3.369565,-3.369565 0,-26.2826094 -21.5652178,0 0,26.2826094 0,0 0,0 c 0,1.116674 0.905739,2.021739 2.021739,2.021739 l 20.2322178,0 c -0.425913,-0.564739 -0.688739,-1.259544 -0.688739,-2.021739 z m 5.391304,-16.173913 -4.043478,0 0,16.173913 c 0,1.116674 0.905065,2.021739 2.021739,2.021739 1.116674,0 2.021739,-0.905065 2.021739,-2.021739 l 0,-16.173913 z M 4.3865142,26.67244 c 0,-0.372 0.301239,-0.673913 0.673913,-0.673913 l 6.0652178,0 c 0.372674,0 0.673913,0.301913 0.673913,0.673913 0,0.372674 -0.301239,0.673913 -0.673913,0.673913 l -6.0652178,0 c -0.372674,0 -0.673913,-0.301239 -0.673913,-0.673913 z m 3.144479,-10.974674 c -0.256761,0.256761 -0.67324,0.256761 -0.930674,0 -0.256761,-0.256761 -0.256761,-0.673913 0,-0.930674 l 3.9794558,-3.979457 c 0.02156,-0.03167 0.03572,-0.06807 0.06402,-0.09637 0.132761,-0.132761 0.307978,-0.194087 0.481848,-0.190044 0.173869,-0.004 0.349087,0.05661 0.481848,0.190044 0.0283,0.0283 0.04178,0.06469 0.06402,0.09637 l 2.823696,2.823696 1.475869,-1.47587 c 0.02157,-0.03167 0.03572,-0.06806 0.06402,-0.09637 0.132761,-0.132761 0.307978,-0.194087 0.481848,-0.18937 0.17387,-0.0047 0.349087,0.05661 0.481848,0.18937 0.0283,0.0283 0.04178,0.0647 0.06402,0.09637 l 2.63163,2.631631 c 0.256761,0.256761 0.256761,0.673913 0,0.930674 -0.257435,0.256761 -0.673913,0.256761 -0.930674,0 l -2.246826,-2.246826 -1.091065,1.091065 0.225087,0.225087 c 0.256761,0.256761 0.256761,0.673913 0,0.930674 -0.256761,0.256761 -0.673913,0.256761 -0.930674,0 l -3.594652,-3.594652 -3.5946518,3.594652 z m 7.6381298,3.56163 6.065217,0 c 0.372674,0 0.673913,0.301913 0.673913,0.673913 0,0.372674 -0.301239,0.673913 -0.673913,0.673913 l -6.065217,0 c -0.372674,0 -0.673913,-0.301239 -0.673913,-0.673913 0,-0.372 0.301239,-0.673913 0.673913,-0.673913 z m 0,3.369565 6.065217,0 c 0.372674,0 0.673913,0.301913 0.673913,0.673913 0,0.372674 -0.301239,0.673914 -0.673913,0.673914 l -6.065217,0 c -0.372674,0 -0.673913,-0.30124 -0.673913,-0.673914 0,-0.372 0.301239,-0.673913 0.673913,-0.673913 z m 0,3.369566 6.065217,0 c 0.372674,0 0.673913,0.301913 0.673913,0.673913 0,0.372674 -0.301239,0.673913 -0.673913,0.673913 l -6.065217,0 c -0.372674,0 -0.673913,-0.301239 -0.673913,-0.673913 0,-0.372 0.301239,-0.673913 0.673913,-0.673913 z M 15.843036,10.16157 c 0,0.558674 -0.45287,1.01087 -1.01087,1.01087 -0.558,0 -1.010869,-0.452196 -1.010869,-1.01087 0,-0.5586745 0.452869,-1.0108695 1.010869,-1.0108695 0.558,0 1.01087,0.452195 1.01087,1.0108695 z m 2.021739,-3.7065225 -9.4347818,0 c -0.372674,0 -0.673914,-0.301913 -0.673914,-0.673913 0,-0.372 0.30124,-0.673913 0.673914,-0.673913 l 9.4347818,0 c 0.372674,0 0.673913,0.301913 0.673913,0.673913 0,0.372 -0.301239,0.673913 -0.673913,0.673913 z M 5.0604272,22.628961 l 6.0652178,0 c 0.372674,0 0.673913,0.301913 0.673913,0.673913 0,0.372674 -0.301239,0.673914 -0.673913,0.673914 l -6.0652178,0 c -0.372674,0 -0.673913,-0.30124 -0.673913,-0.673914 0,-0.372 0.301239,-0.673913 0.673913,-0.673913 z m 6.7391308,-2.695652 c 0,0.372674 -0.301239,0.673913 -0.673913,0.673913 l -6.0652178,0 c -0.372674,0 -0.673913,-0.301239 -0.673913,-0.673913 0,-0.372 0.301239,-0.673913 0.673913,-0.673913 l 6.0652178,0 c 0.372674,0 0.673913,0.301913 0.673913,0.673913 z"
     id="path5102"
     style="clip-rule:evenodd;fill:#ffffff;fill-opacity:1;fill-rule:evenodd"
     inkscape:connector-curvature="0" /></svg>