<?xml version="1.0" encoding="UTF-8" standalone="no"?>
<svg
   xmlns:dc="http://purl.org/dc/elements/1.1/"
   xmlns:cc="http://creativecommons.org/ns#"
   xmlns:rdf="http://www.w3.org/1999/02/22-rdf-syntax-ns#"
   xmlns:svg="http://www.w3.org/2000/svg"
   xmlns="http://www.w3.org/2000/svg"
   xmlns:sodipodi="http://sodipodi.sourceforge.net/DTD/sodipodi-0.dtd"
   xmlns:inkscape="http://www.inkscape.org/namespaces/inkscape"
   enable-background="new 0 0 128 128"
   height="128px"
   id="Layer_1"
   version="1.1"
   viewBox="0 0 128 128"
   width="128px"
   xml:space="preserve"
   inkscape:version="0.91 r13725"
   sodipodi:docname="register128x128.svg"><metadata
     id="metadata4859"><rdf:RDF><cc:Work
         rdf:about=""><dc:format>image/svg+xml</dc:format><dc:type
           rdf:resource="http://purl.org/dc/dcmitype/StillImage" /><dc:title></dc:title></cc:Work></rdf:RDF></metadata><defs
     id="defs4857" /><sodipodi:namedview
     pagecolor="#ffffff"
     bordercolor="#666666"
     borderopacity="1"
     objecttolerance="10"
     gridtolerance="10"
     guidetolerance="10"
     inkscape:pageopacity="0"
     inkscape:pageshadow="2"
     inkscape:window-width="1868"
     inkscape:window-height="1059"
     id="namedview4855"
     showgrid="false"
     inkscape:zoom="1.84375"
     inkscape:cx="64"
     inkscape:cy="64"
     inkscape:window-x="52"
     inkscape:window-y="21"
     inkscape:window-maximized="1"
     inkscape:current-layer="Layer_1" /><path
     d="M100,99.9v7.9c0,3.3-2.2,6.2-5.5,6.2h-63c-3.3,0-6.5-2.9-6.5-6.2v-89c0-3.3,3.2-5.8,6.5-5.8h63  c3.3,0,5.5,2.5,5.5,5.8v48.9l4-4V18.8c0-5.5-4-9.8-9.5-9.8h-63C26,9,21,13.3,21,18.8v89c0,5.5,5,10.2,10.5,10.2h63  c5.5,0,9.5-4.7,9.5-10.2V95.9L100,99.9z"
     fill="#3B97D3"
     id="path4847"
     style="fill:#ffffff;fill-opacity:1" /><path
     d="M120.7,70.2c0-0.5-0.2-0.9-0.6-1.2c0,0,0,0,0,0l-5.2-5.2c0,0,0,0,0,0c-0.3-0.3-0.8-0.5-1.3-0.6l-4.9-0.3  c-0.6,0-1.1,0.2-1.5,0.5c0,0,0,0,0,0L82.4,88.2c-0.8,0.8-0.8,2,0,2.8c0.4,0.4,0.9,0.6,1.4,0.6s1-0.2,1.4-0.6l24.2-24.2l3.3,0.2  l4.1,4.1l0.2,3.3L92.8,98.6c-0.8,0.8-0.8,2,0,2.8c0.4,0.4,0.9,0.6,1.4,0.6s1-0.2,1.4-0.6l24.8-24.8c0.4-0.4,0.6-1,0.6-1.5  c0,0,0,0,0,0L120.7,70.2z"
     fill="#2C3E50"
     id="path4849"
     style="fill:#ffffff;fill-opacity:1" /><path
     d="M89.4,95.6l23.9-23.9c0.4-0.4,0.4-1,0-1.4s-1-0.4-1.4,0L88,94.2c-0.4,0.4-0.4,1,0,1.4  c0.2,0.2,0.5,0.3,0.7,0.3S89.2,95.8,89.4,95.6z"
     fill="#2C3E50"
     id="path4851"
     style="fill:#ffffff;fill-opacity:1" /><path
     d="M89.8,102l-7,1.6l-2.7-2.7l1.7-7c0.3-1.1-0.4-2.2-1.5-2.4c-1.1-0.3-2.2,0.4-2.4,1.5l-3.2,13.7  c-0.3,1.1,0.4,2.2,1.5,2.4c0.2,0,0.3,0.1,0.5,0.1c0.2,0,0.3,0,0.5-0.1c0,0,0,0,0,0l13.7-3.2c1.1-0.3,1.7-1.3,1.5-2.4  C92,102.4,90.9,101.8,89.8,102z"
     fill="#2C3E50"
     id="path4853"
     style="fill:#ffffff;fill-opacity:1" /></svg>