<?xml version="1.0" encoding="UTF-8" standalone="no"?>
<!-- Created with Inkscape (http://www.inkscape.org/) -->

<svg
   xmlns:dc="http://purl.org/dc/elements/1.1/"
   xmlns:cc="http://creativecommons.org/ns#"
   xmlns:rdf="http://www.w3.org/1999/02/22-rdf-syntax-ns#"
   xmlns:svg="http://www.w3.org/2000/svg"
   xmlns="http://www.w3.org/2000/svg"
   xmlns:sodipodi="http://sodipodi.sourceforge.net/DTD/sodipodi-0.dtd"
   xmlns:inkscape="http://www.inkscape.org/namespaces/inkscape"
   id="svg2"
   version="1.1"
   inkscape:version="0.91 r13725"
   width="38"
   height="38"
   viewBox="0 0 38 38"
   sodipodi:docname="clean.svg">
  <metadata
     id="metadata8">
    <rdf:RDF>
      <cc:Work
         rdf:about="">
        <dc:format>image/svg+xml</dc:format>
        <dc:type
           rdf:resource="http://purl.org/dc/dcmitype/StillImage" />
        <dc:title></dc:title>
      </cc:Work>
    </rdf:RDF>
  </metadata>
  <defs
     id="defs6" />
  <sodipodi:namedview
     pagecolor="#ffffff"
     bordercolor="#666666"
     borderopacity="1"
     objecttolerance="10"
     gridtolerance="10"
     guidetolerance="10"
     inkscape:pageopacity="0"
     inkscape:pageshadow="2"
     inkscape:window-width="1872"
     inkscape:window-height="1059"
     id="namedview4"
     showgrid="false"
     inkscape:zoom="11.313708"
     inkscape:cx="4.6843209"
     inkscape:cy="13.30133"
     inkscape:window-x="48"
     inkscape:window-y="21"
     inkscape:window-maximized="1"
     inkscape:current-layer="svg2" />
  <path
     style="fill:#cccccc;fill-opacity:1;stroke:#000000;stroke-opacity:1;stroke-width:0.5;stroke-miterlimit:4;stroke-dasharray:none"
     d="m 26.910265,37.24944 c -1.09402,-0.76628 -1.19189,-2.2599 -0.20263,-3.09231 1.47841,-1.244 3.68978,0.19953 3.08994,2.01705 -0.4001,1.21231 -1.89618,1.76947 -2.88731,1.07526 z m 5.33098,-3.74585 c -0.82083,-0.33072 -1.04427,-1.48938 -0.41704,-2.16262 0.71847,-0.7712 2.03693,-0.34616 2.2938,0.73946 0.0947,0.40016 0.008,0.60916 -0.4361,1.05342 -0.58158,0.58158 -0.7852,0.63384 -1.44066,0.36974 z m -13.61489,-0.26062 c -1.56434,-0.43478 -3.8953,-1.56428 -5.74628,-2.78442 C 10.681885,29.00953 7.2932631,25.70159 5.8649871,23.61049 4.185821,21.15207 2.68759,17.79696 2.68759,16.49509 c 0,-0.84687 0.346301,-0.98978 2.3346571,-0.96339 4.901788,0.065 9.1596179,-1.39844 12.4867779,-4.29191 1.79558,-1.5615298 2.6609,-1.9680498 4.21959,-1.9823198 3.44947,-0.0316 5.86188,3.1734698 4.89418,6.5022598 -0.204,0.70171 -0.61383,1.38996 -1.3555,2.27632 -1.46589,1.75188 -1.92766,2.39293 -2.56482,3.56055 -1.38125,2.53123 -2.08003,5.53917 -2.07633,8.93771 0.002,1.99485 -0.0385,2.29167 -0.35745,2.61066 -0.40858,0.40858 -0.50435,0.41429 -1.64234,0.098 z m -0.0338,-4.46068 c 0.34429,-3.51833 1.30546,-6.60263 2.80581,-9.00361 l 0.73531,-1.1767 -2.30582,-2.30418 -2.30581,-2.30418 -0.59288,0.35247 c -3.478,2.06769 -7.3080599,3.2171 -10.7272599,3.21928 -1.321503,9.1e-4 -1.319717,-0.006 -0.458324,1.70786 0.396802,0.78941 0.495954,0.87244 0.938096,0.78556 0.271919,-0.0534 0.897794,-0.15263 1.390837,-0.22043 0.493041,-0.0678 1.379291,-0.26947 1.9694409,-0.44815 0.59016,-0.17869 1.07301,-0.29575 1.07301,-0.26015 0,0.18698 -1.8682899,1.79603 -2.6934599,2.31972 -0.52416,0.33266 -0.95698,0.67878 -0.961822,0.76916 -0.01962,0.36628 2.483232,3.22495 2.8235419,3.22495 0.26327,0 2.73225,-1.86985 3.84168,-2.90944 0.5685,-0.53273 0.7987,-0.67656 0.62134,-0.38824 -0.15497,0.25191 -0.63594,1.0351 -1.06884,1.74044 -1.21626,1.98169 -1.70737,3.18669 -1.43333,3.51689 0.31298,0.37712 2.44965,1.88764 2.67012,1.88764 0.0991,0 0.44237,-0.49186 0.76278,-1.09301 0.71392,-1.33946 0.86642,-1.45261 0.79008,-0.58622 -0.0326,0.36938 0.008,1.12478 0.0907,1.67866 0.13512,0.90804 0.21266,1.03777 0.78863,1.31943 0.35132,0.17181 0.72793,0.31633 0.83691,0.32117 0.12001,0.005 0.2814,-0.84203 0.40929,-2.14892 z m 5.00255,3.85971 c -1.23073,-0.6063 -1.68297,-2.27016 -0.94569,-3.47933 1.24449,-2.04104 4.40556,-1.17487 4.40363,1.20664 -9.1e-4,1.0702 -0.53349,1.97204 -1.37147,2.32217 -0.81327,0.3398 -1.32068,0.32777 -2.08647,-0.0495 z m 3.82504,-21.8404 c 0,-0.27781 -0.94523,-1.3153398 -1.68954,-1.8545098 l -0.69505,-0.50349 3.25334,-2.9882704 c 1.78934,-1.64355 3.72653,-3.42956 4.30488,-3.96892 0.92852,-0.86591998 1.12999,-0.97397998 1.72224,-0.92366998 0.84517,0.0718 1.4562,0.79300998 1.27695,1.50721998 -0.11392,0.4539 -7.73446,8.9007902 -8.03003,8.9007902 -0.0785,0 -0.14279,-0.0761 -0.14279,-0.16915 z"
     id="path4138"
     inkscape:connector-curvature="0" />
</svg>
