<?xml version="1.0" encoding="UTF-8" standalone="no"?>
<!-- Created with Inkscape (http://www.inkscape.org/) -->

<svg
   xmlns:dc="http://purl.org/dc/elements/1.1/"
   xmlns:cc="http://creativecommons.org/ns#"
   xmlns:rdf="http://www.w3.org/1999/02/22-rdf-syntax-ns#"
   xmlns:svg="http://www.w3.org/2000/svg"
   xmlns="http://www.w3.org/2000/svg"
   xmlns:sodipodi="http://sodipodi.sourceforge.net/DTD/sodipodi-0.dtd"
   xmlns:inkscape="http://www.inkscape.org/namespaces/inkscape"
   id="svg2"
   version="1.1"
   inkscape:version="0.91 r13725"
   width="38"
   height="38"
   viewBox="0 0 38 38"
   sodipodi:docname="mobile.svg">
  <metadata
     id="metadata8">
    <rdf:RDF>
      <cc:Work
         rdf:about="">
        <dc:format>image/svg+xml</dc:format>
        <dc:type
           rdf:resource="http://purl.org/dc/dcmitype/StillImage" />
        <dc:title></dc:title>
      </cc:Work>
    </rdf:RDF>
  </metadata>
  <defs
     id="defs6" />
  <sodipodi:namedview
     pagecolor="#ffffff"
     bordercolor="#666666"
     borderopacity="1"
     objecttolerance="10"
     gridtolerance="10"
     guidetolerance="10"
     inkscape:pageopacity="0"
     inkscape:pageshadow="2"
     inkscape:window-width="1872"
     inkscape:window-height="1059"
     id="namedview4"
     showgrid="false"
     inkscape:zoom="14.75"
     inkscape:cx="16.539462"
     inkscape:cy="25.41486"
     inkscape:window-x="48"
     inkscape:window-y="21"
     inkscape:window-maximized="1"
     inkscape:current-layer="svg2" />
  <path
     style="fill:#cccccc;fill-opacity:1;stroke:#000000;stroke-width:0.5;stroke-miterlimit:4;stroke-dasharray:none;stroke-opacity:1"
     d="m 11.590084,37.391522 c -0.41,-0.17853 -0.922029,-0.66063 -1.145809,-1.07883 l -0.1972,-0.36852 0,-14.89508 0,-14.8950796 0.19462,-0.36 c 0.22942,-0.42439 0.67068,-0.85851 1.110389,-1.09243 0.29768,-0.15837 0.67988,-0.169 6.95253,-0.19337 l 6.63754,-0.0258 0,-1.97672 0,-1.97671003 1.57611,0 1.57611,0 -0.0236,17.70758963 -0.0236,17.7076 -0.1972,0.36852 c -0.2296,0.42907 -0.74337,0.90621 -1.16587,1.08274 -0.43206,0.18053 -14.87893,0.17683 -15.29401,-0.004 z m 4.46202,-5.04971 0,-1.12735 -1.37251,0.0248 -1.37251,0.0248 -0.0257,0.98421 c -0.0142,0.54133 -0.005,1.03745 0.0197,1.10251 0.0347,0.0904 0.3637,0.11829 1.39822,0.11829 l 1.35284,0 0,-1.12735 z m 4.5703,0.0248 -0.0253,-1.10251 -1.35001,0 -1.35,0 -0.0253,1.10251 -0.0253,1.1025 1.40055,0 1.40055,0 -0.0253,-1.1025 z m 4.56475,-0.0225 0,-1.08 -1.37251,-0.0248 -1.37251,-0.0248 0,1.12969 0,1.1297 1.37251,-0.0248 1.37251,-0.0248 0,-1.08001 z m -9.13505,-3.96236 0,-1.12735 -1.37251,0.0248 -1.37251,0.0248 -0.0257,0.98422 c -0.0142,0.54132 -0.005,1.03745 0.0197,1.1025 0.0347,0.0905 0.3637,0.11829 1.39822,0.11829 l 1.35284,0 0,-1.12736 z m 4.5703,-0.0201 0.0253,-1.10251 -1.39778,0 -1.39777,0 0,1.06501 c 0,0.58575 0.028,1.09305 0.0623,1.12731 0.0343,0.0343 0.6519,0.0512 1.37251,0.0375 l 1.3102,-0.0248 0.0253,-1.10251 z m 4.56475,0.0225 0,-1.08 -1.37251,-0.0248 -1.37251,-0.0248 0,1.1297 0,1.12969 1.37251,-0.0248 1.37251,-0.0248 0,-1.08 z m -9.13505,-4.00502 0,-1.08 -1.39501,0 -1.395,0 0,1.08 0,1.08001 1.395,0 1.39501,0 0,-1.08001 z m 4.59002,0 0,-1.08 -1.395,0 -1.39501,0 0,1.08 0,1.08001 1.39501,0 1.395,0 0,-1.08001 z m 4.59003,0 0,-1.08 -1.39501,0 -1.39501,0 0,1.08 0,1.08001 1.39501,0 1.39501,0 0,-1.08001 z m -0.0218,-9.69755 0.0232,-5.6025296 -5.98571,0 -5.98571,0 0,5.5650296 c 0,3.06077 0.0273,5.59232 0.0606,5.62567 0.0333,0.0333 2.7165,0.0502 5.96253,0.0375 l 5.90189,-0.0231 0.0232,-5.60254 z"
     id="path4138"
     inkscape:connector-curvature="0" />
</svg>
