<?xml version="1.0" encoding="UTF-8" standalone="no"?>
<!-- Created with Inkscape (http://www.inkscape.org/) -->

<svg
   xmlns:dc="http://purl.org/dc/elements/1.1/"
   xmlns:cc="http://creativecommons.org/ns#"
   xmlns:rdf="http://www.w3.org/1999/02/22-rdf-syntax-ns#"
   xmlns:svg="http://www.w3.org/2000/svg"
   xmlns="http://www.w3.org/2000/svg"
   xmlns:sodipodi="http://sodipodi.sourceforge.net/DTD/sodipodi-0.dtd"
   xmlns:inkscape="http://www.inkscape.org/namespaces/inkscape"
   id="svg2"
   version="1.1"
   inkscape:version="0.91 r13725"
   width="38"
   height="38"
   viewBox="0 0 38 38"
   sodipodi:docname="pharma.svg">
  <metadata
     id="metadata8">
    <rdf:RDF>
      <cc:Work
         rdf:about="">
        <dc:format>image/svg+xml</dc:format>
        <dc:type
           rdf:resource="http://purl.org/dc/dcmitype/StillImage" />
        <dc:title></dc:title>
      </cc:Work>
    </rdf:RDF>
  </metadata>
  <defs
     id="defs6" />
  <sodipodi:namedview
     pagecolor="#ffffff"
     bordercolor="#666666"
     borderopacity="1"
     objecttolerance="10"
     gridtolerance="10"
     guidetolerance="10"
     inkscape:pageopacity="0"
     inkscape:pageshadow="2"
     inkscape:window-width="1872"
     inkscape:window-height="1059"
     id="namedview4"
     showgrid="false"
     inkscape:zoom="16.430986"
     inkscape:cx="26.23978"
     inkscape:cy="20.765907"
     inkscape:window-x="48"
     inkscape:window-y="21"
     inkscape:window-maximized="1"
     inkscape:current-layer="svg2" />
  <path
     style="fill:#cccccc;fill-opacity:1;stroke:#000000;stroke-opacity:1;stroke-width:0.5;stroke-miterlimit:4;stroke-dasharray:none"
     d="M 1.979959,31.199581 C 0.73618452,30.532539 0.6310461,30.07335 0.6310461,25.308169 c 0,-2.522719 0.0819842,-4.4563 0.2023121,-4.772854 0.11127263,-0.29267 1.2287408,-1.570358 2.4832453,-2.839312 l 2.2809331,-2.307184 0,-3.656788 0,-3.6567781 -0.8118287,-0.058713 -0.8118287,-0.058713 0,-0.9550966 0,-0.9550966 5.4208309,-0.050826 c 3.8399669,-0.035929 5.4972359,0.012658 5.6828199,0.1666558 0.327957,0.2721837 0.343117,1.3936634 0.0224,1.6598006 -0.131739,0.1093447 -0.540044,0.2273163 -0.907337,0.2621644 l -0.667802,0.063387 0,3.6679172 0,3.667927 2.416957,2.444687 c 2.385459,2.412819 2.418651,2.458378 2.546944,3.495283 0.07147,0.577833 0.101322,2.640846 0.06631,4.584466 -0.07088,3.933762 -0.210462,4.462901 -1.36234,5.165239 -0.576996,0.351811 -1.005572,0.372921 -7.5867138,0.373593 -6.3913993,5.74e-4 -7.0296493,-0.02853 -7.6260017,-0.348326 z m 8.73607,-2.946037 0.05647,-1.289382 1.241632,0 1.241623,0 -0.05647,-1.289372 -0.05647,-1.289382 -1.193873,-0.05686 -1.193863,-0.05686 0,-1.232509 0,-1.232509 -1.3371318,0 -1.337141,0 0,1.232898 0,1.232889 -1.2893719,0.05647 -1.2893819,0.05647 -0.056279,1.280454 -0.056279,1.280462 1.2979016,0.05667 1.2979016,0.05667 0.056668,1.297912 0.056668,1.297901 1.2804532,-0.05628 1.2804623,-0.05628 0.05647,-1.289382 z m 4.324365,-8.34719 0.560472,-0.218193 -1.648934,-1.66278 c -0.906909,-0.914523 -1.739341,-1.904751 -1.849844,-2.200507 -0.114544,-0.306555 -0.20092,-2.092749 -0.20092,-4.154662 l 0,-3.6169254 -2.5787636,0 -2.5787538,0 0,3.8298604 c 0,4.413925 -0.00292,4.423262 -1.6289056,5.812651 -0.8354697,0.71376 -1.0177142,0.959323 -0.8016829,1.080215 0.4104566,0.229702 3.8722836,1.097255 5.2003694,1.303238 1.4337015,0.22236 4.7806335,0.117669 5.5269625,-0.172897 z m 7.868722,9.843597 c -1.92956,-0.713701 -3.178982,-2.553195 -3.171971,-4.670033 0.0068,-2.099468 0.265037,-2.466352 5.307514,-7.54469 5.092066,-5.128278 5.564702,-5.465494 7.665027,-5.468678 3.611093,-0.0058 5.969414,3.734303 4.455764,7.065861 -0.464379,1.022096 -9.252892,9.934159 -10.269292,10.41366 -0.981415,0.463006 -3.006513,0.566557 -3.987042,0.20388 z m -0.479345,-3.86357 c 0.1432,-0.172546 0.268572,-0.710088 0.27861,-1.194545 0.02707,-1.305009 0.473269,-2.044766 2.375478,-3.938163 l 1.717793,-1.709828 2.253349,2.247487 2.253349,2.247477 2.297583,-2.346472 c 1.9932,-2.035633 2.328283,-2.469321 2.529388,-3.27374 0.743554,-2.974236 -2.290475,-5.464189 -5.037696,-4.134283 -1.121285,0.54281 -8.867654,8.406858 -9.419927,9.56304 -0.397118,0.83137 -0.568496,2.446148 -0.289253,2.72539 0.230598,0.230598 0.776338,0.132928 1.041326,-0.186363 z"
     id="path4151"
     inkscape:connector-curvature="0" />
</svg>
