<?xml version="1.0" encoding="UTF-8" standalone="no"?>
<!-- Created with Inkscape (http://www.inkscape.org/) -->

<svg
   xmlns:dc="http://purl.org/dc/elements/1.1/"
   xmlns:cc="http://creativecommons.org/ns#"
   xmlns:rdf="http://www.w3.org/1999/02/22-rdf-syntax-ns#"
   xmlns:svg="http://www.w3.org/2000/svg"
   xmlns="http://www.w3.org/2000/svg"
   xmlns:sodipodi="http://sodipodi.sourceforge.net/DTD/sodipodi-0.dtd"
   xmlns:inkscape="http://www.inkscape.org/namespaces/inkscape"
   id="svg2"
   version="1.1"
   inkscape:version="0.91 r13725"
   width="38"
   height="38"
   viewBox="0 0 38 38"
   sodipodi:docname="security.svg">
  <metadata
     id="metadata8">
    <rdf:RDF>
      <cc:Work
         rdf:about="">
        <dc:format>image/svg+xml</dc:format>
        <dc:type
           rdf:resource="http://purl.org/dc/dcmitype/StillImage" />
        <dc:title></dc:title>
      </cc:Work>
    </rdf:RDF>
  </metadata>
  <defs
     id="defs6" />
  <sodipodi:namedview
     pagecolor="#ffffff"
     bordercolor="#666666"
     borderopacity="1"
     objecttolerance="10"
     gridtolerance="10"
     guidetolerance="10"
     inkscape:pageopacity="0"
     inkscape:pageshadow="2"
     inkscape:window-width="1872"
     inkscape:window-height="1059"
     id="namedview4"
     showgrid="false"
     inkscape:zoom="10.429825"
     inkscape:cx="30.694304"
     inkscape:cy="23.744295"
     inkscape:window-x="48"
     inkscape:window-y="21"
     inkscape:window-maximized="1"
     inkscape:current-layer="svg2" />
  <path
     style="fill:#cccccc;fill-opacity:1;stroke:#000000;stroke-opacity:1;stroke-width:0.5;stroke-miterlimit:4;stroke-dasharray:none"
     d="m 18.024354,37.095361 c -2.60357,-1.36877 -4.54033,-2.8238 -6.67276,-5.01304 -4.2119605,-4.32417 -6.6653705,-9.81814 -7.1455205,-16.00112 -0.0492,-0.63372 -0.0895,-3.49732 -0.0895,-6.3635499 0,-5.71365 -0.004,-5.66613 0.503,-5.92832 0.34298,-0.17737 0.68718,-0.16926 1.37245,0.0323 1.2121,0.35656 2.05845,0.46743 3.56443,0.46693 1.0516105,-3.4e-4 1.6825305,-0.0438 2.2701905,-0.15644 2.29057,-0.43893 4.46242,-1.49415 6.16621,-2.99592 0.68071,-0.60000004 1.04831,-0.74795004 1.42826,-0.57483004 0.11769,0.0536 0.52916,0.36206 0.91438,0.68542004 1.7989,1.51003 3.80835,2.46265 6.09744,2.89065 1.69648,0.31719 4.08218,0.1871 5.79179,-0.31581 0.84197,-0.24769 1.13051,-0.22348 1.51262,0.12687 l 0.31999,0.2934 -0.004,5.8960799 c -0.003,5.60639 -0.013,5.96539 -0.19448,7.30697 -0.64885,4.79671 -2.28772,8.75752 -5.22945,12.63856 -0.98563,1.30034 -3.33802,3.60875 -4.76687,4.67776 -1.8951,1.41784 -4.19831,2.73247 -4.78725,2.73247 -0.18353,0 -0.57748,-0.14929 -1.05133,-0.39841 z m 1.98714,-2.2675 c 1.90255,-1.08726 3.44127,-2.26924 5.05523,-3.8832 1.343,-1.343 1.96858,-2.10418 2.99245,-3.6411 2.03662,-3.05714 3.249,-6.32899 3.78153,-10.20529 0.10426,-0.75884 0.14428,-2.10847 0.17828,-6.01149 0.0399,-4.5854899 0.0316,-5.0329599 -0.094,-5.0329599 -0.0758,0 -0.49439,0.0649 -0.93024,0.14418 -0.99056,0.18021 -3.58212,0.20224 -4.519,0.0384 -1.67279,-0.2925 -3.15077,-0.76807 -4.49868,-1.44753 -0.77712,-0.39174 -2.07976,-1.22979 -2.54092,-1.6347 l -0.30978,-0.27199 -0.7872,0.59114 c -1.8853,1.41574 -4.17667,2.3698 -6.64105,2.76513 -0.9885,0.15858 -3.4915305,0.1359 -4.5180405,-0.0409 -0.45888,-0.079 -0.87644,-0.14373 -0.92791,-0.14373 -0.15657,0 -0.0518,9.9889499 0.11722,11.1795999 0.50365,3.54708 1.58881,6.59757 3.37366,9.48368 1.7100605,2.76518 4.5609205,5.66836 7.2664505,7.39983 0.83225,0.53262 1.95997,1.14908 2.10244,1.14929 0.0727,9e-5 0.47744,-0.19716 0.89951,-0.43836 z m -1.92193,-3.021 c -0.51478,-0.34788 -1.21219,-0.85571 -1.54981,-1.12849 l -0.61385,-0.49597 6.70988,-6.71129 c 4.20719,-4.20807 6.72039,-6.66195 6.73806,-6.57901 0.0489,0.22931 -0.41018,2.41862 -0.72486,3.45697 -1.44367,4.76381 -4.51695,8.84632 -8.72428,11.58928 -0.42269,0.27557 -0.79793,0.50104 -0.83386,0.50104 -0.0359,0 -0.48651,-0.28464 -1.00128,-0.63253 z m -4.67849,-4.20031 c -0.0469,-0.0666 -0.31224,-0.4178 -0.58969,-0.78039 l -0.50446,-0.65926 8.60004,-8.60052 8.60002,-8.6005099 0.0236,1.3900299 0.0236,1.39004 -7.99052,7.99087 c -4.3948,4.39498 -8.01008,7.99087 -8.03398,7.99087 -0.0239,0 -0.0818,-0.0545 -0.12867,-0.12113 z m -2.90302,-4.66129 c -0.15437,-0.24979 -0.8385705,-2.15354 -1.0675705,-2.97048 -0.6573,-2.34485 -0.78195,-3.58096 -0.78281,-7.76293 l -6.9e-4,-3.3938999 1.5634295,-0.0475 c 1.764501,-0.0536 2.981111,-0.26468 4.584821,-0.79556 1.05023,-0.34766 2.76903,-1.14973 3.68336,-1.71882 l 0.62236,-0.38737 0.57542,0.36341 c 1.29931,0.82059 3.10939,1.58818 5.07609,2.15257 l 0.3855,0.11063 -7.29362,7.2675599 c -4.01149,3.99716 -7.31731,7.22922 -7.34627,7.18236 z"
     id="path4138"
     inkscape:connector-curvature="0" />
</svg>
